M48
; DRILL file KiCad 10.0.6 date 2026-10-08T15:39:53
; FORMAT={-:-/ absolute / metric / decimal}
; #@! TF.CreationDate,2026-10-08T15:39:53-04:00
; #@! TF.GenerationSoftware,Kicad,Pcbnew,10.0.6
; #@! TF.FileFunction,Plated,1,2,PTH
FMAT,2
METRIC
; #@! TA.AperFunction,Plated,PTH,ComponentDrill
T1C0.800
; #@! TA.AperFunction,Plated,PTH,ComponentDrill
T2C0.900
; #@! TA.AperFunction,Plated,PTH,ComponentDrill
T3C1.000
; #@! TA.AperFunction,Plated,PTH,ComponentDrill
T4C1.500
%
G90
G05
T1
X112.295Y-120.5
X112.295Y-139.5
X119.915Y-120.5
X119.915Y-139.5
X131.345Y-120.5
X131.345Y-139.5
X138.965Y-120.5
X138.965Y-139.5
T2
X109.755Y-116.105
X109.755Y-135.155
X112.295Y-116.105
X112.295Y-135.155
X128.805Y-116.105
X128.805Y-135.155
X131.345Y-116.105
X131.345Y-135.155
T3
X142.24Y-101.6
X142.24Y-104.14
X142.24Y-106.68
X142.24Y-109.22
X142.24Y-111.76
X142.24Y-114.3
X142.24Y-116.84
X142.24Y-119.38
X142.24Y-121.92
X142.24Y-124.46
X142.24Y-127.0
X142.24Y-129.54
X142.24Y-132.08
X142.24Y-134.62
X142.24Y-137.16
X142.24Y-139.7
X142.24Y-142.24
X142.24Y-144.78
X142.24Y-147.32
X142.24Y-149.86
X160.02Y-101.6
X160.02Y-104.14
X160.02Y-106.68
X160.02Y-109.22
X160.02Y-111.76
X160.02Y-114.3
X160.02Y-116.84
X160.02Y-119.38
X160.02Y-121.92
X160.02Y-124.46
X160.02Y-127.0
X160.02Y-129.54
X160.02Y-132.08
X160.02Y-134.62
X160.02Y-137.16
X160.02Y-139.7
X160.02Y-142.24
X160.02Y-144.78
X160.02Y-147.32
X160.02Y-149.86
T4
X107.215Y-108.485
X107.215Y-127.535
X113.565Y-105.945
X113.565Y-124.995
X126.265Y-108.485
X126.265Y-127.535
X132.615Y-105.945
X132.615Y-124.995
M30
