%TF.GenerationSoftware,KiCad,Pcbnew,10.0.6*%
%TF.CreationDate,2026-10-08T15:39:52-04:00*%
%TF.ProjectId,stream-deck,73747265-616d-42d6-9465-636b2e6b6963,rev?*%
%TF.SameCoordinates,Original*%
%TF.FileFunction,Soldermask,Bot*%
%TF.FilePolarity,Negative*%
%FSLAX46Y46*%
G04 Gerber Fmt 4.6, Leading zero omitted, Abs format (unit mm)*
G04 Created by KiCad (PCBNEW 10.0.6) date 2026-10-08 15:39:52*
%MOMM*%
%LPD*%
G01*
G04 APERTURE LIST*
G04 Aperture macros list*
%AMRoundRect*
0 Rectangle with rounded corners*
0 $1 Rounding radius*
0 $2 $3 $4 $5 $6 $7 $8 $9 X,Y pos of 4 corners*
0 Add a 4 corners polygon primitive as box body*
4,1,4,$2,$3,$4,$5,$6,$7,$8,$9,$2,$3,0*
0 Add four circle primitives for the rounded corners*
1,1,$1+$1,$2,$3*
1,1,$1+$1,$4,$5*
1,1,$1+$1,$6,$7*
1,1,$1+$1,$8,$9*
0 Add four rect primitives between the rounded corners*
20,1,$1+$1,$2,$3,$4,$5,0*
20,1,$1+$1,$4,$5,$6,$7,0*
20,1,$1+$1,$6,$7,$8,$9,0*
20,1,$1+$1,$8,$9,$2,$3,0*%
%AMFreePoly0*
4,1,37,0.603843,0.796157,0.639018,0.796157,0.711114,0.766294,0.766294,0.711114,0.796157,0.639018,0.796157,0.603843,0.800000,0.600000,0.800000,-0.600000,0.796157,-0.603843,0.796157,-0.639018,0.766294,-0.711114,0.711114,-0.766294,0.639018,-0.796157,0.603843,-0.796157,0.600000,-0.800000,0.000000,-0.800000,0.000000,-0.796148,-0.078414,-0.796148,-0.232228,-0.765552,-0.377117,-0.705537,
-0.507515,-0.618408,-0.618408,-0.507515,-0.705537,-0.377117,-0.765552,-0.232228,-0.796148,-0.078414,-0.796148,0.078414,-0.765552,0.232228,-0.705537,0.377117,-0.618408,0.507515,-0.507515,0.618408,-0.377117,0.705537,-0.232228,0.765552,-0.078414,0.796148,0.000000,0.796148,0.000000,0.800000,0.600000,0.800000,0.603843,0.796157,0.603843,0.796157,$1*%
%AMFreePoly1*
4,1,37,0.000000,0.796148,0.078414,0.796148,0.232228,0.765552,0.377117,0.705537,0.507515,0.618408,0.618408,0.507515,0.705537,0.377117,0.765552,0.232228,0.796148,0.078414,0.796148,-0.078414,0.765552,-0.232228,0.705537,-0.377117,0.618408,-0.507515,0.507515,-0.618408,0.377117,-0.705537,0.232228,-0.765552,0.078414,-0.796148,0.000000,-0.796148,0.000000,-0.800000,-0.600000,-0.800000,
-0.603843,-0.796157,-0.639018,-0.796157,-0.711114,-0.766294,-0.766294,-0.711114,-0.796157,-0.639018,-0.796157,-0.603843,-0.800000,-0.600000,-0.800000,0.600000,-0.796157,0.603843,-0.796157,0.639018,-0.766294,0.711114,-0.711114,0.766294,-0.639018,0.796157,-0.603843,0.796157,-0.600000,0.800000,0.000000,0.800000,0.000000,0.796148,0.000000,0.796148,$1*%
G04 Aperture macros list end*
%ADD10RoundRect,0.200000X-0.600000X-0.600000X0.600000X-0.600000X0.600000X0.600000X-0.600000X0.600000X0*%
%ADD11C,1.600000*%
%ADD12FreePoly0,0.000000*%
%ADD13FreePoly1,0.000000*%
%ADD14R,1.800000X1.800000*%
%ADD15C,1.800000*%
%ADD16C,1.700000*%
%ADD17C,4.000000*%
%ADD18C,2.200000*%
G04 APERTURE END LIST*
D10*
%TO.C,U1*%
X142240000Y-101600000D03*
D11*
X142240000Y-104140000D03*
D12*
X142240000Y-106680000D03*
D11*
X142240000Y-109220000D03*
X142240000Y-111760000D03*
X142240000Y-114300000D03*
X142240000Y-116840000D03*
D12*
X142240000Y-119380000D03*
D11*
X142240000Y-121920000D03*
X142240000Y-124460000D03*
X142240000Y-127000000D03*
X142240000Y-129540000D03*
D12*
X142240000Y-132080000D03*
D11*
X142240000Y-134620000D03*
X142240000Y-137160000D03*
X142240000Y-139700000D03*
X142240000Y-142240000D03*
D12*
X142240000Y-144780000D03*
D11*
X142240000Y-147320000D03*
X142240000Y-149860000D03*
X160020000Y-149860000D03*
X160020000Y-147320000D03*
D13*
X160020000Y-144780000D03*
D11*
X160020000Y-142240000D03*
X160020000Y-139700000D03*
X160020000Y-137160000D03*
X160020000Y-134620000D03*
D13*
X160020000Y-132080000D03*
D11*
X160020000Y-129540000D03*
X160020000Y-127000000D03*
X160020000Y-124460000D03*
X160020000Y-121920000D03*
D13*
X160020000Y-119380000D03*
D11*
X160020000Y-116840000D03*
X160020000Y-114300000D03*
X160020000Y-111760000D03*
X160020000Y-109220000D03*
D13*
X160020000Y-106680000D03*
D11*
X160020000Y-104140000D03*
X160020000Y-101600000D03*
%TD*%
D14*
%TO.C,D4*%
X128805000Y-135155000D03*
D15*
X131345000Y-135155000D03*
%TD*%
D16*
%TO.C,SW3*%
X105945000Y-130075000D03*
D17*
X111025000Y-130075000D03*
D16*
X116105000Y-130075000D03*
D18*
X113565000Y-124995000D03*
X107215000Y-127535000D03*
%TD*%
D14*
%TO.C,D1*%
X109755000Y-116105000D03*
D15*
X112295000Y-116105000D03*
%TD*%
D16*
%TO.C,SW2*%
X124995000Y-111025000D03*
D17*
X130075000Y-111025000D03*
D16*
X135155000Y-111025000D03*
D18*
X132615000Y-105945000D03*
X126265000Y-108485000D03*
%TD*%
D14*
%TO.C,D2*%
X128805000Y-116105000D03*
D15*
X131345000Y-116105000D03*
%TD*%
D14*
%TO.C,D3*%
X109755000Y-135155000D03*
D15*
X112295000Y-135155000D03*
%TD*%
D18*
%TO.C,H1*%
X104000000Y-147500000D03*
%TD*%
D16*
%TO.C,SW1*%
X105945000Y-111025000D03*
D17*
X111025000Y-111025000D03*
D16*
X116105000Y-111025000D03*
D18*
X113565000Y-105945000D03*
X107215000Y-108485000D03*
%TD*%
%TO.C,H2*%
X127000000Y-147500000D03*
%TD*%
D16*
%TO.C,SW4*%
X124995000Y-130075000D03*
D17*
X130075000Y-130075000D03*
D16*
X135155000Y-130075000D03*
D18*
X132615000Y-124995000D03*
X126265000Y-127535000D03*
%TD*%
D11*
%TO.C,R4*%
X138965000Y-139500000D03*
X131345000Y-139500000D03*
%TD*%
%TO.C,R1*%
X119915000Y-120500000D03*
X112295000Y-120500000D03*
%TD*%
%TO.C,R3*%
X119915000Y-139500000D03*
X112295000Y-139500000D03*
%TD*%
%TO.C,R2*%
X138965000Y-120500000D03*
X131345000Y-120500000D03*
%TD*%
M02*
