%TF.GenerationSoftware,KiCad,Pcbnew,10.0.6*%
%TF.CreationDate,2026-10-08T15:39:52-04:00*%
%TF.ProjectId,stream-deck,73747265-616d-42d6-9465-636b2e6b6963,rev?*%
%TF.SameCoordinates,Original*%
%TF.FileFunction,Copper,L2,Bot*%
%TF.FilePolarity,Positive*%
%FSLAX46Y46*%
G04 Gerber Fmt 4.6, Leading zero omitted, Abs format (unit mm)*
G04 Created by KiCad (PCBNEW 10.0.6) date 2026-10-08 15:39:52*
%MOMM*%
%LPD*%
G01*
G04 APERTURE LIST*
G04 Aperture macros list*
%AMRoundRect*
0 Rectangle with rounded corners*
0 $1 Rounding radius*
0 $2 $3 $4 $5 $6 $7 $8 $9 X,Y pos of 4 corners*
0 Add a 4 corners polygon primitive as box body*
4,1,4,$2,$3,$4,$5,$6,$7,$8,$9,$2,$3,0*
0 Add four circle primitives for the rounded corners*
1,1,$1+$1,$2,$3*
1,1,$1+$1,$4,$5*
1,1,$1+$1,$6,$7*
1,1,$1+$1,$8,$9*
0 Add four rect primitives between the rounded corners*
20,1,$1+$1,$2,$3,$4,$5,0*
20,1,$1+$1,$4,$5,$6,$7,0*
20,1,$1+$1,$6,$7,$8,$9,0*
20,1,$1+$1,$8,$9,$2,$3,0*%
%AMFreePoly0*
4,1,37,0.603843,0.796157,0.639018,0.796157,0.711114,0.766294,0.766294,0.711114,0.796157,0.639018,0.796157,0.603843,0.800000,0.600000,0.800000,-0.600000,0.796157,-0.603843,0.796157,-0.639018,0.766294,-0.711114,0.711114,-0.766294,0.639018,-0.796157,0.603843,-0.796157,0.600000,-0.800000,0.000000,-0.800000,0.000000,-0.796148,-0.078414,-0.796148,-0.232228,-0.765552,-0.377117,-0.705537,
-0.507515,-0.618408,-0.618408,-0.507515,-0.705537,-0.377117,-0.765552,-0.232228,-0.796148,-0.078414,-0.796148,0.078414,-0.765552,0.232228,-0.705537,0.377117,-0.618408,0.507515,-0.507515,0.618408,-0.377117,0.705537,-0.232228,0.765552,-0.078414,0.796148,0.000000,0.796148,0.000000,0.800000,0.600000,0.800000,0.603843,0.796157,0.603843,0.796157,$1*%
%AMFreePoly1*
4,1,37,0.000000,0.796148,0.078414,0.796148,0.232228,0.765552,0.377117,0.705537,0.507515,0.618408,0.618408,0.507515,0.705537,0.377117,0.765552,0.232228,0.796148,0.078414,0.796148,-0.078414,0.765552,-0.232228,0.705537,-0.377117,0.618408,-0.507515,0.507515,-0.618408,0.377117,-0.705537,0.232228,-0.765552,0.078414,-0.796148,0.000000,-0.796148,0.000000,-0.800000,-0.600000,-0.800000,
-0.603843,-0.796157,-0.639018,-0.796157,-0.711114,-0.766294,-0.766294,-0.711114,-0.796157,-0.639018,-0.796157,-0.603843,-0.800000,-0.600000,-0.800000,0.600000,-0.796157,0.603843,-0.796157,0.639018,-0.766294,0.711114,-0.711114,0.766294,-0.639018,0.796157,-0.603843,0.796157,-0.600000,0.800000,0.000000,0.800000,0.000000,0.796148,0.000000,0.796148,$1*%
G04 Aperture macros list end*
%TA.AperFunction,ComponentPad*%
%ADD10RoundRect,0.200000X-0.600000X-0.600000X0.600000X-0.600000X0.600000X0.600000X-0.600000X0.600000X0*%
%TD*%
%TA.AperFunction,ComponentPad*%
%ADD11C,1.600000*%
%TD*%
%TA.AperFunction,ComponentPad*%
%ADD12FreePoly0,0.000000*%
%TD*%
%TA.AperFunction,ComponentPad*%
%ADD13FreePoly1,0.000000*%
%TD*%
%TA.AperFunction,ComponentPad*%
%ADD14R,1.800000X1.800000*%
%TD*%
%TA.AperFunction,ComponentPad*%
%ADD15C,1.800000*%
%TD*%
%TA.AperFunction,ComponentPad*%
%ADD16C,2.200000*%
%TD*%
%TA.AperFunction,Conductor*%
%ADD17C,0.250000*%
%TD*%
G04 APERTURE END LIST*
D10*
%TO.P,U1,1*%
%TO.N,N/C*%
X142240000Y-101600000D03*
D11*
%TO.P,U1,2*%
X142240000Y-104140000D03*
D12*
%TO.P,U1,3*%
%TO.N,/GND*%
X142240000Y-106680000D03*
D11*
%TO.P,U1,4*%
%TO.N,/KEY1*%
X142240000Y-109220000D03*
%TO.P,U1,5*%
%TO.N,/KEY2*%
X142240000Y-111760000D03*
%TO.P,U1,6*%
%TO.N,/KEY3*%
X142240000Y-114300000D03*
%TO.P,U1,7*%
%TO.N,/KEY4*%
X142240000Y-116840000D03*
D12*
%TO.P,U1,8*%
%TO.N,/GND*%
X142240000Y-119380000D03*
D11*
%TO.P,U1,9*%
%TO.N,/LED1*%
X142240000Y-121920000D03*
%TO.P,U1,10*%
%TO.N,/LED2*%
X142240000Y-124460000D03*
%TO.P,U1,11*%
%TO.N,/LED3*%
X142240000Y-127000000D03*
%TO.P,U1,12*%
%TO.N,/LED4*%
X142240000Y-129540000D03*
D12*
%TO.P,U1,13*%
%TO.N,/GND*%
X142240000Y-132080000D03*
D11*
%TO.P,U1,14*%
%TO.N,N/C*%
X142240000Y-134620000D03*
%TO.P,U1,15*%
X142240000Y-137160000D03*
%TO.P,U1,16*%
X142240000Y-139700000D03*
%TO.P,U1,17*%
X142240000Y-142240000D03*
D12*
%TO.P,U1,18*%
%TO.N,/GND*%
X142240000Y-144780000D03*
D11*
%TO.P,U1,19*%
%TO.N,N/C*%
X142240000Y-147320000D03*
%TO.P,U1,20*%
X142240000Y-149860000D03*
%TO.P,U1,21*%
X160020000Y-149860000D03*
%TO.P,U1,22*%
X160020000Y-147320000D03*
D13*
%TO.P,U1,23*%
%TO.N,/GND*%
X160020000Y-144780000D03*
D11*
%TO.P,U1,24*%
%TO.N,N/C*%
X160020000Y-142240000D03*
%TO.P,U1,25*%
X160020000Y-139700000D03*
%TO.P,U1,26*%
X160020000Y-137160000D03*
%TO.P,U1,27*%
X160020000Y-134620000D03*
D13*
%TO.P,U1,28*%
%TO.N,/GND*%
X160020000Y-132080000D03*
D11*
%TO.P,U1,29*%
%TO.N,N/C*%
X160020000Y-129540000D03*
%TO.P,U1,30*%
X160020000Y-127000000D03*
%TO.P,U1,31*%
X160020000Y-124460000D03*
%TO.P,U1,32*%
X160020000Y-121920000D03*
D13*
%TO.P,U1,33*%
X160020000Y-119380000D03*
D11*
%TO.P,U1,34*%
X160020000Y-116840000D03*
%TO.P,U1,35*%
X160020000Y-114300000D03*
%TO.P,U1,36*%
X160020000Y-111760000D03*
%TO.P,U1,37*%
X160020000Y-109220000D03*
D13*
%TO.P,U1,38*%
%TO.N,/GND*%
X160020000Y-106680000D03*
D11*
%TO.P,U1,39*%
%TO.N,N/C*%
X160020000Y-104140000D03*
%TO.P,U1,40*%
X160020000Y-101600000D03*
%TD*%
D14*
%TO.P,D4,1*%
%TO.N,/GND*%
X128805000Y-135155000D03*
D15*
%TO.P,D4,2*%
%TO.N,/LED4_A*%
X131345000Y-135155000D03*
%TD*%
D16*
%TO.P,SW3,1*%
%TO.N,/KEY3*%
X113565000Y-124995000D03*
%TO.P,SW3,2*%
%TO.N,/GND*%
X107215000Y-127535000D03*
%TD*%
D14*
%TO.P,D1,1*%
%TO.N,/GND*%
X109755000Y-116105000D03*
D15*
%TO.P,D1,2*%
%TO.N,/LED1_A*%
X112295000Y-116105000D03*
%TD*%
D16*
%TO.P,SW2,1*%
%TO.N,/KEY2*%
X132615000Y-105945000D03*
%TO.P,SW2,2*%
%TO.N,/GND*%
X126265000Y-108485000D03*
%TD*%
D14*
%TO.P,D2,1*%
%TO.N,/GND*%
X128805000Y-116105000D03*
D15*
%TO.P,D2,2*%
%TO.N,/LED2_A*%
X131345000Y-116105000D03*
%TD*%
D14*
%TO.P,D3,1*%
%TO.N,/GND*%
X109755000Y-135155000D03*
D15*
%TO.P,D3,2*%
%TO.N,/LED3_A*%
X112295000Y-135155000D03*
%TD*%
D16*
%TO.P,SW1,1*%
%TO.N,/KEY1*%
X113565000Y-105945000D03*
%TO.P,SW1,2*%
%TO.N,/GND*%
X107215000Y-108485000D03*
%TD*%
%TO.P,SW4,1*%
%TO.N,/KEY4*%
X132615000Y-124995000D03*
%TO.P,SW4,2*%
%TO.N,/GND*%
X126265000Y-127535000D03*
%TD*%
D11*
%TO.P,R4,1*%
%TO.N,/LED4*%
X138965000Y-139500000D03*
%TO.P,R4,2*%
%TO.N,/LED4_A*%
X131345000Y-139500000D03*
%TD*%
%TO.P,R1,1*%
%TO.N,/LED1*%
X119915000Y-120500000D03*
%TO.P,R1,2*%
%TO.N,/LED1_A*%
X112295000Y-120500000D03*
%TD*%
%TO.P,R3,1*%
%TO.N,/LED3*%
X119915000Y-139500000D03*
%TO.P,R3,2*%
%TO.N,/LED3_A*%
X112295000Y-139500000D03*
%TD*%
%TO.P,R2,1*%
%TO.N,/LED2*%
X138965000Y-120500000D03*
%TO.P,R2,2*%
%TO.N,/LED2_A*%
X131345000Y-120500000D03*
%TD*%
%TO.N,/LED1*%
D17*
X140500000Y-122600000D02*
X119915000Y-122600000D01*
X142240000Y-121920000D02*
X140500000Y-121920000D01*
X140500000Y-121920000D02*
X140500000Y-122600000D01*
X119915000Y-122600000D02*
X119915000Y-120500000D01*
%TO.N,/LED4*%
X138965000Y-129539999D02*
X138965000Y-139500000D01*
X142240000Y-129539999D02*
X138965000Y-129539999D01*
%TO.N,/LED4_A*%
X131345000Y-139500000D02*
X131345000Y-135155000D01*
%TO.N,/LED1_A*%
X112295000Y-120500000D02*
X112295000Y-116105000D01*
%TO.N,/LED2_A*%
X131345000Y-120500000D02*
X131345000Y-116105000D01*
%TO.N,/LED3_A*%
X112295000Y-139500000D02*
X112295000Y-135155000D01*
%TD*%
%TA.AperFunction,Conductor*%
%TO.N,/GND*%
G36*
X141208038Y-100520185D02*
G01*
X141253793Y-100572989D01*
X141263737Y-100642147D01*
X141240265Y-100698810D01*
X141236357Y-100704032D01*
X141196204Y-100757668D01*
X141196202Y-100757671D01*
X141145908Y-100892517D01*
X141139501Y-100952116D01*
X141139501Y-100952123D01*
X141139500Y-100952135D01*
X141139500Y-102247870D01*
X141139501Y-102247876D01*
X141145908Y-102307483D01*
X141196202Y-102442328D01*
X141196206Y-102442335D01*
X141282452Y-102557544D01*
X141282455Y-102557547D01*
X141397664Y-102643793D01*
X141397671Y-102643797D01*
X141532517Y-102694091D01*
X141532516Y-102694091D01*
X141539444Y-102694835D01*
X141592127Y-102700500D01*
X142887872Y-102700499D01*
X142947483Y-102694091D01*
X143082331Y-102643796D01*
X143197546Y-102557546D01*
X143283796Y-102442331D01*
X143334091Y-102307483D01*
X143340500Y-102247873D01*
X143340499Y-100952128D01*
X143334091Y-100892517D01*
X143330568Y-100883072D01*
X143283797Y-100757671D01*
X143283795Y-100757668D01*
X143239734Y-100698810D01*
X143215317Y-100633348D01*
X143230168Y-100565075D01*
X143279573Y-100515669D01*
X143339001Y-100500500D01*
X159279417Y-100500500D01*
X159346456Y-100520185D01*
X159392211Y-100572989D01*
X159402155Y-100642147D01*
X159373130Y-100705703D01*
X159352305Y-100724815D01*
X159303072Y-100760586D01*
X159303070Y-100760588D01*
X159303069Y-100760588D01*
X159180588Y-100883069D01*
X159180588Y-100883070D01*
X159180586Y-100883072D01*
X159173725Y-100892516D01*
X159078768Y-101023211D01*
X159000128Y-101177552D01*
X158946597Y-101342302D01*
X158919500Y-101513389D01*
X158919500Y-101686610D01*
X158935336Y-101786599D01*
X158946598Y-101857701D01*
X159000127Y-102022445D01*
X159078768Y-102176788D01*
X159180586Y-102316928D01*
X159303072Y-102439414D01*
X159443212Y-102541232D01*
X159597555Y-102619873D01*
X159762299Y-102673402D01*
X159933389Y-102700500D01*
X159933390Y-102700500D01*
X160106610Y-102700500D01*
X160106611Y-102700500D01*
X160277701Y-102673402D01*
X160442445Y-102619873D01*
X160596788Y-102541232D01*
X160736928Y-102439414D01*
X160859414Y-102316928D01*
X160961232Y-102176788D01*
X161039873Y-102022445D01*
X161093402Y-101857701D01*
X161120500Y-101686611D01*
X161120500Y-101513389D01*
X161093402Y-101342299D01*
X161039873Y-101177555D01*
X160961232Y-101023212D01*
X160859414Y-100883072D01*
X160736928Y-100760586D01*
X160687696Y-100724816D01*
X160645032Y-100669488D01*
X160639053Y-100599874D01*
X160671659Y-100538079D01*
X160732498Y-100503722D01*
X160760583Y-100500500D01*
X160934108Y-100500500D01*
X160995572Y-100500500D01*
X161004418Y-100500816D01*
X161204561Y-100515130D01*
X161222063Y-100517647D01*
X161413795Y-100559355D01*
X161430760Y-100564336D01*
X161614611Y-100632909D01*
X161630694Y-100640253D01*
X161737935Y-100698812D01*
X161802908Y-100734290D01*
X161817791Y-100743855D01*
X161974864Y-100861438D01*
X161988235Y-100873024D01*
X162126975Y-101011764D01*
X162138561Y-101025135D01*
X162256144Y-101182208D01*
X162265709Y-101197091D01*
X162359743Y-101369300D01*
X162367093Y-101385394D01*
X162435661Y-101569234D01*
X162440645Y-101586209D01*
X162482351Y-101777931D01*
X162484869Y-101795442D01*
X162499184Y-101995580D01*
X162499500Y-102004427D01*
X162499500Y-150495572D01*
X162499184Y-150504419D01*
X162484869Y-150704557D01*
X162482351Y-150722068D01*
X162440645Y-150913790D01*
X162435661Y-150930765D01*
X162367093Y-151114605D01*
X162359743Y-151130699D01*
X162265709Y-151302908D01*
X162256144Y-151317791D01*
X162138561Y-151474864D01*
X162126975Y-151488235D01*
X161988235Y-151626975D01*
X161974864Y-151638561D01*
X161817791Y-151756144D01*
X161802908Y-151765709D01*
X161630699Y-151859743D01*
X161614605Y-151867093D01*
X161430765Y-151935661D01*
X161413790Y-151940645D01*
X161222068Y-151982351D01*
X161204557Y-151984869D01*
X161023779Y-151997799D01*
X161004417Y-151999184D01*
X160995572Y-151999500D01*
X102004428Y-151999500D01*
X101995582Y-151999184D01*
X101973622Y-151997613D01*
X101795442Y-151984869D01*
X101777931Y-151982351D01*
X101586209Y-151940645D01*
X101569234Y-151935661D01*
X101385394Y-151867093D01*
X101369300Y-151859743D01*
X101197091Y-151765709D01*
X101182208Y-151756144D01*
X101025135Y-151638561D01*
X101011764Y-151626975D01*
X100873024Y-151488235D01*
X100861438Y-151474864D01*
X100743855Y-151317791D01*
X100734290Y-151302908D01*
X100640256Y-151130699D01*
X100632909Y-151114611D01*
X100564336Y-150930760D01*
X100559354Y-150913790D01*
X100551975Y-150879871D01*
X100517647Y-150722063D01*
X100515130Y-150704556D01*
X100514762Y-150699414D01*
X100500816Y-150504418D01*
X100500500Y-150495572D01*
X100500500Y-149773389D01*
X141139500Y-149773389D01*
X141139500Y-149946611D01*
X141166598Y-150117701D01*
X141220127Y-150282445D01*
X141298768Y-150436788D01*
X141400586Y-150576928D01*
X141523072Y-150699414D01*
X141663212Y-150801232D01*
X141817555Y-150879873D01*
X141982299Y-150933402D01*
X142153389Y-150960500D01*
X142153390Y-150960500D01*
X142326610Y-150960500D01*
X142326611Y-150960500D01*
X142497701Y-150933402D01*
X142662445Y-150879873D01*
X142816788Y-150801232D01*
X142956928Y-150699414D01*
X143079414Y-150576928D01*
X143181232Y-150436788D01*
X143259873Y-150282445D01*
X143313402Y-150117701D01*
X143340500Y-149946611D01*
X143340500Y-149773389D01*
X143313402Y-149602299D01*
X143259873Y-149437555D01*
X143181232Y-149283212D01*
X143079414Y-149143072D01*
X142956928Y-149020586D01*
X142816788Y-148918768D01*
X142662445Y-148840127D01*
X142497701Y-148786598D01*
X142497699Y-148786597D01*
X142497698Y-148786597D01*
X142366271Y-148765781D01*
X142326611Y-148759500D01*
X142153389Y-148759500D01*
X142113728Y-148765781D01*
X141982302Y-148786597D01*
X141817552Y-148840128D01*
X141663211Y-148918768D01*
X141583256Y-148976859D01*
X141523072Y-149020586D01*
X141523070Y-149020588D01*
X141523069Y-149020588D01*
X141400588Y-149143069D01*
X141400588Y-149143070D01*
X141400586Y-149143072D01*
X141356859Y-149203256D01*
X141298768Y-149283211D01*
X141220128Y-149437552D01*
X141166597Y-149602302D01*
X141155783Y-149670581D01*
X141139500Y-149773389D01*
X100500500Y-149773389D01*
X100500500Y-147393713D01*
X102649500Y-147393713D01*
X102649500Y-147606286D01*
X102682753Y-147816239D01*
X102748444Y-148018414D01*
X102844951Y-148207820D01*
X102969890Y-148379786D01*
X103120213Y-148530109D01*
X103292179Y-148655048D01*
X103292181Y-148655049D01*
X103292184Y-148655051D01*
X103481588Y-148751557D01*
X103683757Y-148817246D01*
X103893713Y-148850500D01*
X103893714Y-148850500D01*
X104106286Y-148850500D01*
X104106287Y-148850500D01*
X104316243Y-148817246D01*
X104518412Y-148751557D01*
X104707816Y-148655051D01*
X104729789Y-148639086D01*
X104879786Y-148530109D01*
X104879788Y-148530106D01*
X104879792Y-148530104D01*
X105030104Y-148379792D01*
X105030106Y-148379788D01*
X105030109Y-148379786D01*
X105155048Y-148207820D01*
X105155047Y-148207820D01*
X105155051Y-148207816D01*
X105251557Y-148018412D01*
X105317246Y-147816243D01*
X105350500Y-147606287D01*
X105350500Y-147393713D01*
X125649500Y-147393713D01*
X125649500Y-147606286D01*
X125682753Y-147816239D01*
X125748444Y-148018414D01*
X125844951Y-148207820D01*
X125969890Y-148379786D01*
X126120213Y-148530109D01*
X126292179Y-148655048D01*
X126292181Y-148655049D01*
X126292184Y-148655051D01*
X126481588Y-148751557D01*
X126683757Y-148817246D01*
X126893713Y-148850500D01*
X126893714Y-148850500D01*
X127106286Y-148850500D01*
X127106287Y-148850500D01*
X127316243Y-148817246D01*
X127518412Y-148751557D01*
X127707816Y-148655051D01*
X127729789Y-148639086D01*
X127879786Y-148530109D01*
X127879788Y-148530106D01*
X127879792Y-148530104D01*
X128030104Y-148379792D01*
X128030106Y-148379788D01*
X128030109Y-148379786D01*
X128155048Y-148207820D01*
X128155047Y-148207820D01*
X128155051Y-148207816D01*
X128251557Y-148018412D01*
X128317246Y-147816243D01*
X128350500Y-147606287D01*
X128350500Y-147393713D01*
X128317246Y-147183757D01*
X128251557Y-146981588D01*
X128155051Y-146792184D01*
X128155049Y-146792181D01*
X128155048Y-146792179D01*
X128030109Y-146620213D01*
X127879786Y-146469890D01*
X127707820Y-146344951D01*
X127518414Y-146248444D01*
X127518413Y-146248443D01*
X127518412Y-146248443D01*
X127316243Y-146182754D01*
X127316241Y-146182753D01*
X127316240Y-146182753D01*
X127154957Y-146157208D01*
X127106287Y-146149500D01*
X126893713Y-146149500D01*
X126845042Y-146157208D01*
X126683760Y-146182753D01*
X126481585Y-146248444D01*
X126292179Y-146344951D01*
X126120213Y-146469890D01*
X125969890Y-146620213D01*
X125844951Y-146792179D01*
X125748444Y-146981585D01*
X125682753Y-147183760D01*
X125649500Y-147393713D01*
X105350500Y-147393713D01*
X105317246Y-147183757D01*
X105251557Y-146981588D01*
X105155051Y-146792184D01*
X105155049Y-146792181D01*
X105155048Y-146792179D01*
X105030109Y-146620213D01*
X104879786Y-146469890D01*
X104707820Y-146344951D01*
X104518414Y-146248444D01*
X104518413Y-146248443D01*
X104518412Y-146248443D01*
X104316243Y-146182754D01*
X104316241Y-146182753D01*
X104316240Y-146182753D01*
X104154957Y-146157208D01*
X104106287Y-146149500D01*
X103893713Y-146149500D01*
X103845042Y-146157208D01*
X103683760Y-146182753D01*
X103481585Y-146248444D01*
X103292179Y-146344951D01*
X103120213Y-146469890D01*
X102969890Y-146620213D01*
X102844951Y-146792179D01*
X102748444Y-146981585D01*
X102682753Y-147183760D01*
X102649500Y-147393713D01*
X100500500Y-147393713D01*
X100500500Y-144701210D01*
X140935000Y-144701210D01*
X140935000Y-144858789D01*
X140944701Y-144957299D01*
X140944701Y-144957302D01*
X140975444Y-145111864D01*
X141004185Y-145206612D01*
X141064490Y-145352198D01*
X141111158Y-145439506D01*
X141157533Y-145508912D01*
X141157534Y-145508913D01*
X141757037Y-144909409D01*
X141774075Y-144972993D01*
X141839901Y-145087007D01*
X141932993Y-145180099D01*
X142047007Y-145245925D01*
X142110590Y-145262962D01*
X141511085Y-145862465D01*
X141580493Y-145908841D01*
X141667801Y-145955509D01*
X141813387Y-146015814D01*
X141890298Y-146039144D01*
X141948736Y-146077441D01*
X141977193Y-146141253D01*
X141966633Y-146210320D01*
X141920409Y-146262714D01*
X141892622Y-146275736D01*
X141817550Y-146300128D01*
X141663211Y-146378768D01*
X141583256Y-146436859D01*
X141523072Y-146480586D01*
X141523070Y-146480588D01*
X141523069Y-146480588D01*
X141400588Y-146603069D01*
X141400588Y-146603070D01*
X141400586Y-146603072D01*
X141356859Y-146663256D01*
X141298768Y-146743211D01*
X141220128Y-146897552D01*
X141166597Y-147062302D01*
X141155783Y-147130581D01*
X141139500Y-147233389D01*
X141139500Y-147406611D01*
X141166598Y-147577701D01*
X141220127Y-147742445D01*
X141298768Y-147896788D01*
X141400586Y-148036928D01*
X141523072Y-148159414D01*
X141663212Y-148261232D01*
X141817555Y-148339873D01*
X141982299Y-148393402D01*
X142153389Y-148420500D01*
X142153390Y-148420500D01*
X142326610Y-148420500D01*
X142326611Y-148420500D01*
X142497701Y-148393402D01*
X142662445Y-148339873D01*
X142816788Y-148261232D01*
X142956928Y-148159414D01*
X143079414Y-148036928D01*
X143181232Y-147896788D01*
X143259873Y-147742445D01*
X143313402Y-147577701D01*
X143340500Y-147406611D01*
X143340500Y-147233389D01*
X143314605Y-147069895D01*
X144030000Y-147069895D01*
X148682057Y-150682663D01*
X148722931Y-150739327D01*
X148730000Y-150780597D01*
X148730000Y-151730000D01*
X153530000Y-151730000D01*
X153530000Y-150780597D01*
X153549685Y-150713558D01*
X153577941Y-150682664D01*
X154748788Y-149773389D01*
X158919500Y-149773389D01*
X158919500Y-149946611D01*
X158946598Y-150117701D01*
X159000127Y-150282445D01*
X159078768Y-150436788D01*
X159180586Y-150576928D01*
X159303072Y-150699414D01*
X159443212Y-150801232D01*
X159597555Y-150879873D01*
X159762299Y-150933402D01*
X159933389Y-150960500D01*
X159933390Y-150960500D01*
X160106610Y-150960500D01*
X160106611Y-150960500D01*
X160277701Y-150933402D01*
X160442445Y-150879873D01*
X160596788Y-150801232D01*
X160736928Y-150699414D01*
X160859414Y-150576928D01*
X160961232Y-150436788D01*
X161039873Y-150282445D01*
X161093402Y-150117701D01*
X161120500Y-149946611D01*
X161120500Y-149773389D01*
X161093402Y-149602299D01*
X161039873Y-149437555D01*
X160961232Y-149283212D01*
X160859414Y-149143072D01*
X160736928Y-149020586D01*
X160596788Y-148918768D01*
X160442445Y-148840127D01*
X160277701Y-148786598D01*
X160277699Y-148786597D01*
X160277698Y-148786597D01*
X160146271Y-148765781D01*
X160106611Y-148759500D01*
X159933389Y-148759500D01*
X159893728Y-148765781D01*
X159762302Y-148786597D01*
X159597552Y-148840128D01*
X159443211Y-148918768D01*
X159363256Y-148976859D01*
X159303072Y-149020586D01*
X159303070Y-149020588D01*
X159303069Y-149020588D01*
X159180588Y-149143069D01*
X159180588Y-149143070D01*
X159180586Y-149143072D01*
X159136859Y-149203256D01*
X159078768Y-149283211D01*
X159000128Y-149437552D01*
X158946597Y-149602302D01*
X158935783Y-149670581D01*
X158919500Y-149773389D01*
X154748788Y-149773389D01*
X158230000Y-147069895D01*
X158230000Y-144140219D01*
X158715000Y-144140219D01*
X158715000Y-145419785D01*
X158717893Y-145473762D01*
X158717893Y-145473764D01*
X158753438Y-145613030D01*
X158753440Y-145613037D01*
X158776863Y-145669583D01*
X159537037Y-144909409D01*
X159554075Y-144972993D01*
X159619901Y-145087007D01*
X159712993Y-145180099D01*
X159827007Y-145245925D01*
X159890590Y-145262962D01*
X159130415Y-146023135D01*
X159130415Y-146023136D01*
X159186946Y-146046552D01*
X159237946Y-146064544D01*
X159380219Y-146084999D01*
X159380221Y-146085000D01*
X159503267Y-146085000D01*
X159570306Y-146104685D01*
X159616061Y-146157489D01*
X159626005Y-146226647D01*
X159596980Y-146290203D01*
X159559562Y-146319485D01*
X159443211Y-146378768D01*
X159363256Y-146436859D01*
X159303072Y-146480586D01*
X159303070Y-146480588D01*
X159303069Y-146480588D01*
X159180588Y-146603069D01*
X159180588Y-146603070D01*
X159180586Y-146603072D01*
X159136859Y-146663256D01*
X159078768Y-146743211D01*
X159000128Y-146897552D01*
X158946597Y-147062302D01*
X158935783Y-147130581D01*
X158919500Y-147233389D01*
X158919500Y-147406611D01*
X158946598Y-147577701D01*
X159000127Y-147742445D01*
X159078768Y-147896788D01*
X159180586Y-148036928D01*
X159303072Y-148159414D01*
X159443212Y-148261232D01*
X159597555Y-148339873D01*
X159762299Y-148393402D01*
X159933389Y-148420500D01*
X159933390Y-148420500D01*
X160106610Y-148420500D01*
X160106611Y-148420500D01*
X160277701Y-148393402D01*
X160442445Y-148339873D01*
X160596788Y-148261232D01*
X160736928Y-148159414D01*
X160859414Y-148036928D01*
X160961232Y-147896788D01*
X161039873Y-147742445D01*
X161093402Y-147577701D01*
X161120500Y-147406611D01*
X161120500Y-147233389D01*
X161093402Y-147062299D01*
X161039873Y-146897555D01*
X160961232Y-146743212D01*
X160859414Y-146603072D01*
X160736928Y-146480586D01*
X160596788Y-146378768D01*
X160442449Y-146300128D01*
X160402782Y-146287239D01*
X160367376Y-146275735D01*
X160309702Y-146236298D01*
X160282504Y-146171939D01*
X160294419Y-146103093D01*
X160341663Y-146051617D01*
X160369702Y-146039144D01*
X160446609Y-146015815D01*
X160592198Y-145955509D01*
X160679501Y-145908844D01*
X160679511Y-145908838D01*
X160748912Y-145862465D01*
X160149409Y-145262962D01*
X160212993Y-145245925D01*
X160327007Y-145180099D01*
X160420099Y-145087007D01*
X160485925Y-144972993D01*
X160502962Y-144909409D01*
X161102465Y-145508912D01*
X161148838Y-145439511D01*
X161148844Y-145439501D01*
X161195509Y-145352198D01*
X161255814Y-145206612D01*
X161284555Y-145111864D01*
X161315298Y-144957302D01*
X161315298Y-144957299D01*
X161325000Y-144858789D01*
X161325000Y-144701210D01*
X161315298Y-144602700D01*
X161315298Y-144602697D01*
X161284555Y-144448135D01*
X161255814Y-144353387D01*
X161195509Y-144207801D01*
X161148841Y-144120493D01*
X161102465Y-144051086D01*
X161102465Y-144051085D01*
X160502962Y-144650589D01*
X160485925Y-144587007D01*
X160420099Y-144472993D01*
X160327007Y-144379901D01*
X160212993Y-144314075D01*
X160149410Y-144297037D01*
X160748913Y-143697534D01*
X160748912Y-143697533D01*
X160679506Y-143651158D01*
X160592198Y-143604490D01*
X160446614Y-143544187D01*
X160369700Y-143520855D01*
X160311262Y-143482557D01*
X160282805Y-143418745D01*
X160293366Y-143349678D01*
X160339590Y-143297284D01*
X160367371Y-143284266D01*
X160442445Y-143259873D01*
X160596788Y-143181232D01*
X160736928Y-143079414D01*
X160859414Y-142956928D01*
X160961232Y-142816788D01*
X161039873Y-142662445D01*
X161093402Y-142497701D01*
X161120500Y-142326611D01*
X161120500Y-142153389D01*
X161093402Y-141982299D01*
X161039873Y-141817555D01*
X160961232Y-141663212D01*
X160859414Y-141523072D01*
X160736928Y-141400586D01*
X160596788Y-141298768D01*
X160442445Y-141220127D01*
X160277701Y-141166598D01*
X160277699Y-141166597D01*
X160277698Y-141166597D01*
X160146271Y-141145781D01*
X160106611Y-141139500D01*
X159933389Y-141139500D01*
X159893728Y-141145781D01*
X159762302Y-141166597D01*
X159597552Y-141220128D01*
X159443211Y-141298768D01*
X159363256Y-141356859D01*
X159303072Y-141400586D01*
X159303070Y-141400588D01*
X159303069Y-141400588D01*
X159180588Y-141523069D01*
X159180588Y-141523070D01*
X159180586Y-141523072D01*
X159136859Y-141583256D01*
X159078768Y-141663211D01*
X159000128Y-141817552D01*
X158946597Y-141982302D01*
X158919500Y-142153389D01*
X158919500Y-142326610D01*
X158946597Y-142497697D01*
X158946597Y-142497699D01*
X158946598Y-142497701D01*
X159000127Y-142662445D01*
X159078768Y-142816788D01*
X159180586Y-142956928D01*
X159303072Y-143079414D01*
X159443212Y-143181232D01*
X159522262Y-143221509D01*
X159559562Y-143240515D01*
X159610358Y-143288489D01*
X159627153Y-143356310D01*
X159604616Y-143422445D01*
X159549901Y-143465897D01*
X159503267Y-143475000D01*
X159380214Y-143475000D01*
X159326237Y-143477893D01*
X159326235Y-143477893D01*
X159186969Y-143513438D01*
X159186956Y-143513442D01*
X159130415Y-143536862D01*
X159890590Y-144297037D01*
X159827007Y-144314075D01*
X159712993Y-144379901D01*
X159619901Y-144472993D01*
X159554075Y-144587007D01*
X159537037Y-144650590D01*
X158776862Y-143890415D01*
X158753449Y-143946940D01*
X158735455Y-143997946D01*
X158715000Y-144140219D01*
X158230000Y-144140219D01*
X158230000Y-142730000D01*
X144030000Y-142730000D01*
X144030000Y-147069895D01*
X143314605Y-147069895D01*
X143313402Y-147062299D01*
X143259873Y-146897555D01*
X143181232Y-146743212D01*
X143079414Y-146603072D01*
X142956928Y-146480586D01*
X142816788Y-146378768D01*
X142700438Y-146319485D01*
X142649642Y-146271511D01*
X142632847Y-146203690D01*
X142655384Y-146137555D01*
X142710099Y-146094103D01*
X142756733Y-146085000D01*
X142879786Y-146085000D01*
X142933762Y-146082106D01*
X142933764Y-146082106D01*
X143073023Y-146046563D01*
X143073035Y-146046559D01*
X143129582Y-146023135D01*
X142369409Y-145262962D01*
X142432993Y-145245925D01*
X142547007Y-145180099D01*
X142640099Y-145087007D01*
X142705925Y-144972993D01*
X142722962Y-144909409D01*
X143483135Y-145669582D01*
X143483137Y-145669582D01*
X143506552Y-145613053D01*
X143524544Y-145562053D01*
X143544999Y-145419780D01*
X143545000Y-145419779D01*
X143545000Y-144140214D01*
X143542106Y-144086237D01*
X143542106Y-144086235D01*
X143506558Y-143946960D01*
X143483136Y-143890415D01*
X143483135Y-143890415D01*
X142722962Y-144650589D01*
X142705925Y-144587007D01*
X142640099Y-144472993D01*
X142547007Y-144379901D01*
X142432993Y-144314075D01*
X142369410Y-144297037D01*
X143129583Y-143536863D01*
X143129583Y-143536862D01*
X143073052Y-143513447D01*
X143073035Y-143513440D01*
X143022053Y-143495455D01*
X142879780Y-143475000D01*
X142756733Y-143475000D01*
X142689694Y-143455315D01*
X142643939Y-143402511D01*
X142633995Y-143333353D01*
X142663020Y-143269797D01*
X142700438Y-143240515D01*
X142722304Y-143229373D01*
X142816788Y-143181232D01*
X142956928Y-143079414D01*
X143079414Y-142956928D01*
X143181232Y-142816788D01*
X143259873Y-142662445D01*
X143313402Y-142497701D01*
X143340500Y-142326611D01*
X143340500Y-142153389D01*
X143313402Y-141982299D01*
X143259873Y-141817555D01*
X143181232Y-141663212D01*
X143079414Y-141523072D01*
X142956928Y-141400586D01*
X142816788Y-141298768D01*
X142662445Y-141220127D01*
X142497701Y-141166598D01*
X142497699Y-141166597D01*
X142497698Y-141166597D01*
X142366271Y-141145781D01*
X142326611Y-141139500D01*
X142153389Y-141139500D01*
X142113728Y-141145781D01*
X141982302Y-141166597D01*
X141817552Y-141220128D01*
X141663211Y-141298768D01*
X141583256Y-141356859D01*
X141523072Y-141400586D01*
X141523070Y-141400588D01*
X141523069Y-141400588D01*
X141400588Y-141523069D01*
X141400588Y-141523070D01*
X141400586Y-141523072D01*
X141356859Y-141583256D01*
X141298768Y-141663211D01*
X141220128Y-141817552D01*
X141166597Y-141982302D01*
X141139500Y-142153389D01*
X141139500Y-142326610D01*
X141166597Y-142497697D01*
X141166597Y-142497699D01*
X141166598Y-142497701D01*
X141220127Y-142662445D01*
X141298768Y-142816788D01*
X141400586Y-142956928D01*
X141523072Y-143079414D01*
X141663212Y-143181232D01*
X141817555Y-143259873D01*
X141892622Y-143284264D01*
X141950296Y-143323700D01*
X141977495Y-143388059D01*
X141965580Y-143456905D01*
X141918336Y-143508381D01*
X141890299Y-143520854D01*
X141813394Y-143544183D01*
X141667801Y-143604490D01*
X141580488Y-143651161D01*
X141511086Y-143697532D01*
X141511085Y-143697533D01*
X142110590Y-144297037D01*
X142047007Y-144314075D01*
X141932993Y-144379901D01*
X141839901Y-144472993D01*
X141774075Y-144587007D01*
X141757037Y-144650589D01*
X141157533Y-144051085D01*
X141157532Y-144051086D01*
X141111161Y-144120488D01*
X141064490Y-144207801D01*
X141004185Y-144353387D01*
X140975444Y-144448135D01*
X140944701Y-144602697D01*
X140944701Y-144602700D01*
X140935000Y-144701210D01*
X100500500Y-144701210D01*
X100500500Y-134207155D01*
X108355000Y-134207155D01*
X108355000Y-134905000D01*
X109379722Y-134905000D01*
X109335667Y-134981306D01*
X109305000Y-135095756D01*
X109305000Y-135214244D01*
X109335667Y-135328694D01*
X109379722Y-135405000D01*
X108355000Y-135405000D01*
X108355000Y-136102844D01*
X108361401Y-136162372D01*
X108361403Y-136162379D01*
X108411645Y-136297086D01*
X108411649Y-136297093D01*
X108497809Y-136412187D01*
X108497812Y-136412190D01*
X108612906Y-136498350D01*
X108612913Y-136498354D01*
X108747620Y-136548596D01*
X108747627Y-136548598D01*
X108807155Y-136554999D01*
X108807172Y-136555000D01*
X109505000Y-136555000D01*
X109505000Y-135530277D01*
X109581306Y-135574333D01*
X109695756Y-135605000D01*
X109814244Y-135605000D01*
X109928694Y-135574333D01*
X110005000Y-135530277D01*
X110005000Y-136555000D01*
X110702828Y-136555000D01*
X110702844Y-136554999D01*
X110762372Y-136548598D01*
X110762379Y-136548596D01*
X110897086Y-136498354D01*
X110897093Y-136498350D01*
X111012187Y-136412190D01*
X111012190Y-136412187D01*
X111098350Y-136297093D01*
X111098354Y-136297086D01*
X111148596Y-136162379D01*
X111148598Y-136162372D01*
X111154999Y-136102844D01*
X111155000Y-136102827D01*
X111155000Y-136009969D01*
X111174685Y-135942930D01*
X111227489Y-135897175D01*
X111296647Y-135887231D01*
X111360203Y-135916256D01*
X111376012Y-135933481D01*
X111376146Y-135933368D01*
X111379308Y-135937070D01*
X111379310Y-135937073D01*
X111512927Y-136070690D01*
X111665801Y-136181760D01*
X111738434Y-136218768D01*
X111801795Y-136251052D01*
X111852591Y-136299026D01*
X111869500Y-136361537D01*
X111869500Y-138405695D01*
X111849815Y-138472734D01*
X111801795Y-138516180D01*
X111718211Y-138558768D01*
X111662149Y-138599500D01*
X111578072Y-138660586D01*
X111578070Y-138660588D01*
X111578069Y-138660588D01*
X111455588Y-138783069D01*
X111455588Y-138783070D01*
X111455586Y-138783072D01*
X111411859Y-138843256D01*
X111353768Y-138923211D01*
X111275128Y-139077552D01*
X111221597Y-139242302D01*
X111216014Y-139277552D01*
X111194500Y-139413389D01*
X111194500Y-139586611D01*
X111221598Y-139757701D01*
X111275127Y-139922445D01*
X111353768Y-140076788D01*
X111455586Y-140216928D01*
X111578072Y-140339414D01*
X111718212Y-140441232D01*
X111872555Y-140519873D01*
X112037299Y-140573402D01*
X112208389Y-140600500D01*
X112208390Y-140600500D01*
X112381610Y-140600500D01*
X112381611Y-140600500D01*
X112552701Y-140573402D01*
X112717445Y-140519873D01*
X112871788Y-140441232D01*
X113011928Y-140339414D01*
X113134414Y-140216928D01*
X113236232Y-140076788D01*
X113314873Y-139922445D01*
X113368402Y-139757701D01*
X113395500Y-139586611D01*
X113395500Y-139413389D01*
X118814500Y-139413389D01*
X118814500Y-139586611D01*
X118841598Y-139757701D01*
X118895127Y-139922445D01*
X118973768Y-140076788D01*
X119075586Y-140216928D01*
X119198072Y-140339414D01*
X119338212Y-140441232D01*
X119492555Y-140519873D01*
X119657299Y-140573402D01*
X119828389Y-140600500D01*
X119828390Y-140600500D01*
X120001610Y-140600500D01*
X120001611Y-140600500D01*
X120172701Y-140573402D01*
X120337445Y-140519873D01*
X120491788Y-140441232D01*
X120631928Y-140339414D01*
X120754414Y-140216928D01*
X120856232Y-140076788D01*
X120934873Y-139922445D01*
X120988402Y-139757701D01*
X121015500Y-139586611D01*
X121015500Y-139413389D01*
X120988402Y-139242299D01*
X120934873Y-139077555D01*
X120856232Y-138923212D01*
X120754414Y-138783072D01*
X120631928Y-138660586D01*
X120491788Y-138558768D01*
X120337445Y-138480127D01*
X120172701Y-138426598D01*
X120172699Y-138426597D01*
X120172698Y-138426597D01*
X120040725Y-138405695D01*
X120001611Y-138399500D01*
X119828389Y-138399500D01*
X119789275Y-138405695D01*
X119657302Y-138426597D01*
X119492552Y-138480128D01*
X119338211Y-138558768D01*
X119282149Y-138599500D01*
X119198072Y-138660586D01*
X119198070Y-138660588D01*
X119198069Y-138660588D01*
X119075588Y-138783069D01*
X119075588Y-138783070D01*
X119075586Y-138783072D01*
X119031859Y-138843256D01*
X118973768Y-138923211D01*
X118895128Y-139077552D01*
X118841597Y-139242302D01*
X118836014Y-139277552D01*
X118814500Y-139413389D01*
X113395500Y-139413389D01*
X113368402Y-139242299D01*
X113314873Y-139077555D01*
X113236232Y-138923212D01*
X113134414Y-138783072D01*
X113011928Y-138660586D01*
X112871788Y-138558768D01*
X112788205Y-138516180D01*
X112737409Y-138468205D01*
X112720500Y-138405695D01*
X112720500Y-136361537D01*
X112740185Y-136294498D01*
X112788205Y-136251052D01*
X112924199Y-136181760D01*
X113077073Y-136070690D01*
X113210690Y-135937073D01*
X113321760Y-135784199D01*
X113407547Y-135615832D01*
X113465940Y-135436118D01*
X113482954Y-135328694D01*
X113495500Y-135249486D01*
X113495500Y-135060513D01*
X113465940Y-134873881D01*
X113411590Y-134706611D01*
X113407547Y-134694168D01*
X113407545Y-134694165D01*
X113407545Y-134694163D01*
X113321759Y-134525800D01*
X113210690Y-134372927D01*
X113077073Y-134239310D01*
X113032816Y-134207155D01*
X127405000Y-134207155D01*
X127405000Y-134905000D01*
X128429722Y-134905000D01*
X128385667Y-134981306D01*
X128355000Y-135095756D01*
X128355000Y-135214244D01*
X128385667Y-135328694D01*
X128429722Y-135405000D01*
X127405000Y-135405000D01*
X127405000Y-136102844D01*
X127411401Y-136162372D01*
X127411403Y-136162379D01*
X127461645Y-136297086D01*
X127461649Y-136297093D01*
X127547809Y-136412187D01*
X127547812Y-136412190D01*
X127662906Y-136498350D01*
X127662913Y-136498354D01*
X127797620Y-136548596D01*
X127797627Y-136548598D01*
X127857155Y-136554999D01*
X127857172Y-136555000D01*
X128555000Y-136555000D01*
X128555000Y-135530277D01*
X128631306Y-135574333D01*
X128745756Y-135605000D01*
X128864244Y-135605000D01*
X128978694Y-135574333D01*
X129055000Y-135530277D01*
X129055000Y-136555000D01*
X129752828Y-136555000D01*
X129752844Y-136554999D01*
X129812372Y-136548598D01*
X129812379Y-136548596D01*
X129947086Y-136498354D01*
X129947093Y-136498350D01*
X130062187Y-136412190D01*
X130062190Y-136412187D01*
X130148350Y-136297093D01*
X130148354Y-136297086D01*
X130198596Y-136162379D01*
X130198598Y-136162372D01*
X130204999Y-136102844D01*
X130205000Y-136102827D01*
X130205000Y-136009969D01*
X130224685Y-135942930D01*
X130277489Y-135897175D01*
X130346647Y-135887231D01*
X130410203Y-135916256D01*
X130426012Y-135933481D01*
X130426146Y-135933368D01*
X130429308Y-135937070D01*
X130429310Y-135937073D01*
X130562927Y-136070690D01*
X130715801Y-136181760D01*
X130788434Y-136218768D01*
X130851795Y-136251052D01*
X130902591Y-136299026D01*
X130919500Y-136361537D01*
X130919500Y-138405695D01*
X130899815Y-138472734D01*
X130851795Y-138516180D01*
X130768211Y-138558768D01*
X130712149Y-138599500D01*
X130628072Y-138660586D01*
X130628070Y-138660588D01*
X130628069Y-138660588D01*
X130505588Y-138783069D01*
X130505588Y-138783070D01*
X130505586Y-138783072D01*
X130461859Y-138843256D01*
X130403768Y-138923211D01*
X130325128Y-139077552D01*
X130271597Y-139242302D01*
X130266014Y-139277552D01*
X130244500Y-139413389D01*
X130244500Y-139586611D01*
X130271598Y-139757701D01*
X130325127Y-139922445D01*
X130403768Y-140076788D01*
X130505586Y-140216928D01*
X130628072Y-140339414D01*
X130768212Y-140441232D01*
X130922555Y-140519873D01*
X131087299Y-140573402D01*
X131258389Y-140600500D01*
X131258390Y-140600500D01*
X131431610Y-140600500D01*
X131431611Y-140600500D01*
X131602701Y-140573402D01*
X131767445Y-140519873D01*
X131921788Y-140441232D01*
X132061928Y-140339414D01*
X132184414Y-140216928D01*
X132286232Y-140076788D01*
X132364873Y-139922445D01*
X132418402Y-139757701D01*
X132445500Y-139586611D01*
X132445500Y-139413389D01*
X137864500Y-139413389D01*
X137864500Y-139586611D01*
X137891598Y-139757701D01*
X137945127Y-139922445D01*
X138023768Y-140076788D01*
X138125586Y-140216928D01*
X138248072Y-140339414D01*
X138388212Y-140441232D01*
X138542555Y-140519873D01*
X138707299Y-140573402D01*
X138878389Y-140600500D01*
X138878390Y-140600500D01*
X139051610Y-140600500D01*
X139051611Y-140600500D01*
X139222701Y-140573402D01*
X139387445Y-140519873D01*
X139541788Y-140441232D01*
X139681928Y-140339414D01*
X139804414Y-140216928D01*
X139906232Y-140076788D01*
X139984873Y-139922445D01*
X140038402Y-139757701D01*
X140061259Y-139613389D01*
X141139500Y-139613389D01*
X141139500Y-139786611D01*
X141166598Y-139957701D01*
X141220127Y-140122445D01*
X141298768Y-140276788D01*
X141400586Y-140416928D01*
X141523072Y-140539414D01*
X141663212Y-140641232D01*
X141817555Y-140719873D01*
X141982299Y-140773402D01*
X142153389Y-140800500D01*
X142153390Y-140800500D01*
X142326610Y-140800500D01*
X142326611Y-140800500D01*
X142497701Y-140773402D01*
X142662445Y-140719873D01*
X142816788Y-140641232D01*
X142956928Y-140539414D01*
X143079414Y-140416928D01*
X143181232Y-140276788D01*
X143259873Y-140122445D01*
X143313402Y-139957701D01*
X143340500Y-139786611D01*
X143340500Y-139613389D01*
X158919500Y-139613389D01*
X158919500Y-139786611D01*
X158946598Y-139957701D01*
X159000127Y-140122445D01*
X159078768Y-140276788D01*
X159180586Y-140416928D01*
X159303072Y-140539414D01*
X159443212Y-140641232D01*
X159597555Y-140719873D01*
X159762299Y-140773402D01*
X159933389Y-140800500D01*
X159933390Y-140800500D01*
X160106610Y-140800500D01*
X160106611Y-140800500D01*
X160277701Y-140773402D01*
X160442445Y-140719873D01*
X160596788Y-140641232D01*
X160736928Y-140539414D01*
X160859414Y-140416928D01*
X160961232Y-140276788D01*
X161039873Y-140122445D01*
X161093402Y-139957701D01*
X161120500Y-139786611D01*
X161120500Y-139613389D01*
X161093402Y-139442299D01*
X161039873Y-139277555D01*
X160961232Y-139123212D01*
X160859414Y-138983072D01*
X160736928Y-138860586D01*
X160596788Y-138758768D01*
X160442445Y-138680127D01*
X160277701Y-138626598D01*
X160277699Y-138626597D01*
X160277698Y-138626597D01*
X160146271Y-138605781D01*
X160106611Y-138599500D01*
X159933389Y-138599500D01*
X159893728Y-138605781D01*
X159762302Y-138626597D01*
X159597552Y-138680128D01*
X159443211Y-138758768D01*
X159363256Y-138816859D01*
X159303072Y-138860586D01*
X159303070Y-138860588D01*
X159303069Y-138860588D01*
X159180588Y-138983069D01*
X159180588Y-138983070D01*
X159180586Y-138983072D01*
X159136859Y-139043256D01*
X159078768Y-139123211D01*
X159000128Y-139277552D01*
X158946597Y-139442302D01*
X158923741Y-139586610D01*
X158919500Y-139613389D01*
X143340500Y-139613389D01*
X143313402Y-139442299D01*
X143259873Y-139277555D01*
X143181232Y-139123212D01*
X143079414Y-138983072D01*
X142956928Y-138860586D01*
X142816788Y-138758768D01*
X142662445Y-138680127D01*
X142497701Y-138626598D01*
X142497699Y-138626597D01*
X142497698Y-138626597D01*
X142366271Y-138605781D01*
X142326611Y-138599500D01*
X142153389Y-138599500D01*
X142113728Y-138605781D01*
X141982302Y-138626597D01*
X141817552Y-138680128D01*
X141663211Y-138758768D01*
X141583256Y-138816859D01*
X141523072Y-138860586D01*
X141523070Y-138860588D01*
X141523069Y-138860588D01*
X141400588Y-138983069D01*
X141400588Y-138983070D01*
X141400586Y-138983072D01*
X141356859Y-139043256D01*
X141298768Y-139123211D01*
X141220128Y-139277552D01*
X141166597Y-139442302D01*
X141143741Y-139586610D01*
X141139500Y-139613389D01*
X140061259Y-139613389D01*
X140065500Y-139586611D01*
X140065500Y-139413389D01*
X140038402Y-139242299D01*
X139984873Y-139077555D01*
X139906232Y-138923212D01*
X139804414Y-138783072D01*
X139681928Y-138660586D01*
X139541788Y-138558768D01*
X139458205Y-138516180D01*
X139407409Y-138468205D01*
X139390500Y-138405695D01*
X139390500Y-137073389D01*
X141139500Y-137073389D01*
X141139500Y-137246611D01*
X141166598Y-137417701D01*
X141220127Y-137582445D01*
X141298768Y-137736788D01*
X141400586Y-137876928D01*
X141523072Y-137999414D01*
X141663212Y-138101232D01*
X141817555Y-138179873D01*
X141982299Y-138233402D01*
X142153389Y-138260500D01*
X142153390Y-138260500D01*
X142326610Y-138260500D01*
X142326611Y-138260500D01*
X142497701Y-138233402D01*
X142662445Y-138179873D01*
X142816788Y-138101232D01*
X142956928Y-137999414D01*
X143079414Y-137876928D01*
X143181232Y-137736788D01*
X143259873Y-137582445D01*
X143313402Y-137417701D01*
X143340500Y-137246611D01*
X143340500Y-137073389D01*
X158919500Y-137073389D01*
X158919500Y-137246611D01*
X158946598Y-137417701D01*
X159000127Y-137582445D01*
X159078768Y-137736788D01*
X159180586Y-137876928D01*
X159303072Y-137999414D01*
X159443212Y-138101232D01*
X159597555Y-138179873D01*
X159762299Y-138233402D01*
X159933389Y-138260500D01*
X159933390Y-138260500D01*
X160106610Y-138260500D01*
X160106611Y-138260500D01*
X160277701Y-138233402D01*
X160442445Y-138179873D01*
X160596788Y-138101232D01*
X160736928Y-137999414D01*
X160859414Y-137876928D01*
X160961232Y-137736788D01*
X161039873Y-137582445D01*
X161093402Y-137417701D01*
X161120500Y-137246611D01*
X161120500Y-137073389D01*
X161093402Y-136902299D01*
X161039873Y-136737555D01*
X160961232Y-136583212D01*
X160859414Y-136443072D01*
X160736928Y-136320586D01*
X160596788Y-136218768D01*
X160442445Y-136140127D01*
X160277701Y-136086598D01*
X160277699Y-136086597D01*
X160277698Y-136086597D01*
X160146271Y-136065781D01*
X160106611Y-136059500D01*
X159933389Y-136059500D01*
X159893728Y-136065781D01*
X159762302Y-136086597D01*
X159597552Y-136140128D01*
X159443211Y-136218768D01*
X159398777Y-136251052D01*
X159303072Y-136320586D01*
X159303070Y-136320588D01*
X159303069Y-136320588D01*
X159180588Y-136443069D01*
X159180588Y-136443070D01*
X159180586Y-136443072D01*
X159140424Y-136498350D01*
X159078768Y-136583211D01*
X159000128Y-136737552D01*
X158946597Y-136902302D01*
X158919500Y-137073389D01*
X143340500Y-137073389D01*
X143313402Y-136902299D01*
X143259873Y-136737555D01*
X143181232Y-136583212D01*
X143079414Y-136443072D01*
X142956928Y-136320586D01*
X142816788Y-136218768D01*
X142662445Y-136140127D01*
X142497701Y-136086598D01*
X142497699Y-136086597D01*
X142497698Y-136086597D01*
X142366271Y-136065781D01*
X142326611Y-136059500D01*
X142153389Y-136059500D01*
X142113728Y-136065781D01*
X141982302Y-136086597D01*
X141817552Y-136140128D01*
X141663211Y-136218768D01*
X141618777Y-136251052D01*
X141523072Y-136320586D01*
X141523070Y-136320588D01*
X141523069Y-136320588D01*
X141400588Y-136443069D01*
X141400588Y-136443070D01*
X141400586Y-136443072D01*
X141360424Y-136498350D01*
X141298768Y-136583211D01*
X141220128Y-136737552D01*
X141166597Y-136902302D01*
X141139500Y-137073389D01*
X139390500Y-137073389D01*
X139390500Y-130089499D01*
X139410185Y-130022460D01*
X139462989Y-129976705D01*
X139514500Y-129965499D01*
X141145696Y-129965499D01*
X141212735Y-129985184D01*
X141256181Y-130033205D01*
X141298766Y-130116786D01*
X141329357Y-130158890D01*
X141400586Y-130256928D01*
X141523072Y-130379414D01*
X141663212Y-130481232D01*
X141817555Y-130559873D01*
X141892622Y-130584264D01*
X141950296Y-130623700D01*
X141977495Y-130688059D01*
X141965580Y-130756905D01*
X141918336Y-130808381D01*
X141890299Y-130820854D01*
X141813394Y-130844183D01*
X141667801Y-130904490D01*
X141580488Y-130951161D01*
X141511086Y-130997532D01*
X141511085Y-130997533D01*
X142110590Y-131597037D01*
X142047007Y-131614075D01*
X141932993Y-131679901D01*
X141839901Y-131772993D01*
X141774075Y-131887007D01*
X141757037Y-131950589D01*
X141157533Y-131351085D01*
X141157532Y-131351086D01*
X141111161Y-131420488D01*
X141064490Y-131507801D01*
X141004185Y-131653387D01*
X140975444Y-131748135D01*
X140944701Y-131902697D01*
X140944701Y-131902700D01*
X140935000Y-132001210D01*
X140935000Y-132158789D01*
X140944701Y-132257299D01*
X140944701Y-132257302D01*
X140975444Y-132411864D01*
X141004185Y-132506612D01*
X141064490Y-132652198D01*
X141111158Y-132739506D01*
X141157533Y-132808912D01*
X141157534Y-132808913D01*
X141757037Y-132209409D01*
X141774075Y-132272993D01*
X141839901Y-132387007D01*
X141932993Y-132480099D01*
X142047007Y-132545925D01*
X142110590Y-132562962D01*
X141511085Y-133162465D01*
X141580493Y-133208841D01*
X141667801Y-133255509D01*
X141813387Y-133315814D01*
X141890298Y-133339144D01*
X141948736Y-133377441D01*
X141977193Y-133441253D01*
X141966633Y-133510320D01*
X141920409Y-133562714D01*
X141892622Y-133575736D01*
X141817550Y-133600128D01*
X141663211Y-133678768D01*
X141583256Y-133736859D01*
X141523072Y-133780586D01*
X141523070Y-133780588D01*
X141523069Y-133780588D01*
X141400588Y-133903069D01*
X141400588Y-133903070D01*
X141400586Y-133903072D01*
X141363221Y-133954500D01*
X141298768Y-134043211D01*
X141220128Y-134197552D01*
X141166597Y-134362302D01*
X141158158Y-134415586D01*
X141139500Y-134533389D01*
X141139500Y-134706611D01*
X141166598Y-134877701D01*
X141220127Y-135042445D01*
X141298768Y-135196788D01*
X141400586Y-135336928D01*
X141523072Y-135459414D01*
X141663212Y-135561232D01*
X141817555Y-135639873D01*
X141982299Y-135693402D01*
X142153389Y-135720500D01*
X142153390Y-135720500D01*
X142326610Y-135720500D01*
X142326611Y-135720500D01*
X142497701Y-135693402D01*
X142662445Y-135639873D01*
X142816788Y-135561232D01*
X142956928Y-135459414D01*
X143079414Y-135336928D01*
X143181232Y-135196788D01*
X143259873Y-135042445D01*
X143313402Y-134877701D01*
X143340500Y-134706611D01*
X143340500Y-134533389D01*
X143313402Y-134362299D01*
X143259873Y-134197555D01*
X143181232Y-134043212D01*
X143079414Y-133903072D01*
X142956928Y-133780586D01*
X142816788Y-133678768D01*
X142700438Y-133619485D01*
X142649642Y-133571511D01*
X142632847Y-133503690D01*
X142655384Y-133437555D01*
X142710099Y-133394103D01*
X142756733Y-133385000D01*
X142879786Y-133385000D01*
X142933762Y-133382106D01*
X142933764Y-133382106D01*
X143073023Y-133346563D01*
X143073035Y-133346559D01*
X143129582Y-133323135D01*
X142369409Y-132562962D01*
X142432993Y-132545925D01*
X142547007Y-132480099D01*
X142640099Y-132387007D01*
X142705925Y-132272993D01*
X142722962Y-132209409D01*
X143483135Y-132969582D01*
X143483137Y-132969582D01*
X143506552Y-132913053D01*
X143524544Y-132862053D01*
X143544999Y-132719780D01*
X143545000Y-132719779D01*
X143545000Y-131440224D01*
X143545000Y-131440219D01*
X158715000Y-131440219D01*
X158715000Y-132719785D01*
X158717893Y-132773762D01*
X158717893Y-132773764D01*
X158753438Y-132913030D01*
X158753440Y-132913037D01*
X158776863Y-132969583D01*
X159537037Y-132209409D01*
X159554075Y-132272993D01*
X159619901Y-132387007D01*
X159712993Y-132480099D01*
X159827007Y-132545925D01*
X159890590Y-132562962D01*
X159130415Y-133323135D01*
X159130415Y-133323136D01*
X159186946Y-133346552D01*
X159237946Y-133364544D01*
X159380219Y-133384999D01*
X159380221Y-133385000D01*
X159503267Y-133385000D01*
X159570306Y-133404685D01*
X159616061Y-133457489D01*
X159626005Y-133526647D01*
X159596980Y-133590203D01*
X159559562Y-133619485D01*
X159443211Y-133678768D01*
X159363256Y-133736859D01*
X159303072Y-133780586D01*
X159303070Y-133780588D01*
X159303069Y-133780588D01*
X159180588Y-133903069D01*
X159180588Y-133903070D01*
X159180586Y-133903072D01*
X159143221Y-133954500D01*
X159078768Y-134043211D01*
X159000128Y-134197552D01*
X158946597Y-134362302D01*
X158938158Y-134415586D01*
X158919500Y-134533389D01*
X158919500Y-134706611D01*
X158946598Y-134877701D01*
X159000127Y-135042445D01*
X159078768Y-135196788D01*
X159180586Y-135336928D01*
X159303072Y-135459414D01*
X159443212Y-135561232D01*
X159597555Y-135639873D01*
X159762299Y-135693402D01*
X159933389Y-135720500D01*
X159933390Y-135720500D01*
X160106610Y-135720500D01*
X160106611Y-135720500D01*
X160277701Y-135693402D01*
X160442445Y-135639873D01*
X160596788Y-135561232D01*
X160736928Y-135459414D01*
X160859414Y-135336928D01*
X160961232Y-135196788D01*
X161039873Y-135042445D01*
X161093402Y-134877701D01*
X161120500Y-134706611D01*
X161120500Y-134533389D01*
X161093402Y-134362299D01*
X161039873Y-134197555D01*
X160961232Y-134043212D01*
X160859414Y-133903072D01*
X160736928Y-133780586D01*
X160596788Y-133678768D01*
X160442449Y-133600128D01*
X160402782Y-133587239D01*
X160367376Y-133575735D01*
X160309702Y-133536298D01*
X160282504Y-133471939D01*
X160294419Y-133403093D01*
X160341663Y-133351617D01*
X160369702Y-133339144D01*
X160446609Y-133315815D01*
X160592198Y-133255509D01*
X160679501Y-133208844D01*
X160679511Y-133208838D01*
X160748912Y-133162465D01*
X160149409Y-132562962D01*
X160212993Y-132545925D01*
X160327007Y-132480099D01*
X160420099Y-132387007D01*
X160485925Y-132272993D01*
X160502962Y-132209409D01*
X161102465Y-132808912D01*
X161148838Y-132739511D01*
X161148844Y-132739501D01*
X161195509Y-132652198D01*
X161255814Y-132506612D01*
X161284555Y-132411864D01*
X161315298Y-132257302D01*
X161315298Y-132257299D01*
X161325000Y-132158789D01*
X161325000Y-132001210D01*
X161315298Y-131902700D01*
X161315298Y-131902697D01*
X161284555Y-131748135D01*
X161255814Y-131653387D01*
X161195509Y-131507801D01*
X161148841Y-131420493D01*
X161102465Y-131351086D01*
X161102465Y-131351085D01*
X160502962Y-131950589D01*
X160485925Y-131887007D01*
X160420099Y-131772993D01*
X160327007Y-131679901D01*
X160212993Y-131614075D01*
X160149410Y-131597037D01*
X160748913Y-130997534D01*
X160748912Y-130997533D01*
X160679506Y-130951158D01*
X160592198Y-130904490D01*
X160446614Y-130844187D01*
X160369700Y-130820855D01*
X160311262Y-130782557D01*
X160282805Y-130718745D01*
X160293366Y-130649678D01*
X160339590Y-130597284D01*
X160367371Y-130584266D01*
X160442445Y-130559873D01*
X160596788Y-130481232D01*
X160736928Y-130379414D01*
X160859414Y-130256928D01*
X160961232Y-130116788D01*
X161039873Y-129962445D01*
X161093402Y-129797701D01*
X161120500Y-129626611D01*
X161120500Y-129453389D01*
X161093402Y-129282299D01*
X161039873Y-129117555D01*
X160961232Y-128963212D01*
X160859414Y-128823072D01*
X160736928Y-128700586D01*
X160596788Y-128598768D01*
X160442445Y-128520127D01*
X160277701Y-128466598D01*
X160277699Y-128466597D01*
X160277698Y-128466597D01*
X160146271Y-128445781D01*
X160106611Y-128439500D01*
X159933389Y-128439500D01*
X159893728Y-128445781D01*
X159762302Y-128466597D01*
X159597552Y-128520128D01*
X159443211Y-128598768D01*
X159363256Y-128656859D01*
X159303072Y-128700586D01*
X159303070Y-128700588D01*
X159303069Y-128700588D01*
X159180588Y-128823069D01*
X159180588Y-128823070D01*
X159180586Y-128823072D01*
X159154883Y-128858449D01*
X159078768Y-128963211D01*
X159000128Y-129117552D01*
X158946597Y-129282302D01*
X158931795Y-129375759D01*
X158919500Y-129453389D01*
X158919500Y-129626611D01*
X158946598Y-129797701D01*
X159000127Y-129962445D01*
X159078768Y-130116788D01*
X159180586Y-130256928D01*
X159303072Y-130379414D01*
X159443212Y-130481232D01*
X159509455Y-130514984D01*
X159559562Y-130540515D01*
X159610358Y-130588489D01*
X159627153Y-130656310D01*
X159604616Y-130722445D01*
X159549901Y-130765897D01*
X159503267Y-130775000D01*
X159380214Y-130775000D01*
X159326237Y-130777893D01*
X159326235Y-130777893D01*
X159186969Y-130813438D01*
X159186956Y-130813442D01*
X159130415Y-130836862D01*
X159890590Y-131597037D01*
X159827007Y-131614075D01*
X159712993Y-131679901D01*
X159619901Y-131772993D01*
X159554075Y-131887007D01*
X159537037Y-131950590D01*
X158776862Y-131190415D01*
X158753449Y-131246940D01*
X158735455Y-131297946D01*
X158715000Y-131440219D01*
X143545000Y-131440219D01*
X143544999Y-131440204D01*
X143542106Y-131386237D01*
X143542106Y-131386235D01*
X143506558Y-131246960D01*
X143483136Y-131190415D01*
X143483135Y-131190415D01*
X142722962Y-131950589D01*
X142705925Y-131887007D01*
X142640099Y-131772993D01*
X142547007Y-131679901D01*
X142432993Y-131614075D01*
X142369410Y-131597037D01*
X143129583Y-130836863D01*
X143129583Y-130836862D01*
X143073052Y-130813447D01*
X143073035Y-130813440D01*
X143022053Y-130795455D01*
X142879780Y-130775000D01*
X142756733Y-130775000D01*
X142689694Y-130755315D01*
X142643939Y-130702511D01*
X142633995Y-130633353D01*
X142663020Y-130569797D01*
X142700438Y-130540515D01*
X142722304Y-130529373D01*
X142816788Y-130481232D01*
X142956928Y-130379414D01*
X143079414Y-130256928D01*
X143181232Y-130116788D01*
X143259873Y-129962445D01*
X143313402Y-129797701D01*
X143340500Y-129626611D01*
X143340500Y-129453389D01*
X143313402Y-129282299D01*
X143259873Y-129117555D01*
X143181232Y-128963212D01*
X143079414Y-128823072D01*
X142956928Y-128700586D01*
X142816788Y-128598768D01*
X142662445Y-128520127D01*
X142497701Y-128466598D01*
X142497699Y-128466597D01*
X142497698Y-128466597D01*
X142366271Y-128445781D01*
X142326611Y-128439500D01*
X142153389Y-128439500D01*
X142113728Y-128445781D01*
X141982302Y-128466597D01*
X141817552Y-128520128D01*
X141663211Y-128598768D01*
X141583256Y-128656859D01*
X141523072Y-128700586D01*
X141523070Y-128700588D01*
X141523069Y-128700588D01*
X141400588Y-128823069D01*
X141400588Y-128823070D01*
X141400586Y-128823072D01*
X141374883Y-128858449D01*
X141298766Y-128963213D01*
X141256182Y-129046793D01*
X141208208Y-129097589D01*
X141145697Y-129114499D01*
X138908982Y-129114499D01*
X138800763Y-129143496D01*
X138800760Y-129143497D01*
X138703740Y-129199512D01*
X138703734Y-129199516D01*
X138624517Y-129278733D01*
X138624513Y-129278739D01*
X138568498Y-129375759D01*
X138568497Y-129375762D01*
X138539500Y-129483981D01*
X138539500Y-138405695D01*
X138519815Y-138472734D01*
X138471795Y-138516180D01*
X138388211Y-138558768D01*
X138332149Y-138599500D01*
X138248072Y-138660586D01*
X138248070Y-138660588D01*
X138248069Y-138660588D01*
X138125588Y-138783069D01*
X138125588Y-138783070D01*
X138125586Y-138783072D01*
X138081859Y-138843256D01*
X138023768Y-138923211D01*
X137945128Y-139077552D01*
X137891597Y-139242302D01*
X137886014Y-139277552D01*
X137864500Y-139413389D01*
X132445500Y-139413389D01*
X132418402Y-139242299D01*
X132364873Y-139077555D01*
X132286232Y-138923212D01*
X132184414Y-138783072D01*
X132061928Y-138660586D01*
X131921788Y-138558768D01*
X131838205Y-138516180D01*
X131787409Y-138468205D01*
X131770500Y-138405695D01*
X131770500Y-136361537D01*
X131790185Y-136294498D01*
X131838205Y-136251052D01*
X131974199Y-136181760D01*
X132127073Y-136070690D01*
X132260690Y-135937073D01*
X132371760Y-135784199D01*
X132457547Y-135615832D01*
X132515940Y-135436118D01*
X132532076Y-135334240D01*
X132545500Y-135249486D01*
X132545500Y-135060513D01*
X132515940Y-134873881D01*
X132461590Y-134706611D01*
X132457547Y-134694168D01*
X132457545Y-134694165D01*
X132457545Y-134694163D01*
X132371759Y-134525800D01*
X132260690Y-134372927D01*
X132127073Y-134239310D01*
X131974199Y-134128240D01*
X131805836Y-134042454D01*
X131626118Y-133984059D01*
X131439486Y-133954500D01*
X131439481Y-133954500D01*
X131250519Y-133954500D01*
X131250514Y-133954500D01*
X131063881Y-133984059D01*
X130884163Y-134042454D01*
X130715800Y-134128240D01*
X130689117Y-134147627D01*
X130562927Y-134239310D01*
X130562925Y-134239312D01*
X130562924Y-134239312D01*
X130429312Y-134372924D01*
X130426146Y-134376632D01*
X130425367Y-134375966D01*
X130373975Y-134415586D01*
X130304361Y-134421557D01*
X130242570Y-134388944D01*
X130208219Y-134328102D01*
X130205000Y-134300030D01*
X130205000Y-134207172D01*
X130204999Y-134207155D01*
X130198598Y-134147627D01*
X130198596Y-134147620D01*
X130148354Y-134012913D01*
X130148350Y-134012906D01*
X130062190Y-133897812D01*
X130062187Y-133897809D01*
X129947093Y-133811649D01*
X129947086Y-133811645D01*
X129812379Y-133761403D01*
X129812372Y-133761401D01*
X129752844Y-133755000D01*
X129055000Y-133755000D01*
X129055000Y-134779722D01*
X128978694Y-134735667D01*
X128864244Y-134705000D01*
X128745756Y-134705000D01*
X128631306Y-134735667D01*
X128555000Y-134779722D01*
X128555000Y-133755000D01*
X127857155Y-133755000D01*
X127797627Y-133761401D01*
X127797620Y-133761403D01*
X127662913Y-133811645D01*
X127662906Y-133811649D01*
X127547812Y-133897809D01*
X127547809Y-133897812D01*
X127461649Y-134012906D01*
X127461645Y-134012913D01*
X127411403Y-134147620D01*
X127411401Y-134147627D01*
X127405000Y-134207155D01*
X113032816Y-134207155D01*
X112924199Y-134128240D01*
X112755836Y-134042454D01*
X112576118Y-133984059D01*
X112389486Y-133954500D01*
X112389481Y-133954500D01*
X112200519Y-133954500D01*
X112200514Y-133954500D01*
X112013881Y-133984059D01*
X111834163Y-134042454D01*
X111665800Y-134128240D01*
X111639117Y-134147627D01*
X111512927Y-134239310D01*
X111512925Y-134239312D01*
X111512924Y-134239312D01*
X111379312Y-134372924D01*
X111376146Y-134376632D01*
X111375367Y-134375966D01*
X111323975Y-134415586D01*
X111254361Y-134421557D01*
X111192570Y-134388944D01*
X111158219Y-134328102D01*
X111155000Y-134300030D01*
X111155000Y-134207172D01*
X111154999Y-134207155D01*
X111148598Y-134147627D01*
X111148596Y-134147620D01*
X111098354Y-134012913D01*
X111098350Y-134012906D01*
X111012190Y-133897812D01*
X111012187Y-133897809D01*
X110897093Y-133811649D01*
X110897086Y-133811645D01*
X110762379Y-133761403D01*
X110762372Y-133761401D01*
X110702844Y-133755000D01*
X110005000Y-133755000D01*
X110005000Y-134779722D01*
X109928694Y-134735667D01*
X109814244Y-134705000D01*
X109695756Y-134705000D01*
X109581306Y-134735667D01*
X109505000Y-134779722D01*
X109505000Y-133755000D01*
X108807155Y-133755000D01*
X108747627Y-133761401D01*
X108747620Y-133761403D01*
X108612913Y-133811645D01*
X108612906Y-133811649D01*
X108497812Y-133897809D01*
X108497809Y-133897812D01*
X108411649Y-134012906D01*
X108411645Y-134012913D01*
X108361403Y-134147620D01*
X108361401Y-134147627D01*
X108355000Y-134207155D01*
X100500500Y-134207155D01*
X100500500Y-129988389D01*
X104844500Y-129988389D01*
X104844500Y-130161611D01*
X104871598Y-130332701D01*
X104925127Y-130497445D01*
X105003768Y-130651788D01*
X105105586Y-130791928D01*
X105228072Y-130914414D01*
X105368212Y-131016232D01*
X105522555Y-131094873D01*
X105687299Y-131148402D01*
X105858389Y-131175500D01*
X105858390Y-131175500D01*
X106031610Y-131175500D01*
X106031611Y-131175500D01*
X106202701Y-131148402D01*
X106367445Y-131094873D01*
X106521788Y-131016232D01*
X106661928Y-130914414D01*
X106784414Y-130791928D01*
X106886232Y-130651788D01*
X106964873Y-130497445D01*
X107018402Y-130332701D01*
X107045500Y-130161611D01*
X107045500Y-129988389D01*
X107035854Y-129927486D01*
X108774500Y-129927486D01*
X108774500Y-130222513D01*
X108806571Y-130466113D01*
X108813007Y-130514993D01*
X108887212Y-130791930D01*
X108889361Y-130799951D01*
X108889364Y-130799961D01*
X109002254Y-131072500D01*
X109002258Y-131072510D01*
X109149761Y-131327993D01*
X109329352Y-131562040D01*
X109329358Y-131562047D01*
X109537952Y-131770641D01*
X109537959Y-131770647D01*
X109772006Y-131950238D01*
X110027489Y-132097741D01*
X110027490Y-132097741D01*
X110027493Y-132097743D01*
X110300048Y-132210639D01*
X110585007Y-132286993D01*
X110877494Y-132325500D01*
X110877501Y-132325500D01*
X111172499Y-132325500D01*
X111172506Y-132325500D01*
X111464993Y-132286993D01*
X111749952Y-132210639D01*
X112022507Y-132097743D01*
X112277994Y-131950238D01*
X112512042Y-131770646D01*
X112720646Y-131562042D01*
X112900238Y-131327994D01*
X113047743Y-131072507D01*
X113160639Y-130799952D01*
X113236993Y-130514993D01*
X113275500Y-130222506D01*
X113275500Y-129988389D01*
X115004500Y-129988389D01*
X115004500Y-130161611D01*
X115031598Y-130332701D01*
X115085127Y-130497445D01*
X115163768Y-130651788D01*
X115265586Y-130791928D01*
X115388072Y-130914414D01*
X115528212Y-131016232D01*
X115682555Y-131094873D01*
X115847299Y-131148402D01*
X116018389Y-131175500D01*
X116018390Y-131175500D01*
X116191610Y-131175500D01*
X116191611Y-131175500D01*
X116362701Y-131148402D01*
X116527445Y-131094873D01*
X116681788Y-131016232D01*
X116821928Y-130914414D01*
X116944414Y-130791928D01*
X117046232Y-130651788D01*
X117124873Y-130497445D01*
X117178402Y-130332701D01*
X117205500Y-130161611D01*
X117205500Y-129988389D01*
X123894500Y-129988389D01*
X123894500Y-130161611D01*
X123921598Y-130332701D01*
X123975127Y-130497445D01*
X124053768Y-130651788D01*
X124155586Y-130791928D01*
X124278072Y-130914414D01*
X124418212Y-131016232D01*
X124572555Y-131094873D01*
X124737299Y-131148402D01*
X124908389Y-131175500D01*
X124908390Y-131175500D01*
X125081610Y-131175500D01*
X125081611Y-131175500D01*
X125252701Y-131148402D01*
X125417445Y-131094873D01*
X125571788Y-131016232D01*
X125711928Y-130914414D01*
X125834414Y-130791928D01*
X125936232Y-130651788D01*
X126014873Y-130497445D01*
X126068402Y-130332701D01*
X126095500Y-130161611D01*
X126095500Y-129988389D01*
X126085854Y-129927486D01*
X127824500Y-129927486D01*
X127824500Y-130222513D01*
X127856571Y-130466113D01*
X127863007Y-130514993D01*
X127937212Y-130791930D01*
X127939361Y-130799951D01*
X127939364Y-130799961D01*
X128052254Y-131072500D01*
X128052258Y-131072510D01*
X128199761Y-131327993D01*
X128379352Y-131562040D01*
X128379358Y-131562047D01*
X128587952Y-131770641D01*
X128587959Y-131770647D01*
X128822006Y-131950238D01*
X129077489Y-132097741D01*
X129077490Y-132097741D01*
X129077493Y-132097743D01*
X129350048Y-132210639D01*
X129635007Y-132286993D01*
X129927494Y-132325500D01*
X129927501Y-132325500D01*
X130222499Y-132325500D01*
X130222506Y-132325500D01*
X130514993Y-132286993D01*
X130799952Y-132210639D01*
X131072507Y-132097743D01*
X131327994Y-131950238D01*
X131562042Y-131770646D01*
X131770646Y-131562042D01*
X131950238Y-131327994D01*
X132097743Y-131072507D01*
X132210639Y-130799952D01*
X132286993Y-130514993D01*
X132325500Y-130222506D01*
X132325500Y-129988389D01*
X134054500Y-129988389D01*
X134054500Y-130161611D01*
X134081598Y-130332701D01*
X134135127Y-130497445D01*
X134213768Y-130651788D01*
X134315586Y-130791928D01*
X134438072Y-130914414D01*
X134578212Y-131016232D01*
X134732555Y-131094873D01*
X134897299Y-131148402D01*
X135068389Y-131175500D01*
X135068390Y-131175500D01*
X135241610Y-131175500D01*
X135241611Y-131175500D01*
X135412701Y-131148402D01*
X135577445Y-131094873D01*
X135731788Y-131016232D01*
X135871928Y-130914414D01*
X135994414Y-130791928D01*
X136096232Y-130651788D01*
X136174873Y-130497445D01*
X136228402Y-130332701D01*
X136255500Y-130161611D01*
X136255500Y-129988389D01*
X136228402Y-129817299D01*
X136174873Y-129652555D01*
X136096232Y-129498212D01*
X135994414Y-129358072D01*
X135871928Y-129235586D01*
X135731788Y-129133768D01*
X135577445Y-129055127D01*
X135412701Y-129001598D01*
X135412699Y-129001597D01*
X135412698Y-129001597D01*
X135281271Y-128980781D01*
X135241611Y-128974500D01*
X135068389Y-128974500D01*
X135028728Y-128980781D01*
X134897302Y-129001597D01*
X134732552Y-129055128D01*
X134578211Y-129133768D01*
X134522115Y-129174525D01*
X134438072Y-129235586D01*
X134438070Y-129235588D01*
X134438069Y-129235588D01*
X134315588Y-129358069D01*
X134315588Y-129358070D01*
X134315586Y-129358072D01*
X134271859Y-129418256D01*
X134213768Y-129498211D01*
X134135128Y-129652552D01*
X134081597Y-129817302D01*
X134058609Y-129962445D01*
X134054500Y-129988389D01*
X132325500Y-129988389D01*
X132325500Y-129927494D01*
X132286993Y-129635007D01*
X132210639Y-129350048D01*
X132097743Y-129077493D01*
X132080018Y-129046793D01*
X131950238Y-128822006D01*
X131770647Y-128587959D01*
X131770641Y-128587952D01*
X131562047Y-128379358D01*
X131562040Y-128379352D01*
X131327993Y-128199761D01*
X131072510Y-128052258D01*
X131072500Y-128052254D01*
X130799961Y-127939364D01*
X130799954Y-127939362D01*
X130799952Y-127939361D01*
X130514993Y-127863007D01*
X130466113Y-127856571D01*
X130222513Y-127824500D01*
X130222506Y-127824500D01*
X129927494Y-127824500D01*
X129927486Y-127824500D01*
X129649085Y-127861153D01*
X129635007Y-127863007D01*
X129460861Y-127909669D01*
X129350048Y-127939361D01*
X129350038Y-127939364D01*
X129077499Y-128052254D01*
X129077489Y-128052258D01*
X128822006Y-128199761D01*
X128587959Y-128379352D01*
X128587952Y-128379358D01*
X128379358Y-128587952D01*
X128379352Y-128587959D01*
X128199761Y-128822006D01*
X128052258Y-129077489D01*
X128052254Y-129077499D01*
X127939364Y-129350038D01*
X127939361Y-129350048D01*
X127863008Y-129635004D01*
X127863006Y-129635015D01*
X127824500Y-129927486D01*
X126085854Y-129927486D01*
X126068402Y-129817299D01*
X126014873Y-129652555D01*
X125936232Y-129498212D01*
X125834414Y-129358072D01*
X125781882Y-129305540D01*
X125748397Y-129244217D01*
X125753381Y-129174525D01*
X125795253Y-129118592D01*
X125860717Y-129094175D01*
X125888961Y-129095386D01*
X126139072Y-129135000D01*
X126390928Y-129135000D01*
X126639669Y-129095602D01*
X126879184Y-129017780D01*
X127103575Y-128903446D01*
X127103581Y-128903442D01*
X127205697Y-128829250D01*
X127205698Y-128829250D01*
X126589025Y-128212578D01*
X126620258Y-128199641D01*
X126743097Y-128117563D01*
X126847563Y-128013097D01*
X126929641Y-127890258D01*
X126942577Y-127859025D01*
X127559250Y-128475698D01*
X127559250Y-128475697D01*
X127633442Y-128373581D01*
X127633446Y-128373575D01*
X127747780Y-128149184D01*
X127825602Y-127909669D01*
X127865000Y-127660928D01*
X127865000Y-127409071D01*
X127825602Y-127160330D01*
X127756235Y-126946835D01*
X127747779Y-126920814D01*
X127743996Y-126913389D01*
X141139500Y-126913389D01*
X141139500Y-127086610D01*
X141154250Y-127179742D01*
X141166598Y-127257701D01*
X141220127Y-127422445D01*
X141298768Y-127576788D01*
X141400586Y-127716928D01*
X141523072Y-127839414D01*
X141663212Y-127941232D01*
X141817555Y-128019873D01*
X141982299Y-128073402D01*
X142153389Y-128100500D01*
X142153390Y-128100500D01*
X142326610Y-128100500D01*
X142326611Y-128100500D01*
X142497701Y-128073402D01*
X142662445Y-128019873D01*
X142816788Y-127941232D01*
X142956928Y-127839414D01*
X143079414Y-127716928D01*
X143181232Y-127576788D01*
X143259873Y-127422445D01*
X143313402Y-127257701D01*
X143340500Y-127086611D01*
X143340500Y-126913389D01*
X158919500Y-126913389D01*
X158919500Y-127086610D01*
X158934250Y-127179742D01*
X158946598Y-127257701D01*
X159000127Y-127422445D01*
X159078768Y-127576788D01*
X159180586Y-127716928D01*
X159303072Y-127839414D01*
X159443212Y-127941232D01*
X159597555Y-128019873D01*
X159762299Y-128073402D01*
X159933389Y-128100500D01*
X159933390Y-128100500D01*
X160106610Y-128100500D01*
X160106611Y-128100500D01*
X160277701Y-128073402D01*
X160442445Y-128019873D01*
X160596788Y-127941232D01*
X160736928Y-127839414D01*
X160859414Y-127716928D01*
X160961232Y-127576788D01*
X161039873Y-127422445D01*
X161093402Y-127257701D01*
X161120500Y-127086611D01*
X161120500Y-126913389D01*
X161093402Y-126742299D01*
X161039873Y-126577555D01*
X160961232Y-126423212D01*
X160859414Y-126283072D01*
X160736928Y-126160586D01*
X160596788Y-126058768D01*
X160442445Y-125980127D01*
X160277701Y-125926598D01*
X160277699Y-125926597D01*
X160277698Y-125926597D01*
X160146271Y-125905781D01*
X160106611Y-125899500D01*
X159933389Y-125899500D01*
X159893728Y-125905781D01*
X159762302Y-125926597D01*
X159597552Y-125980128D01*
X159443211Y-126058768D01*
X159363256Y-126116859D01*
X159303072Y-126160586D01*
X159303070Y-126160588D01*
X159303069Y-126160588D01*
X159180588Y-126283069D01*
X159180588Y-126283070D01*
X159180586Y-126283072D01*
X159136859Y-126343256D01*
X159078768Y-126423211D01*
X159000128Y-126577552D01*
X158946597Y-126742302D01*
X158919500Y-126913389D01*
X143340500Y-126913389D01*
X143313402Y-126742299D01*
X143259873Y-126577555D01*
X143181232Y-126423212D01*
X143079414Y-126283072D01*
X142956928Y-126160586D01*
X142816788Y-126058768D01*
X142662445Y-125980127D01*
X142497701Y-125926598D01*
X142497699Y-125926597D01*
X142497698Y-125926597D01*
X142366271Y-125905781D01*
X142326611Y-125899500D01*
X142153389Y-125899500D01*
X142113728Y-125905781D01*
X141982302Y-125926597D01*
X141817552Y-125980128D01*
X141663211Y-126058768D01*
X141583256Y-126116859D01*
X141523072Y-126160586D01*
X141523070Y-126160588D01*
X141523069Y-126160588D01*
X141400588Y-126283069D01*
X141400588Y-126283070D01*
X141400586Y-126283072D01*
X141356859Y-126343256D01*
X141298768Y-126423211D01*
X141220128Y-126577552D01*
X141166597Y-126742302D01*
X141139500Y-126913389D01*
X127743996Y-126913389D01*
X127633442Y-126696416D01*
X127559250Y-126594301D01*
X127559250Y-126594300D01*
X126942577Y-127210973D01*
X126929641Y-127179742D01*
X126847563Y-127056903D01*
X126743097Y-126952437D01*
X126620258Y-126870359D01*
X126589024Y-126857421D01*
X127205698Y-126240748D01*
X127103583Y-126166557D01*
X126879184Y-126052219D01*
X126639669Y-125974397D01*
X126390928Y-125935000D01*
X126139072Y-125935000D01*
X125890330Y-125974397D01*
X125650815Y-126052219D01*
X125426413Y-126166559D01*
X125324301Y-126240747D01*
X125324300Y-126240748D01*
X125940974Y-126857421D01*
X125909742Y-126870359D01*
X125786903Y-126952437D01*
X125682437Y-127056903D01*
X125600359Y-127179742D01*
X125587421Y-127210974D01*
X124970748Y-126594300D01*
X124970747Y-126594301D01*
X124896559Y-126696413D01*
X124782219Y-126920815D01*
X124704397Y-127160330D01*
X124665000Y-127409071D01*
X124665000Y-127660928D01*
X124704397Y-127909669D01*
X124782219Y-128149184D01*
X124896557Y-128373583D01*
X124970748Y-128475697D01*
X124970748Y-128475698D01*
X125587421Y-127859024D01*
X125600359Y-127890258D01*
X125682437Y-128013097D01*
X125786903Y-128117563D01*
X125909742Y-128199641D01*
X125940974Y-128212577D01*
X125324300Y-128829250D01*
X125326598Y-128858449D01*
X125312233Y-128926827D01*
X125263181Y-128976583D01*
X125195016Y-128991921D01*
X125183583Y-128990650D01*
X125081611Y-128974500D01*
X124908389Y-128974500D01*
X124868728Y-128980781D01*
X124737302Y-129001597D01*
X124572552Y-129055128D01*
X124418211Y-129133768D01*
X124362115Y-129174525D01*
X124278072Y-129235586D01*
X124278070Y-129235588D01*
X124278069Y-129235588D01*
X124155588Y-129358069D01*
X124155588Y-129358070D01*
X124155586Y-129358072D01*
X124111859Y-129418256D01*
X124053768Y-129498211D01*
X123975128Y-129652552D01*
X123921597Y-129817302D01*
X123898609Y-129962445D01*
X123894500Y-129988389D01*
X117205500Y-129988389D01*
X117178402Y-129817299D01*
X117124873Y-129652555D01*
X117046232Y-129498212D01*
X116944414Y-129358072D01*
X116821928Y-129235586D01*
X116681788Y-129133768D01*
X116527445Y-129055127D01*
X116362701Y-129001598D01*
X116362699Y-129001597D01*
X116362698Y-129001597D01*
X116231271Y-128980781D01*
X116191611Y-128974500D01*
X116018389Y-128974500D01*
X115978728Y-128980781D01*
X115847302Y-129001597D01*
X115682552Y-129055128D01*
X115528211Y-129133768D01*
X115472115Y-129174525D01*
X115388072Y-129235586D01*
X115388070Y-129235588D01*
X115388069Y-129235588D01*
X115265588Y-129358069D01*
X115265588Y-129358070D01*
X115265586Y-129358072D01*
X115221859Y-129418256D01*
X115163768Y-129498211D01*
X115085128Y-129652552D01*
X115031597Y-129817302D01*
X115008609Y-129962445D01*
X115004500Y-129988389D01*
X113275500Y-129988389D01*
X113275500Y-129927494D01*
X113236993Y-129635007D01*
X113160639Y-129350048D01*
X113047743Y-129077493D01*
X113030018Y-129046793D01*
X112900238Y-128822006D01*
X112720647Y-128587959D01*
X112720641Y-128587952D01*
X112512047Y-128379358D01*
X112512040Y-128379352D01*
X112277993Y-128199761D01*
X112022510Y-128052258D01*
X112022500Y-128052254D01*
X111749961Y-127939364D01*
X111749954Y-127939362D01*
X111749952Y-127939361D01*
X111464993Y-127863007D01*
X111416113Y-127856571D01*
X111172513Y-127824500D01*
X111172506Y-127824500D01*
X110877494Y-127824500D01*
X110877486Y-127824500D01*
X110599085Y-127861153D01*
X110585007Y-127863007D01*
X110410861Y-127909669D01*
X110300048Y-127939361D01*
X110300038Y-127939364D01*
X110027499Y-128052254D01*
X110027489Y-128052258D01*
X109772006Y-128199761D01*
X109537959Y-128379352D01*
X109537952Y-128379358D01*
X109329358Y-128587952D01*
X109329352Y-128587959D01*
X109149761Y-128822006D01*
X109002258Y-129077489D01*
X109002254Y-129077499D01*
X108889364Y-129350038D01*
X108889361Y-129350048D01*
X108813008Y-129635004D01*
X108813006Y-129635015D01*
X108774500Y-129927486D01*
X107035854Y-129927486D01*
X107018402Y-129817299D01*
X106964873Y-129652555D01*
X106886232Y-129498212D01*
X106784414Y-129358072D01*
X106731882Y-129305540D01*
X106698397Y-129244217D01*
X106703381Y-129174525D01*
X106745253Y-129118592D01*
X106810717Y-129094175D01*
X106838961Y-129095386D01*
X107089072Y-129135000D01*
X107340928Y-129135000D01*
X107589669Y-129095602D01*
X107829184Y-129017780D01*
X108053575Y-128903446D01*
X108053581Y-128903442D01*
X108155697Y-128829250D01*
X108155698Y-128829250D01*
X107539025Y-128212578D01*
X107570258Y-128199641D01*
X107693097Y-128117563D01*
X107797563Y-128013097D01*
X107879641Y-127890258D01*
X107892577Y-127859025D01*
X108509250Y-128475698D01*
X108509250Y-128475697D01*
X108583442Y-128373581D01*
X108583446Y-128373575D01*
X108697780Y-128149184D01*
X108775602Y-127909669D01*
X108815000Y-127660928D01*
X108815000Y-127409071D01*
X108775602Y-127160330D01*
X108697780Y-126920815D01*
X108583442Y-126696416D01*
X108509250Y-126594301D01*
X108509250Y-126594300D01*
X107892577Y-127210973D01*
X107879641Y-127179742D01*
X107797563Y-127056903D01*
X107693097Y-126952437D01*
X107570258Y-126870359D01*
X107539024Y-126857421D01*
X108155698Y-126240748D01*
X108053583Y-126166557D01*
X107829184Y-126052219D01*
X107589669Y-125974397D01*
X107340928Y-125935000D01*
X107089072Y-125935000D01*
X106840330Y-125974397D01*
X106600815Y-126052219D01*
X106376413Y-126166559D01*
X106274301Y-126240747D01*
X106274300Y-126240748D01*
X106890974Y-126857421D01*
X106859742Y-126870359D01*
X106736903Y-126952437D01*
X106632437Y-127056903D01*
X106550359Y-127179742D01*
X106537421Y-127210974D01*
X105920748Y-126594300D01*
X105920747Y-126594301D01*
X105846559Y-126696413D01*
X105732219Y-126920815D01*
X105654397Y-127160330D01*
X105615000Y-127409071D01*
X105615000Y-127660928D01*
X105654397Y-127909669D01*
X105732219Y-128149184D01*
X105846557Y-128373583D01*
X105920748Y-128475697D01*
X105920748Y-128475698D01*
X106537421Y-127859024D01*
X106550359Y-127890258D01*
X106632437Y-128013097D01*
X106736903Y-128117563D01*
X106859742Y-128199641D01*
X106890974Y-128212577D01*
X106274300Y-128829250D01*
X106276598Y-128858449D01*
X106262233Y-128926827D01*
X106213181Y-128976583D01*
X106145016Y-128991921D01*
X106133583Y-128990650D01*
X106031611Y-128974500D01*
X105858389Y-128974500D01*
X105818728Y-128980781D01*
X105687302Y-129001597D01*
X105522552Y-129055128D01*
X105368211Y-129133768D01*
X105312115Y-129174525D01*
X105228072Y-129235586D01*
X105228070Y-129235588D01*
X105228069Y-129235588D01*
X105105588Y-129358069D01*
X105105588Y-129358070D01*
X105105586Y-129358072D01*
X105061859Y-129418256D01*
X105003768Y-129498211D01*
X104925128Y-129652552D01*
X104871597Y-129817302D01*
X104848609Y-129962445D01*
X104844500Y-129988389D01*
X100500500Y-129988389D01*
X100500500Y-124884778D01*
X112164500Y-124884778D01*
X112164500Y-125105222D01*
X112181742Y-125214086D01*
X112198985Y-125322952D01*
X112267103Y-125532603D01*
X112267104Y-125532606D01*
X112367187Y-125729025D01*
X112496752Y-125907358D01*
X112496756Y-125907363D01*
X112652636Y-126063243D01*
X112652641Y-126063247D01*
X112808192Y-126176260D01*
X112830978Y-126192815D01*
X112925049Y-126240747D01*
X113027393Y-126292895D01*
X113027396Y-126292896D01*
X113132221Y-126326955D01*
X113237049Y-126361015D01*
X113454778Y-126395500D01*
X113454779Y-126395500D01*
X113675221Y-126395500D01*
X113675222Y-126395500D01*
X113892951Y-126361015D01*
X114102606Y-126292895D01*
X114299022Y-126192815D01*
X114302764Y-126190096D01*
X114306077Y-126187690D01*
X114477358Y-126063247D01*
X114477356Y-126063247D01*
X114477365Y-126063242D01*
X114633242Y-125907365D01*
X114762815Y-125729022D01*
X114862895Y-125532606D01*
X114931015Y-125322951D01*
X114965500Y-125105222D01*
X114965500Y-124884778D01*
X131214500Y-124884778D01*
X131214500Y-125105222D01*
X131231742Y-125214086D01*
X131248985Y-125322952D01*
X131317103Y-125532603D01*
X131317104Y-125532606D01*
X131417187Y-125729025D01*
X131546752Y-125907358D01*
X131546756Y-125907363D01*
X131702636Y-126063243D01*
X131702641Y-126063247D01*
X131858192Y-126176260D01*
X131880978Y-126192815D01*
X131975049Y-126240747D01*
X132077393Y-126292895D01*
X132077396Y-126292896D01*
X132182221Y-126326955D01*
X132287049Y-126361015D01*
X132504778Y-126395500D01*
X132504779Y-126395500D01*
X132725221Y-126395500D01*
X132725222Y-126395500D01*
X132942951Y-126361015D01*
X133152606Y-126292895D01*
X133349022Y-126192815D01*
X133527365Y-126063242D01*
X133683242Y-125907365D01*
X133812815Y-125729022D01*
X133912895Y-125532606D01*
X133981015Y-125322951D01*
X134015500Y-125105222D01*
X134015500Y-124884778D01*
X133981015Y-124667049D01*
X133912895Y-124457394D01*
X133912892Y-124457388D01*
X133896294Y-124424811D01*
X133870093Y-124373389D01*
X141139500Y-124373389D01*
X141139500Y-124546610D01*
X141158575Y-124667049D01*
X141166598Y-124717701D01*
X141220127Y-124882445D01*
X141298768Y-125036788D01*
X141400586Y-125176928D01*
X141523072Y-125299414D01*
X141663212Y-125401232D01*
X141817555Y-125479873D01*
X141982299Y-125533402D01*
X142153389Y-125560500D01*
X142153390Y-125560500D01*
X142326610Y-125560500D01*
X142326611Y-125560500D01*
X142497701Y-125533402D01*
X142662445Y-125479873D01*
X142816788Y-125401232D01*
X142956928Y-125299414D01*
X143079414Y-125176928D01*
X143181232Y-125036788D01*
X143259873Y-124882445D01*
X143313402Y-124717701D01*
X143340500Y-124546611D01*
X143340500Y-124373389D01*
X158919500Y-124373389D01*
X158919500Y-124546610D01*
X158938575Y-124667049D01*
X158946598Y-124717701D01*
X159000127Y-124882445D01*
X159078768Y-125036788D01*
X159180586Y-125176928D01*
X159303072Y-125299414D01*
X159443212Y-125401232D01*
X159597555Y-125479873D01*
X159762299Y-125533402D01*
X159933389Y-125560500D01*
X159933390Y-125560500D01*
X160106610Y-125560500D01*
X160106611Y-125560500D01*
X160277701Y-125533402D01*
X160442445Y-125479873D01*
X160596788Y-125401232D01*
X160736928Y-125299414D01*
X160859414Y-125176928D01*
X160961232Y-125036788D01*
X161039873Y-124882445D01*
X161093402Y-124717701D01*
X161120500Y-124546611D01*
X161120500Y-124373389D01*
X161093402Y-124202299D01*
X161039873Y-124037555D01*
X160961232Y-123883212D01*
X160859414Y-123743072D01*
X160736928Y-123620586D01*
X160596788Y-123518768D01*
X160442445Y-123440127D01*
X160277701Y-123386598D01*
X160277699Y-123386597D01*
X160277698Y-123386597D01*
X160146271Y-123365781D01*
X160106611Y-123359500D01*
X159933389Y-123359500D01*
X159893728Y-123365781D01*
X159762302Y-123386597D01*
X159597552Y-123440128D01*
X159443211Y-123518768D01*
X159363256Y-123576859D01*
X159303072Y-123620586D01*
X159303070Y-123620588D01*
X159303069Y-123620588D01*
X159180588Y-123743069D01*
X159180588Y-123743070D01*
X159180586Y-123743072D01*
X159141269Y-123797187D01*
X159078768Y-123883211D01*
X159000128Y-124037552D01*
X158946597Y-124202302D01*
X158919500Y-124373389D01*
X143340500Y-124373389D01*
X143313402Y-124202299D01*
X143259873Y-124037555D01*
X143181232Y-123883212D01*
X143079414Y-123743072D01*
X142956928Y-123620586D01*
X142816788Y-123518768D01*
X142662445Y-123440127D01*
X142497701Y-123386598D01*
X142497699Y-123386597D01*
X142497698Y-123386597D01*
X142366271Y-123365781D01*
X142326611Y-123359500D01*
X142153389Y-123359500D01*
X142113728Y-123365781D01*
X141982302Y-123386597D01*
X141817552Y-123440128D01*
X141663211Y-123518768D01*
X141583256Y-123576859D01*
X141523072Y-123620586D01*
X141523070Y-123620588D01*
X141523069Y-123620588D01*
X141400588Y-123743069D01*
X141400588Y-123743070D01*
X141400586Y-123743072D01*
X141361269Y-123797187D01*
X141298768Y-123883211D01*
X141220128Y-124037552D01*
X141166597Y-124202302D01*
X141139500Y-124373389D01*
X133870093Y-124373389D01*
X133812814Y-124260976D01*
X133683247Y-124082641D01*
X133683243Y-124082636D01*
X133527363Y-123926756D01*
X133527358Y-123926752D01*
X133349025Y-123797187D01*
X133349024Y-123797186D01*
X133349022Y-123797185D01*
X133286096Y-123765122D01*
X133152606Y-123697104D01*
X133152603Y-123697103D01*
X132942952Y-123628985D01*
X132834086Y-123611742D01*
X132725222Y-123594500D01*
X132504778Y-123594500D01*
X132432201Y-123605995D01*
X132287047Y-123628985D01*
X132077396Y-123697103D01*
X132077393Y-123697104D01*
X131880974Y-123797187D01*
X131702641Y-123926752D01*
X131702636Y-123926756D01*
X131546756Y-124082636D01*
X131546752Y-124082641D01*
X131417187Y-124260974D01*
X131317104Y-124457393D01*
X131317103Y-124457396D01*
X131248985Y-124667047D01*
X131248985Y-124667049D01*
X131214500Y-124884778D01*
X114965500Y-124884778D01*
X114931015Y-124667049D01*
X114862895Y-124457394D01*
X114862895Y-124457393D01*
X114820092Y-124373389D01*
X114762815Y-124260978D01*
X114720185Y-124202302D01*
X114633247Y-124082641D01*
X114633243Y-124082636D01*
X114477363Y-123926756D01*
X114477358Y-123926752D01*
X114299025Y-123797187D01*
X114299024Y-123797186D01*
X114299022Y-123797185D01*
X114236096Y-123765122D01*
X114102606Y-123697104D01*
X114102603Y-123697103D01*
X113892952Y-123628985D01*
X113784086Y-123611742D01*
X113675222Y-123594500D01*
X113454778Y-123594500D01*
X113382201Y-123605995D01*
X113237047Y-123628985D01*
X113027396Y-123697103D01*
X113027393Y-123697104D01*
X112830974Y-123797187D01*
X112652641Y-123926752D01*
X112652636Y-123926756D01*
X112496756Y-124082636D01*
X112496752Y-124082641D01*
X112367187Y-124260974D01*
X112267104Y-124457393D01*
X112267103Y-124457396D01*
X112198985Y-124667047D01*
X112198985Y-124667049D01*
X112164500Y-124884778D01*
X100500500Y-124884778D01*
X100500500Y-115157155D01*
X108355000Y-115157155D01*
X108355000Y-115855000D01*
X109379722Y-115855000D01*
X109335667Y-115931306D01*
X109305000Y-116045756D01*
X109305000Y-116164244D01*
X109335667Y-116278694D01*
X109379722Y-116355000D01*
X108355000Y-116355000D01*
X108355000Y-117052844D01*
X108361401Y-117112372D01*
X108361403Y-117112379D01*
X108411645Y-117247086D01*
X108411649Y-117247093D01*
X108497809Y-117362187D01*
X108497812Y-117362190D01*
X108612906Y-117448350D01*
X108612913Y-117448354D01*
X108747620Y-117498596D01*
X108747627Y-117498598D01*
X108807155Y-117504999D01*
X108807172Y-117505000D01*
X109505000Y-117505000D01*
X109505000Y-116480277D01*
X109581306Y-116524333D01*
X109695756Y-116555000D01*
X109814244Y-116555000D01*
X109928694Y-116524333D01*
X110005000Y-116480277D01*
X110005000Y-117505000D01*
X110702828Y-117505000D01*
X110702844Y-117504999D01*
X110762372Y-117498598D01*
X110762379Y-117498596D01*
X110897086Y-117448354D01*
X110897093Y-117448350D01*
X111012187Y-117362190D01*
X111012190Y-117362187D01*
X111098350Y-117247093D01*
X111098354Y-117247086D01*
X111148596Y-117112379D01*
X111148598Y-117112372D01*
X111154999Y-117052844D01*
X111155000Y-117052827D01*
X111155000Y-116959969D01*
X111174685Y-116892930D01*
X111227489Y-116847175D01*
X111296647Y-116837231D01*
X111360203Y-116866256D01*
X111376012Y-116883481D01*
X111376146Y-116883368D01*
X111379308Y-116887070D01*
X111379310Y-116887073D01*
X111512927Y-117020690D01*
X111665801Y-117131760D01*
X111801795Y-117201052D01*
X111852591Y-117249026D01*
X111869500Y-117311537D01*
X111869500Y-119405695D01*
X111849815Y-119472734D01*
X111801795Y-119516180D01*
X111718211Y-119558768D01*
X111638256Y-119616859D01*
X111578072Y-119660586D01*
X111578070Y-119660588D01*
X111578069Y-119660588D01*
X111455588Y-119783069D01*
X111455588Y-119783070D01*
X111455586Y-119783072D01*
X111438483Y-119806612D01*
X111353768Y-119923211D01*
X111275128Y-120077552D01*
X111221597Y-120242302D01*
X111201183Y-120371196D01*
X111194500Y-120413389D01*
X111194500Y-120586611D01*
X111221598Y-120757701D01*
X111275127Y-120922445D01*
X111353768Y-121076788D01*
X111455586Y-121216928D01*
X111578072Y-121339414D01*
X111718212Y-121441232D01*
X111872555Y-121519873D01*
X112037299Y-121573402D01*
X112208389Y-121600500D01*
X112208390Y-121600500D01*
X112381610Y-121600500D01*
X112381611Y-121600500D01*
X112552701Y-121573402D01*
X112717445Y-121519873D01*
X112871788Y-121441232D01*
X113011928Y-121339414D01*
X113134414Y-121216928D01*
X113236232Y-121076788D01*
X113314873Y-120922445D01*
X113368402Y-120757701D01*
X113395500Y-120586611D01*
X113395500Y-120413389D01*
X118814500Y-120413389D01*
X118814500Y-120586611D01*
X118841598Y-120757701D01*
X118895127Y-120922445D01*
X118973768Y-121076788D01*
X119075586Y-121216928D01*
X119198072Y-121339414D01*
X119277186Y-121396894D01*
X119338207Y-121441229D01*
X119338209Y-121441230D01*
X119338212Y-121441232D01*
X119421795Y-121483819D01*
X119472590Y-121531792D01*
X119489500Y-121594303D01*
X119489500Y-122656018D01*
X119518497Y-122764237D01*
X119574515Y-122861263D01*
X119653737Y-122940485D01*
X119750763Y-122996503D01*
X119858982Y-123025500D01*
X119858984Y-123025500D01*
X140556016Y-123025500D01*
X140556018Y-123025500D01*
X140664237Y-122996503D01*
X140761263Y-122940485D01*
X140840485Y-122861263D01*
X140896503Y-122764237D01*
X140925500Y-122656018D01*
X140925500Y-122469500D01*
X140945185Y-122402461D01*
X140997989Y-122356706D01*
X141049500Y-122345500D01*
X141145697Y-122345500D01*
X141212736Y-122365185D01*
X141256180Y-122413204D01*
X141284864Y-122469500D01*
X141298766Y-122496784D01*
X141298770Y-122496792D01*
X141341100Y-122555053D01*
X141400586Y-122636928D01*
X141523072Y-122759414D01*
X141663212Y-122861232D01*
X141817555Y-122939873D01*
X141982299Y-122993402D01*
X142153389Y-123020500D01*
X142153390Y-123020500D01*
X142326610Y-123020500D01*
X142326611Y-123020500D01*
X142497701Y-122993402D01*
X142662445Y-122939873D01*
X142816788Y-122861232D01*
X142956928Y-122759414D01*
X143079414Y-122636928D01*
X143181232Y-122496788D01*
X143259873Y-122342445D01*
X143313402Y-122177701D01*
X143340500Y-122006611D01*
X143340500Y-121833389D01*
X158919500Y-121833389D01*
X158919500Y-122006610D01*
X158946597Y-122177697D01*
X159000128Y-122342447D01*
X159030706Y-122402461D01*
X159078768Y-122496788D01*
X159180586Y-122636928D01*
X159303072Y-122759414D01*
X159443212Y-122861232D01*
X159597555Y-122939873D01*
X159762299Y-122993402D01*
X159933389Y-123020500D01*
X159933390Y-123020500D01*
X160106610Y-123020500D01*
X160106611Y-123020500D01*
X160277701Y-122993402D01*
X160442445Y-122939873D01*
X160596788Y-122861232D01*
X160736928Y-122759414D01*
X160859414Y-122636928D01*
X160961232Y-122496788D01*
X161039873Y-122342445D01*
X161093402Y-122177701D01*
X161120500Y-122006611D01*
X161120500Y-121833389D01*
X161093402Y-121662299D01*
X161039873Y-121497555D01*
X160961232Y-121343212D01*
X160859414Y-121203072D01*
X160736928Y-121080586D01*
X160596788Y-120978768D01*
X160442445Y-120900127D01*
X160277701Y-120846598D01*
X160277699Y-120846597D01*
X160277698Y-120846597D01*
X160146271Y-120825781D01*
X160106611Y-120819500D01*
X159933389Y-120819500D01*
X159893728Y-120825781D01*
X159762302Y-120846597D01*
X159597552Y-120900128D01*
X159443211Y-120978768D01*
X159363256Y-121036859D01*
X159303072Y-121080586D01*
X159303070Y-121080588D01*
X159303069Y-121080588D01*
X159180588Y-121203069D01*
X159180588Y-121203070D01*
X159180586Y-121203072D01*
X159170518Y-121216930D01*
X159078768Y-121343211D01*
X159000128Y-121497552D01*
X158946597Y-121662302D01*
X158919500Y-121833389D01*
X143340500Y-121833389D01*
X143313402Y-121662299D01*
X143259873Y-121497555D01*
X143181232Y-121343212D01*
X143079414Y-121203072D01*
X142956928Y-121080586D01*
X142816788Y-120978768D01*
X142700438Y-120919485D01*
X142649642Y-120871511D01*
X142632847Y-120803690D01*
X142655384Y-120737555D01*
X142710099Y-120694103D01*
X142756733Y-120685000D01*
X142879786Y-120685000D01*
X142933762Y-120682106D01*
X142933764Y-120682106D01*
X143073023Y-120646563D01*
X143073035Y-120646559D01*
X143129582Y-120623135D01*
X142369409Y-119862962D01*
X142432993Y-119845925D01*
X142547007Y-119780099D01*
X142640099Y-119687007D01*
X142705925Y-119572993D01*
X142722962Y-119509409D01*
X143483135Y-120269582D01*
X143483137Y-120269582D01*
X143506552Y-120213053D01*
X143524544Y-120162053D01*
X143544999Y-120019780D01*
X143545000Y-120019779D01*
X143545000Y-118740219D01*
X158914500Y-118740219D01*
X158914500Y-120019769D01*
X158914581Y-120026838D01*
X158937753Y-120136690D01*
X158937754Y-120136691D01*
X158968183Y-120210156D01*
X158970977Y-120216687D01*
X158970978Y-120216689D01*
X159034427Y-120309312D01*
X159090688Y-120365573D01*
X159095526Y-120370301D01*
X159095737Y-120370507D01*
X159189796Y-120431795D01*
X159189801Y-120431798D01*
X159263310Y-120462246D01*
X159269859Y-120464870D01*
X159380218Y-120485500D01*
X159380220Y-120485500D01*
X160098791Y-120485500D01*
X160098793Y-120485500D01*
X160158392Y-120479630D01*
X160312950Y-120448887D01*
X160370261Y-120431502D01*
X160515852Y-120371196D01*
X160568669Y-120342965D01*
X160699697Y-120255415D01*
X160745991Y-120217422D01*
X160857422Y-120105991D01*
X160895415Y-120059697D01*
X160982965Y-119928669D01*
X161011196Y-119875852D01*
X161071502Y-119730261D01*
X161088887Y-119672950D01*
X161119630Y-119518392D01*
X161125500Y-119458793D01*
X161125500Y-119301207D01*
X161119630Y-119241608D01*
X161088887Y-119087050D01*
X161071502Y-119029739D01*
X161070138Y-119026447D01*
X161011198Y-118884154D01*
X161011196Y-118884148D01*
X160982965Y-118831331D01*
X160982961Y-118831325D01*
X160982957Y-118831318D01*
X160895420Y-118700311D01*
X160895415Y-118700303D01*
X160857422Y-118654009D01*
X160857421Y-118654008D01*
X160857417Y-118654003D01*
X160745996Y-118542582D01*
X160740160Y-118537793D01*
X160699697Y-118504585D01*
X160678490Y-118490415D01*
X160568681Y-118417042D01*
X160568674Y-118417038D01*
X160568671Y-118417036D01*
X160568669Y-118417035D01*
X160515852Y-118388804D01*
X160515845Y-118388801D01*
X160370266Y-118328499D01*
X160348108Y-118321778D01*
X160312950Y-118311113D01*
X160158392Y-118280370D01*
X160158388Y-118280369D01*
X160158380Y-118280368D01*
X160110354Y-118275638D01*
X160098793Y-118274500D01*
X159380218Y-118274500D01*
X159374103Y-118274570D01*
X159373161Y-118274581D01*
X159263309Y-118297753D01*
X159263308Y-118297754D01*
X159189843Y-118328183D01*
X159183312Y-118330977D01*
X159090688Y-118394426D01*
X159034406Y-118450709D01*
X159029492Y-118455737D01*
X158968204Y-118549796D01*
X158968202Y-118549799D01*
X158937739Y-118623345D01*
X158935130Y-118629857D01*
X158914500Y-118740219D01*
X143545000Y-118740219D01*
X143545000Y-118740207D01*
X143542106Y-118686237D01*
X143542106Y-118686235D01*
X143506558Y-118546960D01*
X143483136Y-118490415D01*
X143483135Y-118490415D01*
X142722962Y-119250589D01*
X142705925Y-119187007D01*
X142640099Y-119072993D01*
X142547007Y-118979901D01*
X142432993Y-118914075D01*
X142369410Y-118897037D01*
X143129583Y-118136863D01*
X143129583Y-118136862D01*
X143073052Y-118113447D01*
X143073035Y-118113440D01*
X143022053Y-118095455D01*
X142879780Y-118075000D01*
X142756733Y-118075000D01*
X142689694Y-118055315D01*
X142643939Y-118002511D01*
X142633995Y-117933353D01*
X142663020Y-117869797D01*
X142700438Y-117840515D01*
X142722304Y-117829373D01*
X142816788Y-117781232D01*
X142956928Y-117679414D01*
X143079414Y-117556928D01*
X143181232Y-117416788D01*
X143259873Y-117262445D01*
X143313402Y-117097701D01*
X143340500Y-116926611D01*
X143340500Y-116753389D01*
X158919500Y-116753389D01*
X158919500Y-116926610D01*
X158939490Y-117052827D01*
X158946598Y-117097701D01*
X159000127Y-117262445D01*
X159078768Y-117416788D01*
X159180586Y-117556928D01*
X159303072Y-117679414D01*
X159443212Y-117781232D01*
X159597555Y-117859873D01*
X159762299Y-117913402D01*
X159933389Y-117940500D01*
X159933390Y-117940500D01*
X160106610Y-117940500D01*
X160106611Y-117940500D01*
X160277701Y-117913402D01*
X160442445Y-117859873D01*
X160596788Y-117781232D01*
X160736928Y-117679414D01*
X160859414Y-117556928D01*
X160961232Y-117416788D01*
X161039873Y-117262445D01*
X161093402Y-117097701D01*
X161120500Y-116926611D01*
X161120500Y-116753389D01*
X161093402Y-116582299D01*
X161039873Y-116417555D01*
X160961232Y-116263212D01*
X160859414Y-116123072D01*
X160736928Y-116000586D01*
X160596788Y-115898768D01*
X160442445Y-115820127D01*
X160277701Y-115766598D01*
X160277699Y-115766597D01*
X160277698Y-115766597D01*
X160140768Y-115744910D01*
X160106611Y-115739500D01*
X159933389Y-115739500D01*
X159899232Y-115744910D01*
X159762302Y-115766597D01*
X159597552Y-115820128D01*
X159443211Y-115898768D01*
X159398427Y-115931306D01*
X159303072Y-116000586D01*
X159303070Y-116000588D01*
X159303069Y-116000588D01*
X159180588Y-116123069D01*
X159180588Y-116123070D01*
X159180586Y-116123072D01*
X159150673Y-116164244D01*
X159078768Y-116263211D01*
X159000128Y-116417552D01*
X158946597Y-116582302D01*
X158919500Y-116753389D01*
X143340500Y-116753389D01*
X143313402Y-116582299D01*
X143259873Y-116417555D01*
X143181232Y-116263212D01*
X143079414Y-116123072D01*
X142956928Y-116000586D01*
X142816788Y-115898768D01*
X142662445Y-115820127D01*
X142497701Y-115766598D01*
X142497699Y-115766597D01*
X142497698Y-115766597D01*
X142360768Y-115744910D01*
X142326611Y-115739500D01*
X142153389Y-115739500D01*
X142119232Y-115744910D01*
X141982302Y-115766597D01*
X141817552Y-115820128D01*
X141663211Y-115898768D01*
X141618427Y-115931306D01*
X141523072Y-116000586D01*
X141523070Y-116000588D01*
X141523069Y-116000588D01*
X141400588Y-116123069D01*
X141400588Y-116123070D01*
X141400586Y-116123072D01*
X141370673Y-116164244D01*
X141298768Y-116263211D01*
X141220128Y-116417552D01*
X141166597Y-116582302D01*
X141139500Y-116753389D01*
X141139500Y-116926610D01*
X141159490Y-117052827D01*
X141166598Y-117097701D01*
X141220127Y-117262445D01*
X141298768Y-117416788D01*
X141400586Y-117556928D01*
X141523072Y-117679414D01*
X141663212Y-117781232D01*
X141817555Y-117859873D01*
X141892622Y-117884264D01*
X141950296Y-117923700D01*
X141977495Y-117988059D01*
X141965580Y-118056905D01*
X141918336Y-118108381D01*
X141890299Y-118120854D01*
X141813394Y-118144183D01*
X141667801Y-118204490D01*
X141580488Y-118251161D01*
X141511086Y-118297532D01*
X141511085Y-118297533D01*
X142110590Y-118897037D01*
X142047007Y-118914075D01*
X141932993Y-118979901D01*
X141839901Y-119072993D01*
X141774075Y-119187007D01*
X141757037Y-119250589D01*
X141157533Y-118651085D01*
X141157532Y-118651086D01*
X141111161Y-118720488D01*
X141064490Y-118807801D01*
X141004185Y-118953387D01*
X140975444Y-119048135D01*
X140944701Y-119202697D01*
X140944701Y-119202700D01*
X140935000Y-119301210D01*
X140935000Y-119458789D01*
X140944701Y-119557299D01*
X140944701Y-119557302D01*
X140975444Y-119711864D01*
X141004185Y-119806612D01*
X141064490Y-119952198D01*
X141111158Y-120039506D01*
X141157533Y-120108912D01*
X141157534Y-120108913D01*
X141757037Y-119509409D01*
X141774075Y-119572993D01*
X141839901Y-119687007D01*
X141932993Y-119780099D01*
X142047007Y-119845925D01*
X142110590Y-119862962D01*
X141511085Y-120462465D01*
X141580493Y-120508841D01*
X141667801Y-120555509D01*
X141813387Y-120615814D01*
X141890298Y-120639144D01*
X141948736Y-120677441D01*
X141977193Y-120741253D01*
X141966633Y-120810320D01*
X141920409Y-120862714D01*
X141892622Y-120875736D01*
X141817550Y-120900128D01*
X141663211Y-120978768D01*
X141583256Y-121036859D01*
X141523072Y-121080586D01*
X141523070Y-121080588D01*
X141523069Y-121080588D01*
X141400588Y-121203069D01*
X141400588Y-121203070D01*
X141400586Y-121203072D01*
X141390518Y-121216930D01*
X141298770Y-121343207D01*
X141298768Y-121343212D01*
X141256180Y-121426795D01*
X141208208Y-121477590D01*
X141145697Y-121494500D01*
X140443982Y-121494500D01*
X140335763Y-121523497D01*
X140335760Y-121523498D01*
X140238740Y-121579513D01*
X140238734Y-121579517D01*
X140159517Y-121658734D01*
X140159513Y-121658740D01*
X140103498Y-121755760D01*
X140103497Y-121755763D01*
X140074500Y-121863982D01*
X140074500Y-122050500D01*
X140054815Y-122117539D01*
X140002011Y-122163294D01*
X139950500Y-122174500D01*
X120464500Y-122174500D01*
X120397461Y-122154815D01*
X120351706Y-122102011D01*
X120340500Y-122050500D01*
X120340500Y-121594303D01*
X120360185Y-121527264D01*
X120408204Y-121483819D01*
X120491788Y-121441232D01*
X120631928Y-121339414D01*
X120754414Y-121216928D01*
X120856232Y-121076788D01*
X120934873Y-120922445D01*
X120988402Y-120757701D01*
X121015500Y-120586611D01*
X121015500Y-120413389D01*
X120988402Y-120242299D01*
X120934873Y-120077555D01*
X120856232Y-119923212D01*
X120754414Y-119783072D01*
X120631928Y-119660586D01*
X120491788Y-119558768D01*
X120337445Y-119480127D01*
X120172701Y-119426598D01*
X120172699Y-119426597D01*
X120172698Y-119426597D01*
X120040725Y-119405695D01*
X120001611Y-119399500D01*
X119828389Y-119399500D01*
X119789275Y-119405695D01*
X119657302Y-119426597D01*
X119492552Y-119480128D01*
X119338211Y-119558768D01*
X119258256Y-119616859D01*
X119198072Y-119660586D01*
X119198070Y-119660588D01*
X119198069Y-119660588D01*
X119075588Y-119783069D01*
X119075588Y-119783070D01*
X119075586Y-119783072D01*
X119058483Y-119806612D01*
X118973768Y-119923211D01*
X118895128Y-120077552D01*
X118841597Y-120242302D01*
X118821183Y-120371196D01*
X118814500Y-120413389D01*
X113395500Y-120413389D01*
X113368402Y-120242299D01*
X113314873Y-120077555D01*
X113236232Y-119923212D01*
X113134414Y-119783072D01*
X113011928Y-119660586D01*
X112871788Y-119558768D01*
X112792546Y-119518392D01*
X112788205Y-119516180D01*
X112737409Y-119468205D01*
X112720500Y-119405695D01*
X112720500Y-117311537D01*
X112740185Y-117244498D01*
X112788205Y-117201052D01*
X112924199Y-117131760D01*
X113077073Y-117020690D01*
X113210690Y-116887073D01*
X113321760Y-116734199D01*
X113407547Y-116565832D01*
X113465940Y-116386118D01*
X113482954Y-116278694D01*
X113495500Y-116199486D01*
X113495500Y-116010513D01*
X113465940Y-115823881D01*
X113421031Y-115685667D01*
X113407547Y-115644168D01*
X113407545Y-115644165D01*
X113407545Y-115644163D01*
X113321759Y-115475800D01*
X113210690Y-115322927D01*
X113077073Y-115189310D01*
X113032816Y-115157155D01*
X127405000Y-115157155D01*
X127405000Y-115855000D01*
X128429722Y-115855000D01*
X128385667Y-115931306D01*
X128355000Y-116045756D01*
X128355000Y-116164244D01*
X128385667Y-116278694D01*
X128429722Y-116355000D01*
X127405000Y-116355000D01*
X127405000Y-117052844D01*
X127411401Y-117112372D01*
X127411403Y-117112379D01*
X127461645Y-117247086D01*
X127461649Y-117247093D01*
X127547809Y-117362187D01*
X127547812Y-117362190D01*
X127662906Y-117448350D01*
X127662913Y-117448354D01*
X127797620Y-117498596D01*
X127797627Y-117498598D01*
X127857155Y-117504999D01*
X127857172Y-117505000D01*
X128555000Y-117505000D01*
X128555000Y-116480277D01*
X128631306Y-116524333D01*
X128745756Y-116555000D01*
X128864244Y-116555000D01*
X128978694Y-116524333D01*
X129055000Y-116480277D01*
X129055000Y-117505000D01*
X129752828Y-117505000D01*
X129752844Y-117504999D01*
X129812372Y-117498598D01*
X129812379Y-117498596D01*
X129947086Y-117448354D01*
X129947093Y-117448350D01*
X130062187Y-117362190D01*
X130062190Y-117362187D01*
X130148350Y-117247093D01*
X130148354Y-117247086D01*
X130198596Y-117112379D01*
X130198598Y-117112372D01*
X130204999Y-117052844D01*
X130205000Y-117052827D01*
X130205000Y-116959969D01*
X130224685Y-116892930D01*
X130277489Y-116847175D01*
X130346647Y-116837231D01*
X130410203Y-116866256D01*
X130426012Y-116883481D01*
X130426146Y-116883368D01*
X130429308Y-116887070D01*
X130429310Y-116887073D01*
X130562927Y-117020690D01*
X130715801Y-117131760D01*
X130851795Y-117201052D01*
X130902591Y-117249026D01*
X130919500Y-117311537D01*
X130919500Y-119405695D01*
X130899815Y-119472734D01*
X130851795Y-119516180D01*
X130768211Y-119558768D01*
X130688256Y-119616859D01*
X130628072Y-119660586D01*
X130628070Y-119660588D01*
X130628069Y-119660588D01*
X130505588Y-119783069D01*
X130505588Y-119783070D01*
X130505586Y-119783072D01*
X130488483Y-119806612D01*
X130403768Y-119923211D01*
X130325128Y-120077552D01*
X130271597Y-120242302D01*
X130251183Y-120371196D01*
X130244500Y-120413389D01*
X130244500Y-120586611D01*
X130271598Y-120757701D01*
X130325127Y-120922445D01*
X130403768Y-121076788D01*
X130505586Y-121216928D01*
X130628072Y-121339414D01*
X130768212Y-121441232D01*
X130922555Y-121519873D01*
X131087299Y-121573402D01*
X131258389Y-121600500D01*
X131258390Y-121600500D01*
X131431610Y-121600500D01*
X131431611Y-121600500D01*
X131602701Y-121573402D01*
X131767445Y-121519873D01*
X131921788Y-121441232D01*
X132061928Y-121339414D01*
X132184414Y-121216928D01*
X132286232Y-121076788D01*
X132364873Y-120922445D01*
X132418402Y-120757701D01*
X132445500Y-120586611D01*
X132445500Y-120413389D01*
X137864500Y-120413389D01*
X137864500Y-120586611D01*
X137891598Y-120757701D01*
X137945127Y-120922445D01*
X138023768Y-121076788D01*
X138125586Y-121216928D01*
X138248072Y-121339414D01*
X138388212Y-121441232D01*
X138542555Y-121519873D01*
X138707299Y-121573402D01*
X138878389Y-121600500D01*
X138878390Y-121600500D01*
X139051610Y-121600500D01*
X139051611Y-121600500D01*
X139222701Y-121573402D01*
X139387445Y-121519873D01*
X139541788Y-121441232D01*
X139681928Y-121339414D01*
X139804414Y-121216928D01*
X139906232Y-121076788D01*
X139984873Y-120922445D01*
X140038402Y-120757701D01*
X140065500Y-120586611D01*
X140065500Y-120413389D01*
X140038402Y-120242299D01*
X139984873Y-120077555D01*
X139906232Y-119923212D01*
X139804414Y-119783072D01*
X139681928Y-119660586D01*
X139541788Y-119558768D01*
X139387445Y-119480127D01*
X139222701Y-119426598D01*
X139222699Y-119426597D01*
X139222698Y-119426597D01*
X139185059Y-119420636D01*
X139136175Y-119412893D01*
X139051611Y-119399500D01*
X138878389Y-119399500D01*
X138839275Y-119405695D01*
X138707302Y-119426597D01*
X138542552Y-119480128D01*
X138388211Y-119558768D01*
X138308256Y-119616859D01*
X138248072Y-119660586D01*
X138248070Y-119660588D01*
X138248069Y-119660588D01*
X138125588Y-119783069D01*
X138125588Y-119783070D01*
X138125586Y-119783072D01*
X138108483Y-119806612D01*
X138023768Y-119923211D01*
X137945128Y-120077552D01*
X137891597Y-120242302D01*
X137871183Y-120371196D01*
X137864500Y-120413389D01*
X132445500Y-120413389D01*
X132418402Y-120242299D01*
X132364873Y-120077555D01*
X132286232Y-119923212D01*
X132184414Y-119783072D01*
X132061928Y-119660586D01*
X131921788Y-119558768D01*
X131842546Y-119518392D01*
X131838205Y-119516180D01*
X131787409Y-119468205D01*
X131770500Y-119405695D01*
X131770500Y-117311537D01*
X131790185Y-117244498D01*
X131838205Y-117201052D01*
X131974199Y-117131760D01*
X132127073Y-117020690D01*
X132260690Y-116887073D01*
X132371760Y-116734199D01*
X132457547Y-116565832D01*
X132515940Y-116386118D01*
X132532076Y-116284240D01*
X132545500Y-116199486D01*
X132545500Y-116010513D01*
X132515940Y-115823881D01*
X132471031Y-115685667D01*
X132457547Y-115644168D01*
X132457545Y-115644165D01*
X132457545Y-115644163D01*
X132371759Y-115475800D01*
X132260690Y-115322927D01*
X132127073Y-115189310D01*
X131974199Y-115078240D01*
X131805836Y-114992454D01*
X131626118Y-114934059D01*
X131439486Y-114904500D01*
X131439481Y-114904500D01*
X131250519Y-114904500D01*
X131250514Y-114904500D01*
X131063881Y-114934059D01*
X130884163Y-114992454D01*
X130715800Y-115078240D01*
X130689117Y-115097627D01*
X130562927Y-115189310D01*
X130562925Y-115189312D01*
X130562924Y-115189312D01*
X130429312Y-115322924D01*
X130426146Y-115326632D01*
X130425367Y-115325966D01*
X130373975Y-115365586D01*
X130304361Y-115371557D01*
X130242570Y-115338944D01*
X130208219Y-115278102D01*
X130205000Y-115250030D01*
X130205000Y-115157172D01*
X130204999Y-115157155D01*
X130198598Y-115097627D01*
X130198596Y-115097620D01*
X130148354Y-114962913D01*
X130148350Y-114962906D01*
X130062190Y-114847812D01*
X130062187Y-114847809D01*
X129947093Y-114761649D01*
X129947086Y-114761645D01*
X129812379Y-114711403D01*
X129812372Y-114711401D01*
X129752844Y-114705000D01*
X129055000Y-114705000D01*
X129055000Y-115729722D01*
X128978694Y-115685667D01*
X128864244Y-115655000D01*
X128745756Y-115655000D01*
X128631306Y-115685667D01*
X128555000Y-115729722D01*
X128555000Y-114705000D01*
X127857155Y-114705000D01*
X127797627Y-114711401D01*
X127797620Y-114711403D01*
X127662913Y-114761645D01*
X127662906Y-114761649D01*
X127547812Y-114847809D01*
X127547809Y-114847812D01*
X127461649Y-114962906D01*
X127461645Y-114962913D01*
X127411403Y-115097620D01*
X127411401Y-115097627D01*
X127405000Y-115157155D01*
X113032816Y-115157155D01*
X112924199Y-115078240D01*
X112755836Y-114992454D01*
X112576118Y-114934059D01*
X112389486Y-114904500D01*
X112389481Y-114904500D01*
X112200519Y-114904500D01*
X112200514Y-114904500D01*
X112013881Y-114934059D01*
X111834163Y-114992454D01*
X111665800Y-115078240D01*
X111639117Y-115097627D01*
X111512927Y-115189310D01*
X111512925Y-115189312D01*
X111512924Y-115189312D01*
X111379312Y-115322924D01*
X111376146Y-115326632D01*
X111375367Y-115325966D01*
X111323975Y-115365586D01*
X111254361Y-115371557D01*
X111192570Y-115338944D01*
X111158219Y-115278102D01*
X111155000Y-115250030D01*
X111155000Y-115157172D01*
X111154999Y-115157155D01*
X111148598Y-115097627D01*
X111148596Y-115097620D01*
X111098354Y-114962913D01*
X111098350Y-114962906D01*
X111012190Y-114847812D01*
X111012187Y-114847809D01*
X110897093Y-114761649D01*
X110897086Y-114761645D01*
X110762379Y-114711403D01*
X110762372Y-114711401D01*
X110702844Y-114705000D01*
X110005000Y-114705000D01*
X110005000Y-115729722D01*
X109928694Y-115685667D01*
X109814244Y-115655000D01*
X109695756Y-115655000D01*
X109581306Y-115685667D01*
X109505000Y-115729722D01*
X109505000Y-114705000D01*
X108807155Y-114705000D01*
X108747627Y-114711401D01*
X108747620Y-114711403D01*
X108612913Y-114761645D01*
X108612906Y-114761649D01*
X108497812Y-114847809D01*
X108497809Y-114847812D01*
X108411649Y-114962906D01*
X108411645Y-114962913D01*
X108361403Y-115097620D01*
X108361401Y-115097627D01*
X108355000Y-115157155D01*
X100500500Y-115157155D01*
X100500500Y-114213389D01*
X141139500Y-114213389D01*
X141139500Y-114386611D01*
X141166598Y-114557701D01*
X141220127Y-114722445D01*
X141298768Y-114876788D01*
X141400586Y-115016928D01*
X141523072Y-115139414D01*
X141663212Y-115241232D01*
X141817555Y-115319873D01*
X141982299Y-115373402D01*
X142153389Y-115400500D01*
X142153390Y-115400500D01*
X142326610Y-115400500D01*
X142326611Y-115400500D01*
X142497701Y-115373402D01*
X142662445Y-115319873D01*
X142816788Y-115241232D01*
X142956928Y-115139414D01*
X143079414Y-115016928D01*
X143181232Y-114876788D01*
X143259873Y-114722445D01*
X143313402Y-114557701D01*
X143340500Y-114386611D01*
X143340500Y-114213389D01*
X158919500Y-114213389D01*
X158919500Y-114386611D01*
X158946598Y-114557701D01*
X159000127Y-114722445D01*
X159078768Y-114876788D01*
X159180586Y-115016928D01*
X159303072Y-115139414D01*
X159443212Y-115241232D01*
X159597555Y-115319873D01*
X159762299Y-115373402D01*
X159933389Y-115400500D01*
X159933390Y-115400500D01*
X160106610Y-115400500D01*
X160106611Y-115400500D01*
X160277701Y-115373402D01*
X160442445Y-115319873D01*
X160596788Y-115241232D01*
X160736928Y-115139414D01*
X160859414Y-115016928D01*
X160961232Y-114876788D01*
X161039873Y-114722445D01*
X161093402Y-114557701D01*
X161120500Y-114386611D01*
X161120500Y-114213389D01*
X161093402Y-114042299D01*
X161039873Y-113877555D01*
X160961232Y-113723212D01*
X160859414Y-113583072D01*
X160736928Y-113460586D01*
X160596788Y-113358768D01*
X160442445Y-113280127D01*
X160277701Y-113226598D01*
X160277699Y-113226597D01*
X160277698Y-113226597D01*
X160146271Y-113205781D01*
X160106611Y-113199500D01*
X159933389Y-113199500D01*
X159893728Y-113205781D01*
X159762302Y-113226597D01*
X159597552Y-113280128D01*
X159443211Y-113358768D01*
X159363256Y-113416859D01*
X159303072Y-113460586D01*
X159303070Y-113460588D01*
X159303069Y-113460588D01*
X159180588Y-113583069D01*
X159180588Y-113583070D01*
X159180586Y-113583072D01*
X159136859Y-113643256D01*
X159078768Y-113723211D01*
X159000128Y-113877552D01*
X158946597Y-114042302D01*
X158919500Y-114213389D01*
X143340500Y-114213389D01*
X143313402Y-114042299D01*
X143259873Y-113877555D01*
X143181232Y-113723212D01*
X143079414Y-113583072D01*
X142956928Y-113460586D01*
X142816788Y-113358768D01*
X142662445Y-113280127D01*
X142497701Y-113226598D01*
X142497699Y-113226597D01*
X142497698Y-113226597D01*
X142366271Y-113205781D01*
X142326611Y-113199500D01*
X142153389Y-113199500D01*
X142113728Y-113205781D01*
X141982302Y-113226597D01*
X141817552Y-113280128D01*
X141663211Y-113358768D01*
X141583256Y-113416859D01*
X141523072Y-113460586D01*
X141523070Y-113460588D01*
X141523069Y-113460588D01*
X141400588Y-113583069D01*
X141400588Y-113583070D01*
X141400586Y-113583072D01*
X141356859Y-113643256D01*
X141298768Y-113723211D01*
X141220128Y-113877552D01*
X141166597Y-114042302D01*
X141139500Y-114213389D01*
X100500500Y-114213389D01*
X100500500Y-110938389D01*
X104844500Y-110938389D01*
X104844500Y-111111611D01*
X104871598Y-111282701D01*
X104925127Y-111447445D01*
X105003768Y-111601788D01*
X105105586Y-111741928D01*
X105228072Y-111864414D01*
X105368212Y-111966232D01*
X105522555Y-112044873D01*
X105687299Y-112098402D01*
X105858389Y-112125500D01*
X105858390Y-112125500D01*
X106031610Y-112125500D01*
X106031611Y-112125500D01*
X106202701Y-112098402D01*
X106367445Y-112044873D01*
X106521788Y-111966232D01*
X106661928Y-111864414D01*
X106784414Y-111741928D01*
X106886232Y-111601788D01*
X106964873Y-111447445D01*
X107018402Y-111282701D01*
X107045500Y-111111611D01*
X107045500Y-110938389D01*
X107035854Y-110877486D01*
X108774500Y-110877486D01*
X108774500Y-111172513D01*
X108796229Y-111337552D01*
X108813007Y-111464993D01*
X108887212Y-111741930D01*
X108889361Y-111749951D01*
X108889364Y-111749961D01*
X109002254Y-112022500D01*
X109002258Y-112022510D01*
X109149761Y-112277993D01*
X109329352Y-112512040D01*
X109329358Y-112512047D01*
X109537952Y-112720641D01*
X109537959Y-112720647D01*
X109772006Y-112900238D01*
X110027489Y-113047741D01*
X110027490Y-113047741D01*
X110027493Y-113047743D01*
X110300048Y-113160639D01*
X110585007Y-113236993D01*
X110877494Y-113275500D01*
X110877501Y-113275500D01*
X111172499Y-113275500D01*
X111172506Y-113275500D01*
X111464993Y-113236993D01*
X111749952Y-113160639D01*
X112022507Y-113047743D01*
X112277994Y-112900238D01*
X112512042Y-112720646D01*
X112720646Y-112512042D01*
X112900238Y-112277994D01*
X113047743Y-112022507D01*
X113160639Y-111749952D01*
X113236993Y-111464993D01*
X113275500Y-111172506D01*
X113275500Y-110938389D01*
X115004500Y-110938389D01*
X115004500Y-111111611D01*
X115031598Y-111282701D01*
X115085127Y-111447445D01*
X115163768Y-111601788D01*
X115265586Y-111741928D01*
X115388072Y-111864414D01*
X115528212Y-111966232D01*
X115682555Y-112044873D01*
X115847299Y-112098402D01*
X116018389Y-112125500D01*
X116018390Y-112125500D01*
X116191610Y-112125500D01*
X116191611Y-112125500D01*
X116362701Y-112098402D01*
X116527445Y-112044873D01*
X116681788Y-111966232D01*
X116821928Y-111864414D01*
X116944414Y-111741928D01*
X117046232Y-111601788D01*
X117124873Y-111447445D01*
X117178402Y-111282701D01*
X117205500Y-111111611D01*
X117205500Y-110938389D01*
X123894500Y-110938389D01*
X123894500Y-111111611D01*
X123921598Y-111282701D01*
X123975127Y-111447445D01*
X124053768Y-111601788D01*
X124155586Y-111741928D01*
X124278072Y-111864414D01*
X124418212Y-111966232D01*
X124572555Y-112044873D01*
X124737299Y-112098402D01*
X124908389Y-112125500D01*
X124908390Y-112125500D01*
X125081610Y-112125500D01*
X125081611Y-112125500D01*
X125252701Y-112098402D01*
X125417445Y-112044873D01*
X125571788Y-111966232D01*
X125711928Y-111864414D01*
X125834414Y-111741928D01*
X125936232Y-111601788D01*
X126014873Y-111447445D01*
X126068402Y-111282701D01*
X126095500Y-111111611D01*
X126095500Y-110938389D01*
X126085854Y-110877486D01*
X127824500Y-110877486D01*
X127824500Y-111172513D01*
X127846229Y-111337552D01*
X127863007Y-111464993D01*
X127937212Y-111741930D01*
X127939361Y-111749951D01*
X127939364Y-111749961D01*
X128052254Y-112022500D01*
X128052258Y-112022510D01*
X128199761Y-112277993D01*
X128379352Y-112512040D01*
X128379358Y-112512047D01*
X128587952Y-112720641D01*
X128587959Y-112720647D01*
X128822006Y-112900238D01*
X129077489Y-113047741D01*
X129077490Y-113047741D01*
X129077493Y-113047743D01*
X129350048Y-113160639D01*
X129635007Y-113236993D01*
X129927494Y-113275500D01*
X129927501Y-113275500D01*
X130222499Y-113275500D01*
X130222506Y-113275500D01*
X130514993Y-113236993D01*
X130799952Y-113160639D01*
X131072507Y-113047743D01*
X131327994Y-112900238D01*
X131562042Y-112720646D01*
X131770646Y-112512042D01*
X131950238Y-112277994D01*
X132097743Y-112022507D01*
X132210639Y-111749952D01*
X132286993Y-111464993D01*
X132325500Y-111172506D01*
X132325500Y-110938389D01*
X134054500Y-110938389D01*
X134054500Y-111111611D01*
X134081598Y-111282701D01*
X134135127Y-111447445D01*
X134213768Y-111601788D01*
X134315586Y-111741928D01*
X134438072Y-111864414D01*
X134578212Y-111966232D01*
X134732555Y-112044873D01*
X134897299Y-112098402D01*
X135068389Y-112125500D01*
X135068390Y-112125500D01*
X135241610Y-112125500D01*
X135241611Y-112125500D01*
X135412701Y-112098402D01*
X135577445Y-112044873D01*
X135731788Y-111966232D01*
X135871928Y-111864414D01*
X135994414Y-111741928D01*
X136044211Y-111673389D01*
X141139500Y-111673389D01*
X141139500Y-111846611D01*
X141166598Y-112017701D01*
X141220127Y-112182445D01*
X141298768Y-112336788D01*
X141400586Y-112476928D01*
X141523072Y-112599414D01*
X141663212Y-112701232D01*
X141817555Y-112779873D01*
X141982299Y-112833402D01*
X142153389Y-112860500D01*
X142153390Y-112860500D01*
X142326610Y-112860500D01*
X142326611Y-112860500D01*
X142497701Y-112833402D01*
X142662445Y-112779873D01*
X142816788Y-112701232D01*
X142956928Y-112599414D01*
X143079414Y-112476928D01*
X143181232Y-112336788D01*
X143259873Y-112182445D01*
X143313402Y-112017701D01*
X143340500Y-111846611D01*
X143340500Y-111673389D01*
X158919500Y-111673389D01*
X158919500Y-111846611D01*
X158946598Y-112017701D01*
X159000127Y-112182445D01*
X159078768Y-112336788D01*
X159180586Y-112476928D01*
X159303072Y-112599414D01*
X159443212Y-112701232D01*
X159597555Y-112779873D01*
X159762299Y-112833402D01*
X159933389Y-112860500D01*
X159933390Y-112860500D01*
X160106610Y-112860500D01*
X160106611Y-112860500D01*
X160277701Y-112833402D01*
X160442445Y-112779873D01*
X160596788Y-112701232D01*
X160736928Y-112599414D01*
X160859414Y-112476928D01*
X160961232Y-112336788D01*
X161039873Y-112182445D01*
X161093402Y-112017701D01*
X161120500Y-111846611D01*
X161120500Y-111673389D01*
X161093402Y-111502299D01*
X161039873Y-111337555D01*
X160961232Y-111183212D01*
X160859414Y-111043072D01*
X160736928Y-110920586D01*
X160596788Y-110818768D01*
X160442445Y-110740127D01*
X160277701Y-110686598D01*
X160277699Y-110686597D01*
X160277698Y-110686597D01*
X160146271Y-110665781D01*
X160106611Y-110659500D01*
X159933389Y-110659500D01*
X159893728Y-110665781D01*
X159762302Y-110686597D01*
X159597552Y-110740128D01*
X159443211Y-110818768D01*
X159363256Y-110876859D01*
X159303072Y-110920586D01*
X159303070Y-110920588D01*
X159303069Y-110920588D01*
X159180588Y-111043069D01*
X159180588Y-111043070D01*
X159180586Y-111043072D01*
X159136859Y-111103256D01*
X159078768Y-111183211D01*
X159000128Y-111337552D01*
X158946597Y-111502302D01*
X158930840Y-111601788D01*
X158919500Y-111673389D01*
X143340500Y-111673389D01*
X143313402Y-111502299D01*
X143259873Y-111337555D01*
X143181232Y-111183212D01*
X143079414Y-111043072D01*
X142956928Y-110920586D01*
X142816788Y-110818768D01*
X142662445Y-110740127D01*
X142497701Y-110686598D01*
X142497699Y-110686597D01*
X142497698Y-110686597D01*
X142366271Y-110665781D01*
X142326611Y-110659500D01*
X142153389Y-110659500D01*
X142113728Y-110665781D01*
X141982302Y-110686597D01*
X141817552Y-110740128D01*
X141663211Y-110818768D01*
X141583256Y-110876859D01*
X141523072Y-110920586D01*
X141523070Y-110920588D01*
X141523069Y-110920588D01*
X141400588Y-111043069D01*
X141400588Y-111043070D01*
X141400586Y-111043072D01*
X141356859Y-111103256D01*
X141298768Y-111183211D01*
X141220128Y-111337552D01*
X141166597Y-111502302D01*
X141150840Y-111601788D01*
X141139500Y-111673389D01*
X136044211Y-111673389D01*
X136096232Y-111601788D01*
X136174873Y-111447445D01*
X136228402Y-111282701D01*
X136255500Y-111111611D01*
X136255500Y-110938389D01*
X136228402Y-110767299D01*
X136174873Y-110602555D01*
X136096232Y-110448212D01*
X135994414Y-110308072D01*
X135871928Y-110185586D01*
X135731788Y-110083768D01*
X135577445Y-110005127D01*
X135412701Y-109951598D01*
X135412699Y-109951597D01*
X135412698Y-109951597D01*
X135281271Y-109930781D01*
X135241611Y-109924500D01*
X135068389Y-109924500D01*
X135028728Y-109930781D01*
X134897302Y-109951597D01*
X134732552Y-110005128D01*
X134578211Y-110083768D01*
X134522115Y-110124525D01*
X134438072Y-110185586D01*
X134438070Y-110185588D01*
X134438069Y-110185588D01*
X134315588Y-110308069D01*
X134315588Y-110308070D01*
X134315586Y-110308072D01*
X134306557Y-110320500D01*
X134213768Y-110448211D01*
X134135128Y-110602552D01*
X134081597Y-110767302D01*
X134057320Y-110920586D01*
X134054500Y-110938389D01*
X132325500Y-110938389D01*
X132325500Y-110877494D01*
X132286993Y-110585007D01*
X132210639Y-110300048D01*
X132097743Y-110027493D01*
X132047604Y-109940650D01*
X131950238Y-109772006D01*
X131770647Y-109537959D01*
X131770641Y-109537952D01*
X131562047Y-109329358D01*
X131562040Y-109329352D01*
X131428523Y-109226901D01*
X131327994Y-109149762D01*
X131327989Y-109149758D01*
X131072510Y-109002258D01*
X131072500Y-109002254D01*
X130799961Y-108889364D01*
X130799954Y-108889362D01*
X130799952Y-108889361D01*
X130514993Y-108813007D01*
X130466113Y-108806571D01*
X130222513Y-108774500D01*
X130222506Y-108774500D01*
X129927494Y-108774500D01*
X129927486Y-108774500D01*
X129649085Y-108811153D01*
X129635007Y-108813007D01*
X129460861Y-108859669D01*
X129350048Y-108889361D01*
X129350038Y-108889364D01*
X129077499Y-109002254D01*
X129077489Y-109002258D01*
X128822006Y-109149761D01*
X128587959Y-109329352D01*
X128587952Y-109329358D01*
X128379358Y-109537952D01*
X128379352Y-109537959D01*
X128199761Y-109772006D01*
X128052258Y-110027489D01*
X128052254Y-110027499D01*
X127939364Y-110300038D01*
X127939361Y-110300048D01*
X127863008Y-110585004D01*
X127863006Y-110585015D01*
X127824500Y-110877486D01*
X126085854Y-110877486D01*
X126068402Y-110767299D01*
X126014873Y-110602555D01*
X125936232Y-110448212D01*
X125834414Y-110308072D01*
X125781882Y-110255540D01*
X125748397Y-110194217D01*
X125753381Y-110124525D01*
X125795253Y-110068592D01*
X125860717Y-110044175D01*
X125888961Y-110045386D01*
X126139072Y-110085000D01*
X126390928Y-110085000D01*
X126639669Y-110045602D01*
X126879184Y-109967780D01*
X127103575Y-109853446D01*
X127103581Y-109853442D01*
X127205697Y-109779250D01*
X127205698Y-109779250D01*
X126589025Y-109162578D01*
X126620258Y-109149641D01*
X126743097Y-109067563D01*
X126847563Y-108963097D01*
X126929641Y-108840258D01*
X126942577Y-108809025D01*
X127559250Y-109425698D01*
X127559250Y-109425697D01*
X127633442Y-109323581D01*
X127633446Y-109323575D01*
X127747780Y-109099184D01*
X127825602Y-108859669D01*
X127865000Y-108610928D01*
X127865000Y-108359071D01*
X127825602Y-108110330D01*
X127747780Y-107870815D01*
X127633442Y-107646416D01*
X127559250Y-107544301D01*
X127559250Y-107544300D01*
X126942577Y-108160973D01*
X126929641Y-108129742D01*
X126847563Y-108006903D01*
X126743097Y-107902437D01*
X126620258Y-107820359D01*
X126589024Y-107807421D01*
X127205698Y-107190748D01*
X127103583Y-107116557D01*
X126879184Y-107002219D01*
X126639669Y-106924397D01*
X126390928Y-106885000D01*
X126139072Y-106885000D01*
X125890330Y-106924397D01*
X125650815Y-107002219D01*
X125426413Y-107116559D01*
X125324301Y-107190747D01*
X125324300Y-107190748D01*
X125940974Y-107807421D01*
X125909742Y-107820359D01*
X125786903Y-107902437D01*
X125682437Y-108006903D01*
X125600359Y-108129742D01*
X125587421Y-108160974D01*
X124970748Y-107544300D01*
X124970747Y-107544301D01*
X124896559Y-107646413D01*
X124782219Y-107870815D01*
X124704397Y-108110330D01*
X124665000Y-108359071D01*
X124665000Y-108610928D01*
X124704397Y-108859669D01*
X124782219Y-109099184D01*
X124896557Y-109323583D01*
X124970748Y-109425697D01*
X124970748Y-109425698D01*
X125587421Y-108809024D01*
X125600359Y-108840258D01*
X125682437Y-108963097D01*
X125786903Y-109067563D01*
X125909742Y-109149641D01*
X125940974Y-109162577D01*
X125324300Y-109779250D01*
X125326598Y-109808449D01*
X125312233Y-109876827D01*
X125263181Y-109926583D01*
X125195016Y-109941921D01*
X125183583Y-109940650D01*
X125081611Y-109924500D01*
X124908389Y-109924500D01*
X124868728Y-109930781D01*
X124737302Y-109951597D01*
X124572552Y-110005128D01*
X124418211Y-110083768D01*
X124362115Y-110124525D01*
X124278072Y-110185586D01*
X124278070Y-110185588D01*
X124278069Y-110185588D01*
X124155588Y-110308069D01*
X124155588Y-110308070D01*
X124155586Y-110308072D01*
X124146557Y-110320500D01*
X124053768Y-110448211D01*
X123975128Y-110602552D01*
X123921597Y-110767302D01*
X123897320Y-110920586D01*
X123894500Y-110938389D01*
X117205500Y-110938389D01*
X117178402Y-110767299D01*
X117124873Y-110602555D01*
X117046232Y-110448212D01*
X116944414Y-110308072D01*
X116821928Y-110185586D01*
X116681788Y-110083768D01*
X116527445Y-110005127D01*
X116362701Y-109951598D01*
X116362699Y-109951597D01*
X116362698Y-109951597D01*
X116231271Y-109930781D01*
X116191611Y-109924500D01*
X116018389Y-109924500D01*
X115978728Y-109930781D01*
X115847302Y-109951597D01*
X115682552Y-110005128D01*
X115528211Y-110083768D01*
X115472115Y-110124525D01*
X115388072Y-110185586D01*
X115388070Y-110185588D01*
X115388069Y-110185588D01*
X115265588Y-110308069D01*
X115265588Y-110308070D01*
X115265586Y-110308072D01*
X115256557Y-110320500D01*
X115163768Y-110448211D01*
X115085128Y-110602552D01*
X115031597Y-110767302D01*
X115007320Y-110920586D01*
X115004500Y-110938389D01*
X113275500Y-110938389D01*
X113275500Y-110877494D01*
X113236993Y-110585007D01*
X113160639Y-110300048D01*
X113047743Y-110027493D01*
X112997604Y-109940650D01*
X112900238Y-109772006D01*
X112720647Y-109537959D01*
X112720641Y-109537952D01*
X112512047Y-109329358D01*
X112512040Y-109329352D01*
X112277993Y-109149761D01*
X112022510Y-109002258D01*
X112022500Y-109002254D01*
X111749961Y-108889364D01*
X111749954Y-108889362D01*
X111749952Y-108889361D01*
X111464993Y-108813007D01*
X111416113Y-108806571D01*
X111172513Y-108774500D01*
X111172506Y-108774500D01*
X110877494Y-108774500D01*
X110877486Y-108774500D01*
X110599085Y-108811153D01*
X110585007Y-108813007D01*
X110410861Y-108859669D01*
X110300048Y-108889361D01*
X110300038Y-108889364D01*
X110027499Y-109002254D01*
X110027489Y-109002258D01*
X109772006Y-109149761D01*
X109537959Y-109329352D01*
X109537952Y-109329358D01*
X109329358Y-109537952D01*
X109329352Y-109537959D01*
X109149761Y-109772006D01*
X109002258Y-110027489D01*
X109002254Y-110027499D01*
X108889364Y-110300038D01*
X108889361Y-110300048D01*
X108813008Y-110585004D01*
X108813006Y-110585015D01*
X108774500Y-110877486D01*
X107035854Y-110877486D01*
X107018402Y-110767299D01*
X106964873Y-110602555D01*
X106886232Y-110448212D01*
X106784414Y-110308072D01*
X106731882Y-110255540D01*
X106698397Y-110194217D01*
X106703381Y-110124525D01*
X106745253Y-110068592D01*
X106810717Y-110044175D01*
X106838961Y-110045386D01*
X107089072Y-110085000D01*
X107340928Y-110085000D01*
X107589669Y-110045602D01*
X107829184Y-109967780D01*
X108053575Y-109853446D01*
X108053581Y-109853442D01*
X108155697Y-109779250D01*
X108155698Y-109779250D01*
X107539025Y-109162578D01*
X107570258Y-109149641D01*
X107693097Y-109067563D01*
X107797563Y-108963097D01*
X107879641Y-108840258D01*
X107892577Y-108809025D01*
X108509250Y-109425698D01*
X108509250Y-109425697D01*
X108583442Y-109323581D01*
X108583446Y-109323575D01*
X108697780Y-109099184D01*
X108775602Y-108859669D01*
X108815000Y-108610928D01*
X108815000Y-108359071D01*
X108775602Y-108110330D01*
X108697780Y-107870815D01*
X108583442Y-107646416D01*
X108509250Y-107544301D01*
X108509250Y-107544300D01*
X107892577Y-108160973D01*
X107879641Y-108129742D01*
X107797563Y-108006903D01*
X107693097Y-107902437D01*
X107570258Y-107820359D01*
X107539024Y-107807421D01*
X108155698Y-107190748D01*
X108053583Y-107116557D01*
X107829184Y-107002219D01*
X107589669Y-106924397D01*
X107340928Y-106885000D01*
X107089072Y-106885000D01*
X106840330Y-106924397D01*
X106600815Y-107002219D01*
X106376413Y-107116559D01*
X106274301Y-107190747D01*
X106274300Y-107190748D01*
X106890974Y-107807421D01*
X106859742Y-107820359D01*
X106736903Y-107902437D01*
X106632437Y-108006903D01*
X106550359Y-108129742D01*
X106537421Y-108160974D01*
X105920748Y-107544300D01*
X105920747Y-107544301D01*
X105846559Y-107646413D01*
X105732219Y-107870815D01*
X105654397Y-108110330D01*
X105615000Y-108359071D01*
X105615000Y-108610928D01*
X105654397Y-108859669D01*
X105732219Y-109099184D01*
X105846557Y-109323583D01*
X105920748Y-109425697D01*
X105920748Y-109425698D01*
X106537421Y-108809024D01*
X106550359Y-108840258D01*
X106632437Y-108963097D01*
X106736903Y-109067563D01*
X106859742Y-109149641D01*
X106890974Y-109162577D01*
X106274300Y-109779250D01*
X106276598Y-109808449D01*
X106262233Y-109876827D01*
X106213181Y-109926583D01*
X106145016Y-109941921D01*
X106133583Y-109940650D01*
X106031611Y-109924500D01*
X105858389Y-109924500D01*
X105818728Y-109930781D01*
X105687302Y-109951597D01*
X105522552Y-110005128D01*
X105368211Y-110083768D01*
X105312115Y-110124525D01*
X105228072Y-110185586D01*
X105228070Y-110185588D01*
X105228069Y-110185588D01*
X105105588Y-110308069D01*
X105105588Y-110308070D01*
X105105586Y-110308072D01*
X105096557Y-110320500D01*
X105003768Y-110448211D01*
X104925128Y-110602552D01*
X104871597Y-110767302D01*
X104847320Y-110920586D01*
X104844500Y-110938389D01*
X100500500Y-110938389D01*
X100500500Y-105834778D01*
X112164500Y-105834778D01*
X112164500Y-106055221D01*
X112198985Y-106272952D01*
X112267103Y-106482603D01*
X112267104Y-106482606D01*
X112367187Y-106679025D01*
X112496752Y-106857358D01*
X112496756Y-106857363D01*
X112652636Y-107013243D01*
X112652641Y-107013247D01*
X112808192Y-107126260D01*
X112830978Y-107142815D01*
X112925049Y-107190747D01*
X113027393Y-107242895D01*
X113027396Y-107242896D01*
X113132221Y-107276955D01*
X113237049Y-107311015D01*
X113454778Y-107345500D01*
X113454779Y-107345500D01*
X113675221Y-107345500D01*
X113675222Y-107345500D01*
X113892951Y-107311015D01*
X114102606Y-107242895D01*
X114299022Y-107142815D01*
X114302764Y-107140096D01*
X114306077Y-107137690D01*
X114477358Y-107013247D01*
X114477356Y-107013247D01*
X114477365Y-107013242D01*
X114633242Y-106857365D01*
X114762815Y-106679022D01*
X114862895Y-106482606D01*
X114931015Y-106272951D01*
X114965500Y-106055222D01*
X114965500Y-105834778D01*
X131214500Y-105834778D01*
X131214500Y-106055221D01*
X131248985Y-106272952D01*
X131317103Y-106482603D01*
X131317104Y-106482606D01*
X131417187Y-106679025D01*
X131546752Y-106857358D01*
X131546756Y-106857363D01*
X131702636Y-107013243D01*
X131702641Y-107013247D01*
X131858192Y-107126260D01*
X131880978Y-107142815D01*
X131975049Y-107190747D01*
X132077393Y-107242895D01*
X132077396Y-107242896D01*
X132182221Y-107276955D01*
X132287049Y-107311015D01*
X132504778Y-107345500D01*
X132504779Y-107345500D01*
X132725221Y-107345500D01*
X132725222Y-107345500D01*
X132942951Y-107311015D01*
X133152606Y-107242895D01*
X133349022Y-107142815D01*
X133527365Y-107013242D01*
X133683242Y-106857365D01*
X133812815Y-106679022D01*
X133852463Y-106601210D01*
X140935000Y-106601210D01*
X140935000Y-106758789D01*
X140944701Y-106857299D01*
X140944701Y-106857302D01*
X140975444Y-107011864D01*
X141004185Y-107106612D01*
X141064490Y-107252198D01*
X141111158Y-107339506D01*
X141157533Y-107408912D01*
X141157534Y-107408913D01*
X141757037Y-106809409D01*
X141774075Y-106872993D01*
X141839901Y-106987007D01*
X141932993Y-107080099D01*
X142047007Y-107145925D01*
X142110590Y-107162962D01*
X141511085Y-107762465D01*
X141580493Y-107808841D01*
X141667801Y-107855509D01*
X141813387Y-107915814D01*
X141890298Y-107939144D01*
X141948736Y-107977441D01*
X141977193Y-108041253D01*
X141966633Y-108110320D01*
X141920409Y-108162714D01*
X141892622Y-108175736D01*
X141817550Y-108200128D01*
X141663211Y-108278768D01*
X141583256Y-108336859D01*
X141523072Y-108380586D01*
X141523070Y-108380588D01*
X141523069Y-108380588D01*
X141400588Y-108503069D01*
X141400588Y-108503070D01*
X141400586Y-108503072D01*
X141360047Y-108558869D01*
X141298768Y-108643211D01*
X141220128Y-108797552D01*
X141166597Y-108962302D01*
X141139500Y-109133389D01*
X141139500Y-109306610D01*
X141158361Y-109425698D01*
X141166598Y-109477701D01*
X141220127Y-109642445D01*
X141298768Y-109796788D01*
X141400586Y-109936928D01*
X141523072Y-110059414D01*
X141663212Y-110161232D01*
X141817555Y-110239873D01*
X141982299Y-110293402D01*
X142153389Y-110320500D01*
X142153390Y-110320500D01*
X142326610Y-110320500D01*
X142326611Y-110320500D01*
X142497701Y-110293402D01*
X142662445Y-110239873D01*
X142816788Y-110161232D01*
X142956928Y-110059414D01*
X143079414Y-109936928D01*
X143181232Y-109796788D01*
X143259873Y-109642445D01*
X143313402Y-109477701D01*
X143340500Y-109306611D01*
X143340500Y-109133389D01*
X143313402Y-108962299D01*
X143259873Y-108797555D01*
X143181232Y-108643212D01*
X143079414Y-108503072D01*
X142956928Y-108380586D01*
X142816788Y-108278768D01*
X142700438Y-108219485D01*
X142649642Y-108171511D01*
X142632847Y-108103690D01*
X142655384Y-108037555D01*
X142710099Y-107994103D01*
X142756733Y-107985000D01*
X142879786Y-107985000D01*
X142933762Y-107982106D01*
X142933764Y-107982106D01*
X143073023Y-107946563D01*
X143073035Y-107946559D01*
X143129582Y-107923135D01*
X142369409Y-107162962D01*
X142432993Y-107145925D01*
X142547007Y-107080099D01*
X142640099Y-106987007D01*
X142705925Y-106872993D01*
X142722962Y-106809409D01*
X143483135Y-107569582D01*
X143483137Y-107569582D01*
X143506552Y-107513053D01*
X143524544Y-107462053D01*
X143544999Y-107319780D01*
X143545000Y-107319779D01*
X143545000Y-106040224D01*
X143545000Y-106040219D01*
X158715000Y-106040219D01*
X158715000Y-107319785D01*
X158717893Y-107373762D01*
X158717893Y-107373764D01*
X158753438Y-107513030D01*
X158753440Y-107513037D01*
X158776863Y-107569583D01*
X159537037Y-106809409D01*
X159554075Y-106872993D01*
X159619901Y-106987007D01*
X159712993Y-107080099D01*
X159827007Y-107145925D01*
X159890590Y-107162962D01*
X159130415Y-107923135D01*
X159130415Y-107923136D01*
X159186946Y-107946552D01*
X159237946Y-107964544D01*
X159380219Y-107984999D01*
X159380221Y-107985000D01*
X159503267Y-107985000D01*
X159570306Y-108004685D01*
X159616061Y-108057489D01*
X159626005Y-108126647D01*
X159596980Y-108190203D01*
X159559562Y-108219485D01*
X159443211Y-108278768D01*
X159363256Y-108336859D01*
X159303072Y-108380586D01*
X159303070Y-108380588D01*
X159303069Y-108380588D01*
X159180588Y-108503069D01*
X159180588Y-108503070D01*
X159180586Y-108503072D01*
X159140047Y-108558869D01*
X159078768Y-108643211D01*
X159000128Y-108797552D01*
X158946597Y-108962302D01*
X158919500Y-109133389D01*
X158919500Y-109306610D01*
X158938361Y-109425698D01*
X158946598Y-109477701D01*
X159000127Y-109642445D01*
X159078768Y-109796788D01*
X159180586Y-109936928D01*
X159303072Y-110059414D01*
X159443212Y-110161232D01*
X159597555Y-110239873D01*
X159762299Y-110293402D01*
X159933389Y-110320500D01*
X159933390Y-110320500D01*
X160106610Y-110320500D01*
X160106611Y-110320500D01*
X160277701Y-110293402D01*
X160442445Y-110239873D01*
X160596788Y-110161232D01*
X160736928Y-110059414D01*
X160859414Y-109936928D01*
X160961232Y-109796788D01*
X161039873Y-109642445D01*
X161093402Y-109477701D01*
X161120500Y-109306611D01*
X161120500Y-109133389D01*
X161093402Y-108962299D01*
X161039873Y-108797555D01*
X160961232Y-108643212D01*
X160859414Y-108503072D01*
X160736928Y-108380586D01*
X160596788Y-108278768D01*
X160442449Y-108200128D01*
X160402782Y-108187239D01*
X160367376Y-108175735D01*
X160309702Y-108136298D01*
X160282504Y-108071939D01*
X160294419Y-108003093D01*
X160341663Y-107951617D01*
X160369702Y-107939144D01*
X160446609Y-107915815D01*
X160592198Y-107855509D01*
X160679501Y-107808844D01*
X160679511Y-107808838D01*
X160748912Y-107762465D01*
X160149409Y-107162962D01*
X160212993Y-107145925D01*
X160327007Y-107080099D01*
X160420099Y-106987007D01*
X160485925Y-106872993D01*
X160502962Y-106809409D01*
X161102465Y-107408912D01*
X161148838Y-107339511D01*
X161148844Y-107339501D01*
X161195509Y-107252198D01*
X161255814Y-107106612D01*
X161284555Y-107011864D01*
X161315298Y-106857302D01*
X161315298Y-106857299D01*
X161325000Y-106758789D01*
X161325000Y-106601210D01*
X161315298Y-106502700D01*
X161315298Y-106502697D01*
X161284555Y-106348135D01*
X161255814Y-106253387D01*
X161195509Y-106107801D01*
X161148841Y-106020493D01*
X161102465Y-105951086D01*
X161102465Y-105951085D01*
X160502962Y-106550589D01*
X160485925Y-106487007D01*
X160420099Y-106372993D01*
X160327007Y-106279901D01*
X160212993Y-106214075D01*
X160149410Y-106197037D01*
X160748913Y-105597534D01*
X160748912Y-105597533D01*
X160679506Y-105551158D01*
X160592198Y-105504490D01*
X160446614Y-105444187D01*
X160369700Y-105420855D01*
X160311262Y-105382557D01*
X160282805Y-105318745D01*
X160293366Y-105249678D01*
X160339590Y-105197284D01*
X160367371Y-105184266D01*
X160442445Y-105159873D01*
X160596788Y-105081232D01*
X160736928Y-104979414D01*
X160859414Y-104856928D01*
X160961232Y-104716788D01*
X161039873Y-104562445D01*
X161093402Y-104397701D01*
X161120500Y-104226611D01*
X161120500Y-104053389D01*
X161093402Y-103882299D01*
X161039873Y-103717555D01*
X160961232Y-103563212D01*
X160859414Y-103423072D01*
X160736928Y-103300586D01*
X160596788Y-103198768D01*
X160442445Y-103120127D01*
X160277701Y-103066598D01*
X160277699Y-103066597D01*
X160277698Y-103066597D01*
X160146271Y-103045781D01*
X160106611Y-103039500D01*
X159933389Y-103039500D01*
X159893728Y-103045781D01*
X159762302Y-103066597D01*
X159597552Y-103120128D01*
X159443211Y-103198768D01*
X159363256Y-103256859D01*
X159303072Y-103300586D01*
X159303070Y-103300588D01*
X159303069Y-103300588D01*
X159180588Y-103423069D01*
X159180588Y-103423070D01*
X159180586Y-103423072D01*
X159136859Y-103483256D01*
X159078768Y-103563211D01*
X159000128Y-103717552D01*
X158946597Y-103882302D01*
X158919500Y-104053389D01*
X158919500Y-104226611D01*
X158946598Y-104397701D01*
X159000127Y-104562445D01*
X159078768Y-104716788D01*
X159180586Y-104856928D01*
X159303072Y-104979414D01*
X159443212Y-105081232D01*
X159522262Y-105121509D01*
X159559562Y-105140515D01*
X159610358Y-105188489D01*
X159627153Y-105256310D01*
X159604616Y-105322445D01*
X159549901Y-105365897D01*
X159503267Y-105375000D01*
X159380214Y-105375000D01*
X159326237Y-105377893D01*
X159326235Y-105377893D01*
X159186969Y-105413438D01*
X159186956Y-105413442D01*
X159130415Y-105436862D01*
X159890590Y-106197037D01*
X159827007Y-106214075D01*
X159712993Y-106279901D01*
X159619901Y-106372993D01*
X159554075Y-106487007D01*
X159537037Y-106550590D01*
X158776862Y-105790415D01*
X158753449Y-105846940D01*
X158735455Y-105897946D01*
X158715000Y-106040219D01*
X143545000Y-106040219D01*
X143544999Y-106040204D01*
X143542106Y-105986237D01*
X143542106Y-105986235D01*
X143506558Y-105846960D01*
X143483136Y-105790415D01*
X143483135Y-105790415D01*
X142722962Y-106550589D01*
X142705925Y-106487007D01*
X142640099Y-106372993D01*
X142547007Y-106279901D01*
X142432993Y-106214075D01*
X142369410Y-106197037D01*
X143129583Y-105436863D01*
X143129583Y-105436862D01*
X143073052Y-105413447D01*
X143073035Y-105413440D01*
X143022053Y-105395455D01*
X142879780Y-105375000D01*
X142756733Y-105375000D01*
X142689694Y-105355315D01*
X142643939Y-105302511D01*
X142633995Y-105233353D01*
X142663020Y-105169797D01*
X142700438Y-105140515D01*
X142722304Y-105129373D01*
X142816788Y-105081232D01*
X142956928Y-104979414D01*
X143079414Y-104856928D01*
X143181232Y-104716788D01*
X143259873Y-104562445D01*
X143313402Y-104397701D01*
X143340500Y-104226611D01*
X143340500Y-104053389D01*
X143313402Y-103882299D01*
X143259873Y-103717555D01*
X143181232Y-103563212D01*
X143079414Y-103423072D01*
X142956928Y-103300586D01*
X142816788Y-103198768D01*
X142662445Y-103120127D01*
X142497701Y-103066598D01*
X142497699Y-103066597D01*
X142497698Y-103066597D01*
X142366271Y-103045781D01*
X142326611Y-103039500D01*
X142153389Y-103039500D01*
X142113728Y-103045781D01*
X141982302Y-103066597D01*
X141817552Y-103120128D01*
X141663211Y-103198768D01*
X141583256Y-103256859D01*
X141523072Y-103300586D01*
X141523070Y-103300588D01*
X141523069Y-103300588D01*
X141400588Y-103423069D01*
X141400588Y-103423070D01*
X141400586Y-103423072D01*
X141356859Y-103483256D01*
X141298768Y-103563211D01*
X141220128Y-103717552D01*
X141166597Y-103882302D01*
X141139500Y-104053389D01*
X141139500Y-104226611D01*
X141166598Y-104397701D01*
X141220127Y-104562445D01*
X141298768Y-104716788D01*
X141400586Y-104856928D01*
X141523072Y-104979414D01*
X141663212Y-105081232D01*
X141817555Y-105159873D01*
X141892622Y-105184264D01*
X141950296Y-105223700D01*
X141977495Y-105288059D01*
X141965580Y-105356905D01*
X141918336Y-105408381D01*
X141890299Y-105420854D01*
X141813394Y-105444183D01*
X141667801Y-105504490D01*
X141580488Y-105551161D01*
X141511086Y-105597532D01*
X141511085Y-105597533D01*
X142110590Y-106197037D01*
X142047007Y-106214075D01*
X141932993Y-106279901D01*
X141839901Y-106372993D01*
X141774075Y-106487007D01*
X141757037Y-106550589D01*
X141157533Y-105951085D01*
X141157532Y-105951086D01*
X141111161Y-106020488D01*
X141064490Y-106107801D01*
X141004185Y-106253387D01*
X140975444Y-106348135D01*
X140944701Y-106502697D01*
X140944701Y-106502700D01*
X140935000Y-106601210D01*
X133852463Y-106601210D01*
X133912895Y-106482606D01*
X133981015Y-106272951D01*
X134015500Y-106055222D01*
X134015500Y-105834778D01*
X133981015Y-105617049D01*
X133924850Y-105444187D01*
X133912896Y-105407396D01*
X133912895Y-105407393D01*
X133869611Y-105322445D01*
X133812815Y-105210978D01*
X133793406Y-105184263D01*
X133683247Y-105032641D01*
X133683243Y-105032636D01*
X133527363Y-104876756D01*
X133527358Y-104876752D01*
X133349025Y-104747187D01*
X133349024Y-104747186D01*
X133349022Y-104747185D01*
X133286096Y-104715122D01*
X133152606Y-104647104D01*
X133152603Y-104647103D01*
X132942952Y-104578985D01*
X132834086Y-104561742D01*
X132725222Y-104544500D01*
X132504778Y-104544500D01*
X132432201Y-104555995D01*
X132287047Y-104578985D01*
X132077396Y-104647103D01*
X132077393Y-104647104D01*
X131880974Y-104747187D01*
X131702641Y-104876752D01*
X131702636Y-104876756D01*
X131546756Y-105032636D01*
X131546752Y-105032641D01*
X131417187Y-105210974D01*
X131317104Y-105407393D01*
X131317103Y-105407396D01*
X131248985Y-105617047D01*
X131214500Y-105834778D01*
X114965500Y-105834778D01*
X114931015Y-105617049D01*
X114874850Y-105444187D01*
X114862896Y-105407396D01*
X114862895Y-105407393D01*
X114819611Y-105322445D01*
X114762815Y-105210978D01*
X114743406Y-105184263D01*
X114633247Y-105032641D01*
X114633243Y-105032636D01*
X114477363Y-104876756D01*
X114477358Y-104876752D01*
X114299025Y-104747187D01*
X114299024Y-104747186D01*
X114299022Y-104747185D01*
X114236096Y-104715122D01*
X114102606Y-104647104D01*
X114102603Y-104647103D01*
X113892952Y-104578985D01*
X113784086Y-104561742D01*
X113675222Y-104544500D01*
X113454778Y-104544500D01*
X113382201Y-104555995D01*
X113237047Y-104578985D01*
X113027396Y-104647103D01*
X113027393Y-104647104D01*
X112830974Y-104747187D01*
X112652641Y-104876752D01*
X112652636Y-104876756D01*
X112496756Y-105032636D01*
X112496752Y-105032641D01*
X112367187Y-105210974D01*
X112267104Y-105407393D01*
X112267103Y-105407396D01*
X112198985Y-105617047D01*
X112164500Y-105834778D01*
X100500500Y-105834778D01*
X100500500Y-102004427D01*
X100500816Y-101995581D01*
X100505213Y-101934108D01*
X100515130Y-101795436D01*
X100517646Y-101777938D01*
X100559356Y-101586200D01*
X100564335Y-101569242D01*
X100632911Y-101385382D01*
X100640251Y-101369310D01*
X100734294Y-101197083D01*
X100743850Y-101182214D01*
X100861443Y-101025128D01*
X100873017Y-101011771D01*
X101011771Y-100873017D01*
X101025128Y-100861443D01*
X101182214Y-100743850D01*
X101197083Y-100734294D01*
X101369310Y-100640251D01*
X101385382Y-100632911D01*
X101569242Y-100564335D01*
X101586200Y-100559356D01*
X101777938Y-100517646D01*
X101795436Y-100515130D01*
X101995582Y-100500816D01*
X102004428Y-100500500D01*
X102065892Y-100500500D01*
X141140999Y-100500500D01*
X141208038Y-100520185D01*
G37*
%TD.AperFunction*%
%TD*%
M02*
