%TF.GenerationSoftware,KiCad,Pcbnew,10.0.6*%
%TF.CreationDate,2026-10-08T15:39:52-04:00*%
%TF.ProjectId,stream-deck,73747265-616d-42d6-9465-636b2e6b6963,rev?*%
%TF.SameCoordinates,Original*%
%TF.FileFunction,Legend,Top*%
%TF.FilePolarity,Positive*%
%FSLAX46Y46*%
G04 Gerber Fmt 4.6, Leading zero omitted, Abs format (unit mm)*
G04 Created by KiCad (PCBNEW 10.0.6) date 2026-10-08 15:39:52*
%MOMM*%
%LPD*%
G01*
G04 APERTURE LIST*
%ADD10C,0.150000*%
%ADD11C,0.120000*%
G04 APERTURE END LIST*
D10*
X163214279Y-149949819D02*
X163214279Y-150759342D01*
X163214279Y-150759342D02*
X163261898Y-150854580D01*
X163261898Y-150854580D02*
X163309517Y-150902200D01*
X163309517Y-150902200D02*
X163404755Y-150949819D01*
X163404755Y-150949819D02*
X163595231Y-150949819D01*
X163595231Y-150949819D02*
X163690469Y-150902200D01*
X163690469Y-150902200D02*
X163738088Y-150854580D01*
X163738088Y-150854580D02*
X163785707Y-150759342D01*
X163785707Y-150759342D02*
X163785707Y-149949819D01*
X164785707Y-150949819D02*
X164214279Y-150949819D01*
X164499993Y-150949819D02*
X164499993Y-149949819D01*
X164499993Y-149949819D02*
X164404755Y-150092676D01*
X164404755Y-150092676D02*
X164309517Y-150187914D01*
X164309517Y-150187914D02*
X164214279Y-150235533D01*
X109691667Y-122608200D02*
X109834524Y-122655819D01*
X109834524Y-122655819D02*
X110072619Y-122655819D01*
X110072619Y-122655819D02*
X110167857Y-122608200D01*
X110167857Y-122608200D02*
X110215476Y-122560580D01*
X110215476Y-122560580D02*
X110263095Y-122465342D01*
X110263095Y-122465342D02*
X110263095Y-122370104D01*
X110263095Y-122370104D02*
X110215476Y-122274866D01*
X110215476Y-122274866D02*
X110167857Y-122227247D01*
X110167857Y-122227247D02*
X110072619Y-122179628D01*
X110072619Y-122179628D02*
X109882143Y-122132009D01*
X109882143Y-122132009D02*
X109786905Y-122084390D01*
X109786905Y-122084390D02*
X109739286Y-122036771D01*
X109739286Y-122036771D02*
X109691667Y-121941533D01*
X109691667Y-121941533D02*
X109691667Y-121846295D01*
X109691667Y-121846295D02*
X109739286Y-121751057D01*
X109739286Y-121751057D02*
X109786905Y-121703438D01*
X109786905Y-121703438D02*
X109882143Y-121655819D01*
X109882143Y-121655819D02*
X110120238Y-121655819D01*
X110120238Y-121655819D02*
X110263095Y-121703438D01*
X110596429Y-121655819D02*
X110834524Y-122655819D01*
X110834524Y-122655819D02*
X111025000Y-121941533D01*
X111025000Y-121941533D02*
X111215476Y-122655819D01*
X111215476Y-122655819D02*
X111453572Y-121655819D01*
X111739286Y-121655819D02*
X112358333Y-121655819D01*
X112358333Y-121655819D02*
X112025000Y-122036771D01*
X112025000Y-122036771D02*
X112167857Y-122036771D01*
X112167857Y-122036771D02*
X112263095Y-122084390D01*
X112263095Y-122084390D02*
X112310714Y-122132009D01*
X112310714Y-122132009D02*
X112358333Y-122227247D01*
X112358333Y-122227247D02*
X112358333Y-122465342D01*
X112358333Y-122465342D02*
X112310714Y-122560580D01*
X112310714Y-122560580D02*
X112263095Y-122608200D01*
X112263095Y-122608200D02*
X112167857Y-122655819D01*
X112167857Y-122655819D02*
X111882143Y-122655819D01*
X111882143Y-122655819D02*
X111786905Y-122608200D01*
X111786905Y-122608200D02*
X111739286Y-122560580D01*
X128741667Y-103558200D02*
X128884524Y-103605819D01*
X128884524Y-103605819D02*
X129122619Y-103605819D01*
X129122619Y-103605819D02*
X129217857Y-103558200D01*
X129217857Y-103558200D02*
X129265476Y-103510580D01*
X129265476Y-103510580D02*
X129313095Y-103415342D01*
X129313095Y-103415342D02*
X129313095Y-103320104D01*
X129313095Y-103320104D02*
X129265476Y-103224866D01*
X129265476Y-103224866D02*
X129217857Y-103177247D01*
X129217857Y-103177247D02*
X129122619Y-103129628D01*
X129122619Y-103129628D02*
X128932143Y-103082009D01*
X128932143Y-103082009D02*
X128836905Y-103034390D01*
X128836905Y-103034390D02*
X128789286Y-102986771D01*
X128789286Y-102986771D02*
X128741667Y-102891533D01*
X128741667Y-102891533D02*
X128741667Y-102796295D01*
X128741667Y-102796295D02*
X128789286Y-102701057D01*
X128789286Y-102701057D02*
X128836905Y-102653438D01*
X128836905Y-102653438D02*
X128932143Y-102605819D01*
X128932143Y-102605819D02*
X129170238Y-102605819D01*
X129170238Y-102605819D02*
X129313095Y-102653438D01*
X129646429Y-102605819D02*
X129884524Y-103605819D01*
X129884524Y-103605819D02*
X130075000Y-102891533D01*
X130075000Y-102891533D02*
X130265476Y-103605819D01*
X130265476Y-103605819D02*
X130503572Y-102605819D01*
X130836905Y-102701057D02*
X130884524Y-102653438D01*
X130884524Y-102653438D02*
X130979762Y-102605819D01*
X130979762Y-102605819D02*
X131217857Y-102605819D01*
X131217857Y-102605819D02*
X131313095Y-102653438D01*
X131313095Y-102653438D02*
X131360714Y-102701057D01*
X131360714Y-102701057D02*
X131408333Y-102796295D01*
X131408333Y-102796295D02*
X131408333Y-102891533D01*
X131408333Y-102891533D02*
X131360714Y-103034390D01*
X131360714Y-103034390D02*
X130789286Y-103605819D01*
X130789286Y-103605819D02*
X131408333Y-103605819D01*
X109691667Y-103558200D02*
X109834524Y-103605819D01*
X109834524Y-103605819D02*
X110072619Y-103605819D01*
X110072619Y-103605819D02*
X110167857Y-103558200D01*
X110167857Y-103558200D02*
X110215476Y-103510580D01*
X110215476Y-103510580D02*
X110263095Y-103415342D01*
X110263095Y-103415342D02*
X110263095Y-103320104D01*
X110263095Y-103320104D02*
X110215476Y-103224866D01*
X110215476Y-103224866D02*
X110167857Y-103177247D01*
X110167857Y-103177247D02*
X110072619Y-103129628D01*
X110072619Y-103129628D02*
X109882143Y-103082009D01*
X109882143Y-103082009D02*
X109786905Y-103034390D01*
X109786905Y-103034390D02*
X109739286Y-102986771D01*
X109739286Y-102986771D02*
X109691667Y-102891533D01*
X109691667Y-102891533D02*
X109691667Y-102796295D01*
X109691667Y-102796295D02*
X109739286Y-102701057D01*
X109739286Y-102701057D02*
X109786905Y-102653438D01*
X109786905Y-102653438D02*
X109882143Y-102605819D01*
X109882143Y-102605819D02*
X110120238Y-102605819D01*
X110120238Y-102605819D02*
X110263095Y-102653438D01*
X110596429Y-102605819D02*
X110834524Y-103605819D01*
X110834524Y-103605819D02*
X111025000Y-102891533D01*
X111025000Y-102891533D02*
X111215476Y-103605819D01*
X111215476Y-103605819D02*
X111453572Y-102605819D01*
X112358333Y-103605819D02*
X111786905Y-103605819D01*
X112072619Y-103605819D02*
X112072619Y-102605819D01*
X112072619Y-102605819D02*
X111977381Y-102748676D01*
X111977381Y-102748676D02*
X111882143Y-102843914D01*
X111882143Y-102843914D02*
X111786905Y-102891533D01*
X128741667Y-122608200D02*
X128884524Y-122655819D01*
X128884524Y-122655819D02*
X129122619Y-122655819D01*
X129122619Y-122655819D02*
X129217857Y-122608200D01*
X129217857Y-122608200D02*
X129265476Y-122560580D01*
X129265476Y-122560580D02*
X129313095Y-122465342D01*
X129313095Y-122465342D02*
X129313095Y-122370104D01*
X129313095Y-122370104D02*
X129265476Y-122274866D01*
X129265476Y-122274866D02*
X129217857Y-122227247D01*
X129217857Y-122227247D02*
X129122619Y-122179628D01*
X129122619Y-122179628D02*
X128932143Y-122132009D01*
X128932143Y-122132009D02*
X128836905Y-122084390D01*
X128836905Y-122084390D02*
X128789286Y-122036771D01*
X128789286Y-122036771D02*
X128741667Y-121941533D01*
X128741667Y-121941533D02*
X128741667Y-121846295D01*
X128741667Y-121846295D02*
X128789286Y-121751057D01*
X128789286Y-121751057D02*
X128836905Y-121703438D01*
X128836905Y-121703438D02*
X128932143Y-121655819D01*
X128932143Y-121655819D02*
X129170238Y-121655819D01*
X129170238Y-121655819D02*
X129313095Y-121703438D01*
X129646429Y-121655819D02*
X129884524Y-122655819D01*
X129884524Y-122655819D02*
X130075000Y-121941533D01*
X130075000Y-121941533D02*
X130265476Y-122655819D01*
X130265476Y-122655819D02*
X130503572Y-121655819D01*
X131313095Y-121989152D02*
X131313095Y-122655819D01*
X131075000Y-121608200D02*
X130836905Y-122322485D01*
X130836905Y-122322485D02*
X131455952Y-122322485D01*
%TO.C,U1*%
D11*
X140200000Y-102400000D02*
X140200000Y-100800000D01*
X140520000Y-100730000D02*
X140520000Y-150730000D01*
X140860000Y-100183000D02*
X140860000Y-151277000D01*
X141130000Y-100120000D02*
X143620000Y-100120000D01*
X141130000Y-151340000D02*
X144967939Y-151340000D01*
X143620000Y-100120000D02*
X143620000Y-101033520D01*
X143620000Y-100120000D02*
X144967940Y-100120000D01*
X143620000Y-103426480D02*
X143620000Y-148033520D01*
X143620000Y-150426480D02*
X143620000Y-151340000D01*
X145892061Y-100120000D02*
X146895000Y-100120000D01*
X146895000Y-100120000D02*
X155365000Y-100120000D01*
X147020000Y-98820000D02*
X147020000Y-99640000D01*
X147020000Y-98820000D02*
X155240000Y-98820000D01*
X147020000Y-99640000D02*
X147230000Y-99640000D01*
X147230000Y-99640000D02*
X147230000Y-101036000D01*
X147230000Y-103424000D02*
X147230000Y-104640000D01*
X147530000Y-151340000D02*
X145892061Y-151340000D01*
X154730000Y-151340000D02*
X147530000Y-151340000D01*
X155030000Y-99640000D02*
X155030000Y-101036000D01*
X155030000Y-103424000D02*
X155030000Y-104640000D01*
X155030000Y-104640000D02*
X147230000Y-104640000D01*
X155240000Y-98820000D02*
X155240000Y-99640000D01*
X155240000Y-99640000D02*
X155030000Y-99640000D01*
X155365000Y-100120000D02*
X156367939Y-100120000D01*
X156367939Y-151340000D02*
X154730000Y-151340000D01*
X157292061Y-100120000D02*
X158640000Y-100120000D01*
X157292061Y-151340000D02*
X161130000Y-151340000D01*
X158640000Y-100120000D02*
X158640000Y-101033520D01*
X158640000Y-103426480D02*
X158640000Y-148033520D01*
X158640000Y-150426480D02*
X158640000Y-151340000D01*
X161130000Y-100120000D02*
X158640000Y-100120000D01*
X161400000Y-151277000D02*
X161400000Y-100183000D01*
X161740000Y-100730000D02*
X161740000Y-150730000D01*
X140520000Y-100730000D02*
G75*
G02*
X141130000Y-100120000I610000J0D01*
G01*
X141130000Y-151340000D02*
G75*
G02*
X140520000Y-150730000I-99J609901D01*
G01*
X161130000Y-100120000D02*
G75*
G02*
X161740000Y-100730000I0J-610000D01*
G01*
X161740000Y-150730000D02*
G75*
G02*
X161130000Y-151340000I-610000J0D01*
G01*
%TO.C,D4*%
X128515000Y-133919000D02*
X128515000Y-134075000D01*
X128515000Y-136235000D02*
X128515000Y-136391000D01*
X128515000Y-133919484D02*
G75*
G02*
X131746437Y-134075000I1560000J-1235516D01*
G01*
X129034039Y-134075000D02*
G75*
G02*
X131115961Y-134075000I1040961J-1080000D01*
G01*
X131115961Y-136235000D02*
G75*
G02*
X129034039Y-136235000I-1040961J1080000D01*
G01*
X131746437Y-136235000D02*
G75*
G02*
X128515000Y-136390516I-1671437J1080000D01*
G01*
%TO.C,SW3*%
X104040000Y-123090000D02*
X118010000Y-123090000D01*
X104040000Y-137060000D02*
X104040000Y-123090000D01*
X118010000Y-123090000D02*
X118010000Y-137060000D01*
X118010000Y-137060000D02*
X104040000Y-137060000D01*
%TO.C,D1*%
X109465000Y-114869000D02*
X109465000Y-115025000D01*
X109465000Y-117185000D02*
X109465000Y-117341000D01*
X109465000Y-114869484D02*
G75*
G02*
X112696437Y-115025000I1560000J-1235516D01*
G01*
X109984039Y-115025000D02*
G75*
G02*
X112065961Y-115025000I1040961J-1080000D01*
G01*
X112065961Y-117185000D02*
G75*
G02*
X109984039Y-117185000I-1040961J1080000D01*
G01*
X112696437Y-117185000D02*
G75*
G02*
X109465000Y-117340516I-1671437J1080000D01*
G01*
%TO.C,SW2*%
X123090000Y-104040000D02*
X137060000Y-104040000D01*
X123090000Y-118010000D02*
X123090000Y-104040000D01*
X137060000Y-104040000D02*
X137060000Y-118010000D01*
X137060000Y-118010000D02*
X123090000Y-118010000D01*
%TO.C,D2*%
X128515000Y-114869000D02*
X128515000Y-115025000D01*
X128515000Y-117185000D02*
X128515000Y-117341000D01*
X128515000Y-114869484D02*
G75*
G02*
X131746437Y-115025000I1560000J-1235516D01*
G01*
X129034039Y-115025000D02*
G75*
G02*
X131115961Y-115025000I1040961J-1080000D01*
G01*
X131115961Y-117185000D02*
G75*
G02*
X129034039Y-117185000I-1040961J1080000D01*
G01*
X131746437Y-117185000D02*
G75*
G02*
X128515000Y-117340516I-1671437J1080000D01*
G01*
%TO.C,D3*%
X109465000Y-133919000D02*
X109465000Y-134075000D01*
X109465000Y-136235000D02*
X109465000Y-136391000D01*
X109465000Y-133919484D02*
G75*
G02*
X112696437Y-134075000I1560000J-1235516D01*
G01*
X109984039Y-134075000D02*
G75*
G02*
X112065961Y-134075000I1040961J-1080000D01*
G01*
X112065961Y-136235000D02*
G75*
G02*
X109984039Y-136235000I-1040961J1080000D01*
G01*
X112696437Y-136235000D02*
G75*
G02*
X109465000Y-136390516I-1671437J1080000D01*
G01*
%TO.C,SW1*%
X104040000Y-104040000D02*
X118010000Y-104040000D01*
X104040000Y-118010000D02*
X104040000Y-104040000D01*
X118010000Y-104040000D02*
X118010000Y-118010000D01*
X118010000Y-118010000D02*
X104040000Y-118010000D01*
%TO.C,SW4*%
X123090000Y-123090000D02*
X137060000Y-123090000D01*
X123090000Y-137060000D02*
X123090000Y-123090000D01*
X137060000Y-123090000D02*
X137060000Y-137060000D01*
X137060000Y-137060000D02*
X123090000Y-137060000D01*
%TD*%
M02*
